ISO-10303-21;
HEADER;
FILE_DESCRIPTION(('FreeCAD Model'),'2;1');
FILE_NAME('Open CASCADE Shape Model','2026-09-17T08:22:36',('FreeCAD'),(
    'FreeCAD'),'Open CASCADE STEP processor 7.8','FreeCAD','Unknown');
FILE_SCHEMA(('AUTOMOTIVE_DESIGN { 1 0 10303 214 1 1 1 1 }'));
ENDSEC;
DATA;
#1 = APPLICATION_PROTOCOL_DEFINITION('international standard',
  'automotive_design',2000,#2);
#2 = APPLICATION_CONTEXT(
  'core data for automotive mechanical design processes');
#3 = SHAPE_DEFINITION_REPRESENTATION(#4,#10);
#4 = PRODUCT_DEFINITION_SHAPE('','',#5);
#5 = PRODUCT_DEFINITION('design','',#6,#9);
#6 = PRODUCT_DEFINITION_FORMATION('','',#7);
#7 = PRODUCT('Open CASCADE STEP translator 7.8 1',
  'Open CASCADE STEP translator 7.8 1','',(#8));
#8 = PRODUCT_CONTEXT('',#2,'mechanical');
#9 = PRODUCT_DEFINITION_CONTEXT('part definition',#2,'design');
#10 = ADVANCED_BREP_SHAPE_REPRESENTATION('',(#11,#15),#2105);
#11 = AXIS2_PLACEMENT_3D('',#12,#13,#14);
#12 = CARTESIAN_POINT('',(0.,0.,0.));
#13 = DIRECTION('',(0.,0.,1.));
#14 = DIRECTION('',(1.,0.,-0.));
#15 = MANIFOLD_SOLID_BREP('',#16);
#16 = CLOSED_SHELL('',(#17,#163,#195,#219,#243,#268,#293,#317,#341,#359,
    #391,#415,#439,#464,#489,#513,#537,#555,#587,#611,#635,#660,#685,
    #709,#733,#751,#783,#807,#831,#856,#881,#905,#929,#947,#1033,#1119,
    #1151,#1175,#1199,#1224,#1249,#1273,#1297,#1315,#1414,#1439,#1463,
    #1488,#1580,#1605,#1629,#1647,#1673,#1704,#1728,#1752,#1769,#1800,
    #1824,#1848,#1865,#1896,#1920,#1944,#1961,#1992,#2016,#2040,#2057,
    #2069,#2081,#2093));
#17 = ADVANCED_FACE('',(#18,#88),#158,.T.);
#18 = FACE_BOUND('',#19,.T.);
#19 = EDGE_LOOP('',(#20,#31,#39,#48,#56,#65,#73,#82));
#20 = ORIENTED_EDGE('',*,*,#21,.F.);
#21 = EDGE_CURVE('',#22,#24,#26,.T.);
#22 = VERTEX_POINT('',#23);
#23 = CARTESIAN_POINT('',(-14.1,-18.5,13.6));
#24 = VERTEX_POINT('',#25);
#25 = CARTESIAN_POINT('',(-11.,-21.6,13.6));
#26 = CIRCLE('',#27,3.1);
#27 = AXIS2_PLACEMENT_3D('',#28,#29,#30);
#28 = CARTESIAN_POINT('',(-11.,-18.5,13.6));
#29 = DIRECTION('',(0.,0.,1.));
#30 = DIRECTION('',(-1.,0.,0.));
#31 = ORIENTED_EDGE('',*,*,#32,.F.);
#32 = EDGE_CURVE('',#33,#22,#35,.T.);
#33 = VERTEX_POINT('',#34);
#34 = CARTESIAN_POINT('',(-14.1,18.5,13.6));
#35 = LINE('',#36,#37);
#36 = CARTESIAN_POINT('',(-14.1,18.5,13.6));
#37 = VECTOR('',#38,1.);
#38 = DIRECTION('',(0.,-1.,-0.));
#39 = ORIENTED_EDGE('',*,*,#40,.F.);
#40 = EDGE_CURVE('',#41,#33,#43,.T.);
#41 = VERTEX_POINT('',#42);
#42 = CARTESIAN_POINT('',(-11.,21.6,13.6));
#43 = CIRCLE('',#44,3.1);
#44 = AXIS2_PLACEMENT_3D('',#45,#46,#47);
#45 = CARTESIAN_POINT('',(-11.,18.5,13.6));
#46 = DIRECTION('',(0.,-0.,1.));
#47 = DIRECTION('',(0.,1.,0.));
#48 = ORIENTED_EDGE('',*,*,#49,.F.);
#49 = EDGE_CURVE('',#50,#41,#52,.T.);
#50 = VERTEX_POINT('',#51);
#51 = CARTESIAN_POINT('',(11.,21.6,13.6));
#52 = LINE('',#53,#54);
#53 = CARTESIAN_POINT('',(11.,21.6,13.6));
#54 = VECTOR('',#55,1.);
#55 = DIRECTION('',(-1.,-0.,0.));
#56 = ORIENTED_EDGE('',*,*,#57,.F.);
#57 = EDGE_CURVE('',#58,#50,#60,.T.);
#58 = VERTEX_POINT('',#59);
#59 = CARTESIAN_POINT('',(14.1,18.5,13.6));
#60 = CIRCLE('',#61,3.1);
#61 = AXIS2_PLACEMENT_3D('',#62,#63,#64);
#62 = CARTESIAN_POINT('',(11.,18.5,13.6));
#63 = DIRECTION('',(0.,0.,1.));
#64 = DIRECTION('',(1.,0.,-0.));
#65 = ORIENTED_EDGE('',*,*,#66,.F.);
#66 = EDGE_CURVE('',#67,#58,#69,.T.);
#67 = VERTEX_POINT('',#68);
#68 = CARTESIAN_POINT('',(14.1,-18.5,13.6));
#69 = LINE('',#70,#71);
#70 = CARTESIAN_POINT('',(14.1,-18.5,13.6));
#71 = VECTOR('',#72,1.);
#72 = DIRECTION('',(-0.,1.,0.));
#73 = ORIENTED_EDGE('',*,*,#74,.F.);
#74 = EDGE_CURVE('',#75,#67,#77,.T.);
#75 = VERTEX_POINT('',#76);
#76 = CARTESIAN_POINT('',(11.,-21.6,13.6));
#77 = CIRCLE('',#78,3.1);
#78 = AXIS2_PLACEMENT_3D('',#79,#80,#81);
#79 = CARTESIAN_POINT('',(11.,-18.5,13.6));
#80 = DIRECTION('',(0.,0.,1.));
#81 = DIRECTION('',(0.,-1.,0.));
#82 = ORIENTED_EDGE('',*,*,#83,.F.);
#83 = EDGE_CURVE('',#24,#75,#84,.T.);
#84 = LINE('',#85,#86);
#85 = CARTESIAN_POINT('',(-11.,-21.6,13.6));
#86 = VECTOR('',#87,1.);
#87 = DIRECTION('',(1.,0.,-0.));
#88 = FACE_BOUND('',#89,.T.);
#89 = EDGE_LOOP('',(#90,#101,#109,#118,#126,#135,#143,#152));
#90 = ORIENTED_EDGE('',*,*,#91,.T.);
#91 = EDGE_CURVE('',#92,#94,#96,.T.);
#92 = VERTEX_POINT('',#93);
#93 = CARTESIAN_POINT('',(-19.,-23.,13.6));
#94 = VERTEX_POINT('',#95);
#95 = CARTESIAN_POINT('',(-16.,-26.,13.6));
#96 = CIRCLE('',#97,3.);
#97 = AXIS2_PLACEMENT_3D('',#98,#99,#100);
#98 = CARTESIAN_POINT('',(-16.,-23.,13.6));
#99 = DIRECTION('',(0.,0.,1.));
#100 = DIRECTION('',(-1.,0.,0.));
#101 = ORIENTED_EDGE('',*,*,#102,.T.);
#102 = EDGE_CURVE('',#94,#103,#105,.T.);
#103 = VERTEX_POINT('',#104);
#104 = CARTESIAN_POINT('',(16.,-26.,13.6));
#105 = LINE('',#106,#107);
#106 = CARTESIAN_POINT('',(-16.,-26.,13.6));
#107 = VECTOR('',#108,1.);
#108 = DIRECTION('',(1.,0.,-0.));
#109 = ORIENTED_EDGE('',*,*,#110,.T.);
#110 = EDGE_CURVE('',#103,#111,#113,.T.);
#111 = VERTEX_POINT('',#112);
#112 = CARTESIAN_POINT('',(19.,-23.,13.6));
#113 = CIRCLE('',#114,3.);
#114 = AXIS2_PLACEMENT_3D('',#115,#116,#117);
#115 = CARTESIAN_POINT('',(16.,-23.,13.6));
#116 = DIRECTION('',(0.,0.,1.));
#117 = DIRECTION('',(-3.552713678801E-16,-1.,0.));
#118 = ORIENTED_EDGE('',*,*,#119,.T.);
#119 = EDGE_CURVE('',#111,#120,#122,.T.);
#120 = VERTEX_POINT('',#121);
#121 = CARTESIAN_POINT('',(19.,23.,13.6));
#122 = LINE('',#123,#124);
#123 = CARTESIAN_POINT('',(19.,-23.,13.6));
#124 = VECTOR('',#125,1.);
#125 = DIRECTION('',(-0.,1.,0.));
#126 = ORIENTED_EDGE('',*,*,#127,.T.);
#127 = EDGE_CURVE('',#120,#128,#130,.T.);
#128 = VERTEX_POINT('',#129);
#129 = CARTESIAN_POINT('',(16.,26.,13.6));
#130 = CIRCLE('',#131,3.);
#131 = AXIS2_PLACEMENT_3D('',#132,#133,#134);
#132 = CARTESIAN_POINT('',(16.,23.,13.6));
#133 = DIRECTION('',(0.,0.,1.));
#134 = DIRECTION('',(1.,0.,-0.));
#135 = ORIENTED_EDGE('',*,*,#136,.T.);
#136 = EDGE_CURVE('',#128,#137,#139,.T.);
#137 = VERTEX_POINT('',#138);
#138 = CARTESIAN_POINT('',(-16.,26.,13.6));
#139 = LINE('',#140,#141);
#140 = CARTESIAN_POINT('',(16.,26.,13.6));
#141 = VECTOR('',#142,1.);
#142 = DIRECTION('',(-1.,-0.,0.));
#143 = ORIENTED_EDGE('',*,*,#144,.T.);
#144 = EDGE_CURVE('',#137,#145,#147,.T.);
#145 = VERTEX_POINT('',#146);
#146 = CARTESIAN_POINT('',(-19.,23.,13.6));
#147 = CIRCLE('',#148,3.);
#148 = AXIS2_PLACEMENT_3D('',#149,#150,#151);
#149 = CARTESIAN_POINT('',(-16.,23.,13.6));
#150 = DIRECTION('',(0.,0.,1.));
#151 = DIRECTION('',(0.,1.,-0.));
#152 = ORIENTED_EDGE('',*,*,#153,.T.);
#153 = EDGE_CURVE('',#145,#92,#154,.T.);
#154 = LINE('',#155,#156);
#155 = CARTESIAN_POINT('',(-19.,23.,13.6));
#156 = VECTOR('',#157,1.);
#157 = DIRECTION('',(0.,-1.,-0.));
#158 = PLANE('',#159);
#159 = AXIS2_PLACEMENT_3D('',#160,#161,#162);
#160 = CARTESIAN_POINT('',(0.,-1.215523145324E-15,13.6));
#161 = DIRECTION('',(0.,0.,1.));
#162 = DIRECTION('',(1.,0.,-0.));
#163 = ADVANCED_FACE('',(#164),#190,.F.);
#164 = FACE_BOUND('',#165,.T.);
#165 = EDGE_LOOP('',(#166,#174,#175,#183));
#166 = ORIENTED_EDGE('',*,*,#167,.F.);
#167 = EDGE_CURVE('',#22,#168,#170,.T.);
#168 = VERTEX_POINT('',#169);
#169 = CARTESIAN_POINT('',(-13.6,-18.5,13.1));
#170 = LINE('',#171,#172);
#171 = CARTESIAN_POINT('',(-13.6,-18.5,13.1));
#172 = VECTOR('',#173,1.);
#173 = DIRECTION('',(0.707106781187,0.,-0.707106781187));
#174 = ORIENTED_EDGE('',*,*,#21,.T.);
#175 = ORIENTED_EDGE('',*,*,#176,.T.);
#176 = EDGE_CURVE('',#24,#177,#179,.T.);
#177 = VERTEX_POINT('',#178);
#178 = CARTESIAN_POINT('',(-11.,-21.1,13.1));
#179 = LINE('',#180,#181);
#180 = CARTESIAN_POINT('',(-11.,-21.1,13.1));
#181 = VECTOR('',#182,1.);
#182 = DIRECTION('',(4.329780281177E-17,0.707106781187,-0.707106781187)
  );
#183 = ORIENTED_EDGE('',*,*,#184,.F.);
#184 = EDGE_CURVE('',#168,#177,#185,.T.);
#185 = CIRCLE('',#186,2.6);
#186 = AXIS2_PLACEMENT_3D('',#187,#188,#189);
#187 = CARTESIAN_POINT('',(-11.,-18.5,13.1));
#188 = DIRECTION('',(0.,0.,1.));
#189 = DIRECTION('',(-1.,0.,0.));
#190 = CONICAL_SURFACE('',#191,2.6,0.785398163397);
#191 = AXIS2_PLACEMENT_3D('',#192,#193,#194);
#192 = CARTESIAN_POINT('',(-11.,-18.5,13.1));
#193 = DIRECTION('',(0.,0.,1.));
#194 = DIRECTION('',(-1.,0.,0.));
#195 = ADVANCED_FACE('',(#196),#214,.T.);
#196 = FACE_BOUND('',#197,.T.);
#197 = EDGE_LOOP('',(#198,#206,#207,#208));
#198 = ORIENTED_EDGE('',*,*,#199,.F.);
#199 = EDGE_CURVE('',#33,#200,#202,.T.);
#200 = VERTEX_POINT('',#201);
#201 = CARTESIAN_POINT('',(-13.6,18.5,13.1));
#202 = LINE('',#203,#204);
#203 = CARTESIAN_POINT('',(-13.6,18.5,13.1));
#204 = VECTOR('',#205,1.);
#205 = DIRECTION('',(0.707106781187,-4.329780281177E-17,-0.707106781187)
  );
#206 = ORIENTED_EDGE('',*,*,#32,.T.);
#207 = ORIENTED_EDGE('',*,*,#167,.T.);
#208 = ORIENTED_EDGE('',*,*,#209,.F.);
#209 = EDGE_CURVE('',#200,#168,#210,.T.);
#210 = LINE('',#211,#212);
#211 = CARTESIAN_POINT('',(-13.6,18.5,13.1));
#212 = VECTOR('',#213,1.);
#213 = DIRECTION('',(0.,-1.,-0.));
#214 = PLANE('',#215);
#215 = AXIS2_PLACEMENT_3D('',#216,#217,#218);
#216 = CARTESIAN_POINT('',(-13.85,18.5,13.35));
#217 = DIRECTION('',(0.707106781187,0.,0.707106781187));
#218 = DIRECTION('',(0.,-1.,0.));
#219 = ADVANCED_FACE('',(#220),#238,.T.);
#220 = FACE_BOUND('',#221,.T.);
#221 = EDGE_LOOP('',(#222,#223,#224,#232));
#222 = ORIENTED_EDGE('',*,*,#176,.F.);
#223 = ORIENTED_EDGE('',*,*,#83,.T.);
#224 = ORIENTED_EDGE('',*,*,#225,.T.);
#225 = EDGE_CURVE('',#75,#226,#228,.T.);
#226 = VERTEX_POINT('',#227);
#227 = CARTESIAN_POINT('',(11.,-21.1,13.1));
#228 = LINE('',#229,#230);
#229 = CARTESIAN_POINT('',(11.,-21.35,13.35));
#230 = VECTOR('',#231,1.);
#231 = DIRECTION('',(-0.,0.707106781187,-0.707106781187));
#232 = ORIENTED_EDGE('',*,*,#233,.F.);
#233 = EDGE_CURVE('',#177,#226,#234,.T.);
#234 = LINE('',#235,#236);
#235 = CARTESIAN_POINT('',(-11.,-21.1,13.1));
#236 = VECTOR('',#237,1.);
#237 = DIRECTION('',(1.,0.,-0.));
#238 = PLANE('',#239);
#239 = AXIS2_PLACEMENT_3D('',#240,#241,#242);
#240 = CARTESIAN_POINT('',(-11.,-21.35,13.35));
#241 = DIRECTION('',(0.,0.707106781187,0.707106781187));
#242 = DIRECTION('',(1.,0.,-0.));
#243 = ADVANCED_FACE('',(#244),#263,.F.);
#244 = FACE_BOUND('',#245,.T.);
#245 = EDGE_LOOP('',(#246,#254,#255,#256));
#246 = ORIENTED_EDGE('',*,*,#247,.F.);
#247 = EDGE_CURVE('',#41,#248,#250,.T.);
#248 = VERTEX_POINT('',#249);
#249 = CARTESIAN_POINT('',(-11.,21.1,13.1));
#250 = LINE('',#251,#252);
#251 = CARTESIAN_POINT('',(-11.,21.35,13.35));
#252 = VECTOR('',#253,1.);
#253 = DIRECTION('',(-0.,-0.707106781187,-0.707106781187));
#254 = ORIENTED_EDGE('',*,*,#40,.T.);
#255 = ORIENTED_EDGE('',*,*,#199,.T.);
#256 = ORIENTED_EDGE('',*,*,#257,.F.);
#257 = EDGE_CURVE('',#248,#200,#258,.T.);
#258 = CIRCLE('',#259,2.6);
#259 = AXIS2_PLACEMENT_3D('',#260,#261,#262);
#260 = CARTESIAN_POINT('',(-11.,18.5,13.1));
#261 = DIRECTION('',(0.,-0.,1.));
#262 = DIRECTION('',(0.,1.,0.));
#263 = CONICAL_SURFACE('',#264,2.6,0.785398163397);
#264 = AXIS2_PLACEMENT_3D('',#265,#266,#267);
#265 = CARTESIAN_POINT('',(-11.,18.5,13.1));
#266 = DIRECTION('',(0.,0.,1.));
#267 = DIRECTION('',(0.,1.,0.));
#268 = ADVANCED_FACE('',(#269),#288,.F.);
#269 = FACE_BOUND('',#270,.T.);
#270 = EDGE_LOOP('',(#271,#272,#273,#281));
#271 = ORIENTED_EDGE('',*,*,#225,.F.);
#272 = ORIENTED_EDGE('',*,*,#74,.T.);
#273 = ORIENTED_EDGE('',*,*,#274,.T.);
#274 = EDGE_CURVE('',#67,#275,#277,.T.);
#275 = VERTEX_POINT('',#276);
#276 = CARTESIAN_POINT('',(13.6,-18.5,13.1));
#277 = LINE('',#278,#279);
#278 = CARTESIAN_POINT('',(13.6,-18.5,13.1));
#279 = VECTOR('',#280,1.);
#280 = DIRECTION('',(-0.707106781187,4.329780281177E-17,-0.707106781187)
  );
#281 = ORIENTED_EDGE('',*,*,#282,.F.);
#282 = EDGE_CURVE('',#226,#275,#283,.T.);
#283 = CIRCLE('',#284,2.6);
#284 = AXIS2_PLACEMENT_3D('',#285,#286,#287);
#285 = CARTESIAN_POINT('',(11.,-18.5,13.1));
#286 = DIRECTION('',(0.,0.,1.));
#287 = DIRECTION('',(0.,-1.,0.));
#288 = CONICAL_SURFACE('',#289,2.6,0.785398163397);
#289 = AXIS2_PLACEMENT_3D('',#290,#291,#292);
#290 = CARTESIAN_POINT('',(11.,-18.5,13.1));
#291 = DIRECTION('',(0.,0.,1.));
#292 = DIRECTION('',(0.,-1.,0.));
#293 = ADVANCED_FACE('',(#294),#312,.F.);
#294 = FACE_BOUND('',#295,.T.);
#295 = EDGE_LOOP('',(#296,#304,#305,#306));
#296 = ORIENTED_EDGE('',*,*,#297,.F.);
#297 = EDGE_CURVE('',#50,#298,#300,.T.);
#298 = VERTEX_POINT('',#299);
#299 = CARTESIAN_POINT('',(11.,21.1,13.1));
#300 = LINE('',#301,#302);
#301 = CARTESIAN_POINT('',(11.,21.1,13.1));
#302 = VECTOR('',#303,1.);
#303 = DIRECTION('',(-4.329780281177E-17,-0.707106781187,-0.707106781187
    ));
#304 = ORIENTED_EDGE('',*,*,#49,.T.);
#305 = ORIENTED_EDGE('',*,*,#247,.T.);
#306 = ORIENTED_EDGE('',*,*,#307,.F.);
#307 = EDGE_CURVE('',#298,#248,#308,.T.);
#308 = LINE('',#309,#310);
#309 = CARTESIAN_POINT('',(11.,21.1,13.1));
#310 = VECTOR('',#311,1.);
#311 = DIRECTION('',(-1.,-0.,0.));
#312 = PLANE('',#313);
#313 = AXIS2_PLACEMENT_3D('',#314,#315,#316);
#314 = CARTESIAN_POINT('',(11.,21.35,13.35));
#315 = DIRECTION('',(0.,0.707106781187,-0.707106781187));
#316 = DIRECTION('',(1.,-0.,0.));
#317 = ADVANCED_FACE('',(#318),#336,.F.);
#318 = FACE_BOUND('',#319,.T.);
#319 = EDGE_LOOP('',(#320,#321,#322,#330));
#320 = ORIENTED_EDGE('',*,*,#274,.F.);
#321 = ORIENTED_EDGE('',*,*,#66,.T.);
#322 = ORIENTED_EDGE('',*,*,#323,.T.);
#323 = EDGE_CURVE('',#58,#324,#326,.T.);
#324 = VERTEX_POINT('',#325);
#325 = CARTESIAN_POINT('',(13.6,18.5,13.1));
#326 = LINE('',#327,#328);
#327 = CARTESIAN_POINT('',(13.85,18.5,13.35));
#328 = VECTOR('',#329,1.);
#329 = DIRECTION('',(-0.707106781187,0.,-0.707106781187));
#330 = ORIENTED_EDGE('',*,*,#331,.F.);
#331 = EDGE_CURVE('',#275,#324,#332,.T.);
#332 = LINE('',#333,#334);
#333 = CARTESIAN_POINT('',(13.6,-18.5,13.1));
#334 = VECTOR('',#335,1.);
#335 = DIRECTION('',(-0.,1.,0.));
#336 = PLANE('',#337);
#337 = AXIS2_PLACEMENT_3D('',#338,#339,#340);
#338 = CARTESIAN_POINT('',(13.85,-18.5,13.35));
#339 = DIRECTION('',(0.707106781187,0.,-0.707106781187));
#340 = DIRECTION('',(-0.,-1.,-0.));
#341 = ADVANCED_FACE('',(#342),#354,.F.);
#342 = FACE_BOUND('',#343,.T.);
#343 = EDGE_LOOP('',(#344,#345,#346,#347));
#344 = ORIENTED_EDGE('',*,*,#323,.F.);
#345 = ORIENTED_EDGE('',*,*,#57,.T.);
#346 = ORIENTED_EDGE('',*,*,#297,.T.);
#347 = ORIENTED_EDGE('',*,*,#348,.F.);
#348 = EDGE_CURVE('',#324,#298,#349,.T.);
#349 = CIRCLE('',#350,2.6);
#350 = AXIS2_PLACEMENT_3D('',#351,#352,#353);
#351 = CARTESIAN_POINT('',(11.,18.5,13.1));
#352 = DIRECTION('',(0.,0.,1.));
#353 = DIRECTION('',(1.,0.,-0.));
#354 = CONICAL_SURFACE('',#355,2.6,0.785398163397);
#355 = AXIS2_PLACEMENT_3D('',#356,#357,#358);
#356 = CARTESIAN_POINT('',(11.,18.5,13.1));
#357 = DIRECTION('',(0.,0.,1.));
#358 = DIRECTION('',(1.,0.,-0.));
#359 = ADVANCED_FACE('',(#360),#386,.T.);
#360 = FACE_BOUND('',#361,.T.);
#361 = EDGE_LOOP('',(#362,#370,#379,#385));
#362 = ORIENTED_EDGE('',*,*,#363,.F.);
#363 = EDGE_CURVE('',#364,#92,#366,.T.);
#364 = VERTEX_POINT('',#365);
#365 = CARTESIAN_POINT('',(-21.,-23.,11.6));
#366 = LINE('',#367,#368);
#367 = CARTESIAN_POINT('',(-21.,-23.,11.6));
#368 = VECTOR('',#369,1.);
#369 = DIRECTION('',(0.707106781187,0.,0.707106781187));
#370 = ORIENTED_EDGE('',*,*,#371,.T.);
#371 = EDGE_CURVE('',#364,#372,#374,.T.);
#372 = VERTEX_POINT('',#373);
#373 = CARTESIAN_POINT('',(-16.,-28.,11.6));
#374 = CIRCLE('',#375,5.);
#375 = AXIS2_PLACEMENT_3D('',#376,#377,#378);
#376 = CARTESIAN_POINT('',(-16.,-23.,11.6));
#377 = DIRECTION('',(0.,0.,1.));
#378 = DIRECTION('',(-1.,0.,0.));
#379 = ORIENTED_EDGE('',*,*,#380,.T.);
#380 = EDGE_CURVE('',#372,#94,#381,.T.);
#381 = LINE('',#382,#383);
#382 = CARTESIAN_POINT('',(-16.,-28.,11.6));
#383 = VECTOR('',#384,1.);
#384 = DIRECTION('',(4.329780281177E-17,0.707106781187,0.707106781187));
#385 = ORIENTED_EDGE('',*,*,#91,.F.);
#386 = CONICAL_SURFACE('',#387,5.,0.785398163397);
#387 = AXIS2_PLACEMENT_3D('',#388,#389,#390);
#388 = CARTESIAN_POINT('',(-16.,-23.,11.6));
#389 = DIRECTION('',(-0.,-0.,-1.));
#390 = DIRECTION('',(-1.,0.,0.));
#391 = ADVANCED_FACE('',(#392),#410,.F.);
#392 = FACE_BOUND('',#393,.T.);
#393 = EDGE_LOOP('',(#394,#402,#408,#409));
#394 = ORIENTED_EDGE('',*,*,#395,.F.);
#395 = EDGE_CURVE('',#396,#145,#398,.T.);
#396 = VERTEX_POINT('',#397);
#397 = CARTESIAN_POINT('',(-21.,23.,11.6));
#398 = LINE('',#399,#400);
#399 = CARTESIAN_POINT('',(-21.,23.,11.6));
#400 = VECTOR('',#401,1.);
#401 = DIRECTION('',(0.707106781187,-4.329780281177E-17,0.707106781187)
  );
#402 = ORIENTED_EDGE('',*,*,#403,.T.);
#403 = EDGE_CURVE('',#396,#364,#404,.T.);
#404 = LINE('',#405,#406);
#405 = CARTESIAN_POINT('',(-21.,23.,11.6));
#406 = VECTOR('',#407,1.);
#407 = DIRECTION('',(0.,-1.,-0.));
#408 = ORIENTED_EDGE('',*,*,#363,.T.);
#409 = ORIENTED_EDGE('',*,*,#153,.F.);
#410 = PLANE('',#411);
#411 = AXIS2_PLACEMENT_3D('',#412,#413,#414);
#412 = CARTESIAN_POINT('',(-20.,23.,12.6));
#413 = DIRECTION('',(0.707106781187,0.,-0.707106781187));
#414 = DIRECTION('',(-0.,1.,-0.));
#415 = ADVANCED_FACE('',(#416),#434,.F.);
#416 = FACE_BOUND('',#417,.T.);
#417 = EDGE_LOOP('',(#418,#419,#427,#433));
#418 = ORIENTED_EDGE('',*,*,#380,.F.);
#419 = ORIENTED_EDGE('',*,*,#420,.T.);
#420 = EDGE_CURVE('',#372,#421,#423,.T.);
#421 = VERTEX_POINT('',#422);
#422 = CARTESIAN_POINT('',(16.,-28.,11.6));
#423 = LINE('',#424,#425);
#424 = CARTESIAN_POINT('',(-16.,-28.,11.6));
#425 = VECTOR('',#426,1.);
#426 = DIRECTION('',(1.,0.,-0.));
#427 = ORIENTED_EDGE('',*,*,#428,.T.);
#428 = EDGE_CURVE('',#421,#103,#429,.T.);
#429 = LINE('',#430,#431);
#430 = CARTESIAN_POINT('',(16.,-27.,12.6));
#431 = VECTOR('',#432,1.);
#432 = DIRECTION('',(-0.,0.707106781187,0.707106781187));
#433 = ORIENTED_EDGE('',*,*,#102,.F.);
#434 = PLANE('',#435);
#435 = AXIS2_PLACEMENT_3D('',#436,#437,#438);
#436 = CARTESIAN_POINT('',(-16.,-27.,12.6));
#437 = DIRECTION('',(0.,0.707106781187,-0.707106781187));
#438 = DIRECTION('',(-1.,0.,-0.));
#439 = ADVANCED_FACE('',(#440),#459,.T.);
#440 = FACE_BOUND('',#441,.T.);
#441 = EDGE_LOOP('',(#442,#450,#457,#458));
#442 = ORIENTED_EDGE('',*,*,#443,.F.);
#443 = EDGE_CURVE('',#444,#137,#446,.T.);
#444 = VERTEX_POINT('',#445);
#445 = CARTESIAN_POINT('',(-16.,28.,11.6));
#446 = LINE('',#447,#448);
#447 = CARTESIAN_POINT('',(-16.,27.,12.6));
#448 = VECTOR('',#449,1.);
#449 = DIRECTION('',(0.,-0.707106781187,0.707106781187));
#450 = ORIENTED_EDGE('',*,*,#451,.T.);
#451 = EDGE_CURVE('',#444,#396,#452,.T.);
#452 = CIRCLE('',#453,5.);
#453 = AXIS2_PLACEMENT_3D('',#454,#455,#456);
#454 = CARTESIAN_POINT('',(-16.,23.,11.6));
#455 = DIRECTION('',(0.,0.,1.));
#456 = DIRECTION('',(0.,1.,-0.));
#457 = ORIENTED_EDGE('',*,*,#395,.T.);
#458 = ORIENTED_EDGE('',*,*,#144,.F.);
#459 = CONICAL_SURFACE('',#460,5.,0.785398163397);
#460 = AXIS2_PLACEMENT_3D('',#461,#462,#463);
#461 = CARTESIAN_POINT('',(-16.,23.,11.6));
#462 = DIRECTION('',(-0.,-0.,-1.));
#463 = DIRECTION('',(0.,1.,-0.));
#464 = ADVANCED_FACE('',(#465),#484,.T.);
#465 = FACE_BOUND('',#466,.T.);
#466 = EDGE_LOOP('',(#467,#468,#477,#483));
#467 = ORIENTED_EDGE('',*,*,#428,.F.);
#468 = ORIENTED_EDGE('',*,*,#469,.T.);
#469 = EDGE_CURVE('',#421,#470,#472,.T.);
#470 = VERTEX_POINT('',#471);
#471 = CARTESIAN_POINT('',(21.,-23.,11.6));
#472 = CIRCLE('',#473,5.);
#473 = AXIS2_PLACEMENT_3D('',#474,#475,#476);
#474 = CARTESIAN_POINT('',(16.,-23.,11.6));
#475 = DIRECTION('',(0.,0.,1.));
#476 = DIRECTION('',(-3.552713678801E-16,-1.,0.));
#477 = ORIENTED_EDGE('',*,*,#478,.T.);
#478 = EDGE_CURVE('',#470,#111,#479,.T.);
#479 = LINE('',#480,#481);
#480 = CARTESIAN_POINT('',(21.,-23.,11.6));
#481 = VECTOR('',#482,1.);
#482 = DIRECTION('',(-0.707106781187,2.945125962012E-16,0.707106781187)
  );
#483 = ORIENTED_EDGE('',*,*,#110,.F.);
#484 = CONICAL_SURFACE('',#485,5.,0.785398163397);
#485 = AXIS2_PLACEMENT_3D('',#486,#487,#488);
#486 = CARTESIAN_POINT('',(16.,-23.,11.6));
#487 = DIRECTION('',(-0.,-0.,-1.));
#488 = DIRECTION('',(-3.552713678801E-16,-1.,0.));
#489 = ADVANCED_FACE('',(#490),#508,.T.);
#490 = FACE_BOUND('',#491,.T.);
#491 = EDGE_LOOP('',(#492,#500,#506,#507));
#492 = ORIENTED_EDGE('',*,*,#493,.F.);
#493 = EDGE_CURVE('',#494,#128,#496,.T.);
#494 = VERTEX_POINT('',#495);
#495 = CARTESIAN_POINT('',(16.,28.,11.6));
#496 = LINE('',#497,#498);
#497 = CARTESIAN_POINT('',(16.,28.,11.6));
#498 = VECTOR('',#499,1.);
#499 = DIRECTION('',(-4.329780281177E-17,-0.707106781187,0.707106781187)
  );
#500 = ORIENTED_EDGE('',*,*,#501,.T.);
#501 = EDGE_CURVE('',#494,#444,#502,.T.);
#502 = LINE('',#503,#504);
#503 = CARTESIAN_POINT('',(16.,28.,11.6));
#504 = VECTOR('',#505,1.);
#505 = DIRECTION('',(-1.,-0.,0.));
#506 = ORIENTED_EDGE('',*,*,#443,.T.);
#507 = ORIENTED_EDGE('',*,*,#136,.F.);
#508 = PLANE('',#509);
#509 = AXIS2_PLACEMENT_3D('',#510,#511,#512);
#510 = CARTESIAN_POINT('',(16.,27.,12.6));
#511 = DIRECTION('',(0.,0.707106781187,0.707106781187));
#512 = DIRECTION('',(-1.,0.,0.));
#513 = ADVANCED_FACE('',(#514),#532,.T.);
#514 = FACE_BOUND('',#515,.T.);
#515 = EDGE_LOOP('',(#516,#517,#525,#531));
#516 = ORIENTED_EDGE('',*,*,#478,.F.);
#517 = ORIENTED_EDGE('',*,*,#518,.T.);
#518 = EDGE_CURVE('',#470,#519,#521,.T.);
#519 = VERTEX_POINT('',#520);
#520 = CARTESIAN_POINT('',(21.,23.,11.6));
#521 = LINE('',#522,#523);
#522 = CARTESIAN_POINT('',(21.,-23.,11.6));
#523 = VECTOR('',#524,1.);
#524 = DIRECTION('',(-0.,1.,0.));
#525 = ORIENTED_EDGE('',*,*,#526,.T.);
#526 = EDGE_CURVE('',#519,#120,#527,.T.);
#527 = LINE('',#528,#529);
#528 = CARTESIAN_POINT('',(20.,23.,12.6));
#529 = VECTOR('',#530,1.);
#530 = DIRECTION('',(-0.707106781187,-0.,0.707106781187));
#531 = ORIENTED_EDGE('',*,*,#119,.F.);
#532 = PLANE('',#533);
#533 = AXIS2_PLACEMENT_3D('',#534,#535,#536);
#534 = CARTESIAN_POINT('',(20.,-23.,12.6));
#535 = DIRECTION('',(0.707106781187,0.,0.707106781187));
#536 = DIRECTION('',(-0.,1.,0.));
#537 = ADVANCED_FACE('',(#538),#550,.T.);
#538 = FACE_BOUND('',#539,.T.);
#539 = EDGE_LOOP('',(#540,#541,#548,#549));
#540 = ORIENTED_EDGE('',*,*,#526,.F.);
#541 = ORIENTED_EDGE('',*,*,#542,.T.);
#542 = EDGE_CURVE('',#519,#494,#543,.T.);
#543 = CIRCLE('',#544,5.);
#544 = AXIS2_PLACEMENT_3D('',#545,#546,#547);
#545 = CARTESIAN_POINT('',(16.,23.,11.6));
#546 = DIRECTION('',(0.,0.,1.));
#547 = DIRECTION('',(1.,0.,-0.));
#548 = ORIENTED_EDGE('',*,*,#493,.T.);
#549 = ORIENTED_EDGE('',*,*,#127,.F.);
#550 = CONICAL_SURFACE('',#551,5.,0.785398163397);
#551 = AXIS2_PLACEMENT_3D('',#552,#553,#554);
#552 = CARTESIAN_POINT('',(16.,23.,11.6));
#553 = DIRECTION('',(-0.,-0.,-1.));
#554 = DIRECTION('',(1.,0.,0.));
#555 = ADVANCED_FACE('',(#556),#582,.F.);
#556 = FACE_BOUND('',#557,.F.);
#557 = EDGE_LOOP('',(#558,#566,#567,#575));
#558 = ORIENTED_EDGE('',*,*,#559,.T.);
#559 = EDGE_CURVE('',#560,#177,#562,.T.);
#560 = VERTEX_POINT('',#561);
#561 = CARTESIAN_POINT('',(-11.,-21.1,12.4));
#562 = LINE('',#563,#564);
#563 = CARTESIAN_POINT('',(-11.,-21.1,12.3));
#564 = VECTOR('',#565,1.);
#565 = DIRECTION('',(0.,0.,1.));
#566 = ORIENTED_EDGE('',*,*,#184,.F.);
#567 = ORIENTED_EDGE('',*,*,#568,.F.);
#568 = EDGE_CURVE('',#569,#168,#571,.T.);
#569 = VERTEX_POINT('',#570);
#570 = CARTESIAN_POINT('',(-13.6,-18.5,12.4));
#571 = LINE('',#572,#573);
#572 = CARTESIAN_POINT('',(-13.6,-18.5,12.3));
#573 = VECTOR('',#574,1.);
#574 = DIRECTION('',(0.,0.,1.));
#575 = ORIENTED_EDGE('',*,*,#576,.T.);
#576 = EDGE_CURVE('',#569,#560,#577,.T.);
#577 = CIRCLE('',#578,2.6);
#578 = AXIS2_PLACEMENT_3D('',#579,#580,#581);
#579 = CARTESIAN_POINT('',(-11.,-18.5,12.4));
#580 = DIRECTION('',(0.,0.,1.));
#581 = DIRECTION('',(1.,0.,-0.));
#582 = CYLINDRICAL_SURFACE('',#583,2.6);
#583 = AXIS2_PLACEMENT_3D('',#584,#585,#586);
#584 = CARTESIAN_POINT('',(-11.,-18.5,12.3));
#585 = DIRECTION('',(0.,0.,1.));
#586 = DIRECTION('',(1.,0.,-0.));
#587 = ADVANCED_FACE('',(#588),#606,.T.);
#588 = FACE_BOUND('',#589,.T.);
#589 = EDGE_LOOP('',(#590,#591,#599,#605));
#590 = ORIENTED_EDGE('',*,*,#568,.F.);
#591 = ORIENTED_EDGE('',*,*,#592,.T.);
#592 = EDGE_CURVE('',#569,#593,#595,.T.);
#593 = VERTEX_POINT('',#594);
#594 = CARTESIAN_POINT('',(-13.6,18.5,12.4));
#595 = LINE('',#596,#597);
#596 = CARTESIAN_POINT('',(-13.6,-9.25,12.4));
#597 = VECTOR('',#598,1.);
#598 = DIRECTION('',(-0.,1.,0.));
#599 = ORIENTED_EDGE('',*,*,#600,.T.);
#600 = EDGE_CURVE('',#593,#200,#601,.T.);
#601 = LINE('',#602,#603);
#602 = CARTESIAN_POINT('',(-13.6,18.5,12.3));
#603 = VECTOR('',#604,1.);
#604 = DIRECTION('',(0.,0.,1.));
#605 = ORIENTED_EDGE('',*,*,#209,.T.);
#606 = PLANE('',#607);
#607 = AXIS2_PLACEMENT_3D('',#608,#609,#610);
#608 = CARTESIAN_POINT('',(-13.6,-18.5,12.3));
#609 = DIRECTION('',(1.,0.,-0.));
#610 = DIRECTION('',(0.,0.,1.));
#611 = ADVANCED_FACE('',(#612),#630,.T.);
#612 = FACE_BOUND('',#613,.T.);
#613 = EDGE_LOOP('',(#614,#622,#628,#629));
#614 = ORIENTED_EDGE('',*,*,#615,.F.);
#615 = EDGE_CURVE('',#616,#226,#618,.T.);
#616 = VERTEX_POINT('',#617);
#617 = CARTESIAN_POINT('',(11.,-21.1,12.4));
#618 = LINE('',#619,#620);
#619 = CARTESIAN_POINT('',(11.,-21.1,12.3));
#620 = VECTOR('',#621,1.);
#621 = DIRECTION('',(0.,0.,1.));
#622 = ORIENTED_EDGE('',*,*,#623,.T.);
#623 = EDGE_CURVE('',#616,#560,#624,.T.);
#624 = LINE('',#625,#626);
#625 = CARTESIAN_POINT('',(-5.5,-21.1,12.4));
#626 = VECTOR('',#627,1.);
#627 = DIRECTION('',(-1.,-0.,0.));
#628 = ORIENTED_EDGE('',*,*,#559,.T.);
#629 = ORIENTED_EDGE('',*,*,#233,.T.);
#630 = PLANE('',#631);
#631 = AXIS2_PLACEMENT_3D('',#632,#633,#634);
#632 = CARTESIAN_POINT('',(-11.,-21.1,12.3));
#633 = DIRECTION('',(-0.,1.,0.));
#634 = DIRECTION('',(0.,0.,1.));
#635 = ADVANCED_FACE('',(#636),#655,.F.);
#636 = FACE_BOUND('',#637,.F.);
#637 = EDGE_LOOP('',(#638,#639,#640,#648));
#638 = ORIENTED_EDGE('',*,*,#600,.T.);
#639 = ORIENTED_EDGE('',*,*,#257,.F.);
#640 = ORIENTED_EDGE('',*,*,#641,.F.);
#641 = EDGE_CURVE('',#642,#248,#644,.T.);
#642 = VERTEX_POINT('',#643);
#643 = CARTESIAN_POINT('',(-11.,21.1,12.4));
#644 = LINE('',#645,#646);
#645 = CARTESIAN_POINT('',(-11.,21.1,12.3));
#646 = VECTOR('',#647,1.);
#647 = DIRECTION('',(0.,0.,1.));
#648 = ORIENTED_EDGE('',*,*,#649,.T.);
#649 = EDGE_CURVE('',#642,#593,#650,.T.);
#650 = CIRCLE('',#651,2.6);
#651 = AXIS2_PLACEMENT_3D('',#652,#653,#654);
#652 = CARTESIAN_POINT('',(-11.,18.5,12.4));
#653 = DIRECTION('',(0.,0.,1.));
#654 = DIRECTION('',(1.,0.,-0.));
#655 = CYLINDRICAL_SURFACE('',#656,2.6);
#656 = AXIS2_PLACEMENT_3D('',#657,#658,#659);
#657 = CARTESIAN_POINT('',(-11.,18.5,12.3));
#658 = DIRECTION('',(0.,0.,1.));
#659 = DIRECTION('',(1.,0.,-0.));
#660 = ADVANCED_FACE('',(#661),#680,.F.);
#661 = FACE_BOUND('',#662,.F.);
#662 = EDGE_LOOP('',(#663,#671,#672,#673));
#663 = ORIENTED_EDGE('',*,*,#664,.T.);
#664 = EDGE_CURVE('',#665,#275,#667,.T.);
#665 = VERTEX_POINT('',#666);
#666 = CARTESIAN_POINT('',(13.6,-18.5,12.4));
#667 = LINE('',#668,#669);
#668 = CARTESIAN_POINT('',(13.6,-18.5,12.3));
#669 = VECTOR('',#670,1.);
#670 = DIRECTION('',(0.,0.,1.));
#671 = ORIENTED_EDGE('',*,*,#282,.F.);
#672 = ORIENTED_EDGE('',*,*,#615,.F.);
#673 = ORIENTED_EDGE('',*,*,#674,.T.);
#674 = EDGE_CURVE('',#616,#665,#675,.T.);
#675 = CIRCLE('',#676,2.6);
#676 = AXIS2_PLACEMENT_3D('',#677,#678,#679);
#677 = CARTESIAN_POINT('',(11.,-18.5,12.4));
#678 = DIRECTION('',(0.,0.,1.));
#679 = DIRECTION('',(1.,0.,-0.));
#680 = CYLINDRICAL_SURFACE('',#681,2.6);
#681 = AXIS2_PLACEMENT_3D('',#682,#683,#684);
#682 = CARTESIAN_POINT('',(11.,-18.5,12.3));
#683 = DIRECTION('',(0.,0.,1.));
#684 = DIRECTION('',(1.,0.,-0.));
#685 = ADVANCED_FACE('',(#686),#704,.F.);
#686 = FACE_BOUND('',#687,.F.);
#687 = EDGE_LOOP('',(#688,#696,#702,#703));
#688 = ORIENTED_EDGE('',*,*,#689,.F.);
#689 = EDGE_CURVE('',#690,#298,#692,.T.);
#690 = VERTEX_POINT('',#691);
#691 = CARTESIAN_POINT('',(11.,21.1,12.4));
#692 = LINE('',#693,#694);
#693 = CARTESIAN_POINT('',(11.,21.1,12.3));
#694 = VECTOR('',#695,1.);
#695 = DIRECTION('',(0.,0.,1.));
#696 = ORIENTED_EDGE('',*,*,#697,.T.);
#697 = EDGE_CURVE('',#690,#642,#698,.T.);
#698 = LINE('',#699,#700);
#699 = CARTESIAN_POINT('',(-5.5,21.1,12.4));
#700 = VECTOR('',#701,1.);
#701 = DIRECTION('',(-1.,-0.,0.));
#702 = ORIENTED_EDGE('',*,*,#641,.T.);
#703 = ORIENTED_EDGE('',*,*,#307,.F.);
#704 = PLANE('',#705);
#705 = AXIS2_PLACEMENT_3D('',#706,#707,#708);
#706 = CARTESIAN_POINT('',(-11.,21.1,12.3));
#707 = DIRECTION('',(-0.,1.,0.));
#708 = DIRECTION('',(0.,0.,1.));
#709 = ADVANCED_FACE('',(#710),#728,.F.);
#710 = FACE_BOUND('',#711,.F.);
#711 = EDGE_LOOP('',(#712,#713,#721,#727));
#712 = ORIENTED_EDGE('',*,*,#664,.F.);
#713 = ORIENTED_EDGE('',*,*,#714,.T.);
#714 = EDGE_CURVE('',#665,#715,#717,.T.);
#715 = VERTEX_POINT('',#716);
#716 = CARTESIAN_POINT('',(13.6,18.5,12.4));
#717 = LINE('',#718,#719);
#718 = CARTESIAN_POINT('',(13.6,-9.25,12.4));
#719 = VECTOR('',#720,1.);
#720 = DIRECTION('',(-0.,1.,0.));
#721 = ORIENTED_EDGE('',*,*,#722,.T.);
#722 = EDGE_CURVE('',#715,#324,#723,.T.);
#723 = LINE('',#724,#725);
#724 = CARTESIAN_POINT('',(13.6,18.5,12.3));
#725 = VECTOR('',#726,1.);
#726 = DIRECTION('',(0.,0.,1.));
#727 = ORIENTED_EDGE('',*,*,#331,.F.);
#728 = PLANE('',#729);
#729 = AXIS2_PLACEMENT_3D('',#730,#731,#732);
#730 = CARTESIAN_POINT('',(13.6,-18.5,12.3));
#731 = DIRECTION('',(1.,0.,-0.));
#732 = DIRECTION('',(0.,0.,1.));
#733 = ADVANCED_FACE('',(#734),#746,.F.);
#734 = FACE_BOUND('',#735,.F.);
#735 = EDGE_LOOP('',(#736,#737,#738,#739));
#736 = ORIENTED_EDGE('',*,*,#689,.T.);
#737 = ORIENTED_EDGE('',*,*,#348,.F.);
#738 = ORIENTED_EDGE('',*,*,#722,.F.);
#739 = ORIENTED_EDGE('',*,*,#740,.T.);
#740 = EDGE_CURVE('',#715,#690,#741,.T.);
#741 = CIRCLE('',#742,2.6);
#742 = AXIS2_PLACEMENT_3D('',#743,#744,#745);
#743 = CARTESIAN_POINT('',(11.,18.5,12.4));
#744 = DIRECTION('',(0.,0.,1.));
#745 = DIRECTION('',(1.,0.,-0.));
#746 = CYLINDRICAL_SURFACE('',#747,2.6);
#747 = AXIS2_PLACEMENT_3D('',#748,#749,#750);
#748 = CARTESIAN_POINT('',(11.,18.5,12.3));
#749 = DIRECTION('',(0.,0.,1.));
#750 = DIRECTION('',(1.,0.,-0.));
#751 = ADVANCED_FACE('',(#752),#778,.T.);
#752 = FACE_BOUND('',#753,.T.);
#753 = EDGE_LOOP('',(#754,#762,#763,#771));
#754 = ORIENTED_EDGE('',*,*,#755,.T.);
#755 = EDGE_CURVE('',#756,#372,#758,.T.);
#756 = VERTEX_POINT('',#757);
#757 = CARTESIAN_POINT('',(-16.,-28.,8.));
#758 = LINE('',#759,#760);
#759 = CARTESIAN_POINT('',(-16.,-28.,8.));
#760 = VECTOR('',#761,1.);
#761 = DIRECTION('',(0.,0.,1.));
#762 = ORIENTED_EDGE('',*,*,#371,.F.);
#763 = ORIENTED_EDGE('',*,*,#764,.F.);
#764 = EDGE_CURVE('',#765,#364,#767,.T.);
#765 = VERTEX_POINT('',#766);
#766 = CARTESIAN_POINT('',(-21.,-23.,8.));
#767 = LINE('',#768,#769);
#768 = CARTESIAN_POINT('',(-21.,-23.,8.));
#769 = VECTOR('',#770,1.);
#770 = DIRECTION('',(0.,0.,1.));
#771 = ORIENTED_EDGE('',*,*,#772,.T.);
#772 = EDGE_CURVE('',#765,#756,#773,.T.);
#773 = CIRCLE('',#774,5.);
#774 = AXIS2_PLACEMENT_3D('',#775,#776,#777);
#775 = CARTESIAN_POINT('',(-16.,-23.,8.));
#776 = DIRECTION('',(0.,0.,1.));
#777 = DIRECTION('',(1.,0.,-0.));
#778 = CYLINDRICAL_SURFACE('',#779,5.);
#779 = AXIS2_PLACEMENT_3D('',#780,#781,#782);
#780 = CARTESIAN_POINT('',(-16.,-23.,8.));
#781 = DIRECTION('',(0.,0.,1.));
#782 = DIRECTION('',(1.,0.,-0.));
#783 = ADVANCED_FACE('',(#784),#802,.F.);
#784 = FACE_BOUND('',#785,.F.);
#785 = EDGE_LOOP('',(#786,#787,#795,#801));
#786 = ORIENTED_EDGE('',*,*,#764,.F.);
#787 = ORIENTED_EDGE('',*,*,#788,.T.);
#788 = EDGE_CURVE('',#765,#789,#791,.T.);
#789 = VERTEX_POINT('',#790);
#790 = CARTESIAN_POINT('',(-21.,23.,8.));
#791 = LINE('',#792,#793);
#792 = CARTESIAN_POINT('',(-21.,-23.,8.));
#793 = VECTOR('',#794,1.);
#794 = DIRECTION('',(-0.,1.,0.));
#795 = ORIENTED_EDGE('',*,*,#796,.T.);
#796 = EDGE_CURVE('',#789,#396,#797,.T.);
#797 = LINE('',#798,#799);
#798 = CARTESIAN_POINT('',(-21.,23.,8.));
#799 = VECTOR('',#800,1.);
#800 = DIRECTION('',(0.,0.,1.));
#801 = ORIENTED_EDGE('',*,*,#403,.T.);
#802 = PLANE('',#803);
#803 = AXIS2_PLACEMENT_3D('',#804,#805,#806);
#804 = CARTESIAN_POINT('',(-21.,-23.,8.));
#805 = DIRECTION('',(1.,0.,-0.));
#806 = DIRECTION('',(0.,0.,1.));
#807 = ADVANCED_FACE('',(#808),#826,.F.);
#808 = FACE_BOUND('',#809,.F.);
#809 = EDGE_LOOP('',(#810,#818,#824,#825));
#810 = ORIENTED_EDGE('',*,*,#811,.F.);
#811 = EDGE_CURVE('',#812,#421,#814,.T.);
#812 = VERTEX_POINT('',#813);
#813 = CARTESIAN_POINT('',(16.,-28.,8.));
#814 = LINE('',#815,#816);
#815 = CARTESIAN_POINT('',(16.,-28.,8.));
#816 = VECTOR('',#817,1.);
#817 = DIRECTION('',(0.,0.,1.));
#818 = ORIENTED_EDGE('',*,*,#819,.F.);
#819 = EDGE_CURVE('',#756,#812,#820,.T.);
#820 = LINE('',#821,#822);
#821 = CARTESIAN_POINT('',(-16.,-28.,8.));
#822 = VECTOR('',#823,1.);
#823 = DIRECTION('',(1.,0.,-0.));
#824 = ORIENTED_EDGE('',*,*,#755,.T.);
#825 = ORIENTED_EDGE('',*,*,#420,.T.);
#826 = PLANE('',#827);
#827 = AXIS2_PLACEMENT_3D('',#828,#829,#830);
#828 = CARTESIAN_POINT('',(-16.,-28.,8.));
#829 = DIRECTION('',(-0.,1.,0.));
#830 = DIRECTION('',(0.,0.,1.));
#831 = ADVANCED_FACE('',(#832),#851,.T.);
#832 = FACE_BOUND('',#833,.T.);
#833 = EDGE_LOOP('',(#834,#835,#836,#844));
#834 = ORIENTED_EDGE('',*,*,#796,.T.);
#835 = ORIENTED_EDGE('',*,*,#451,.F.);
#836 = ORIENTED_EDGE('',*,*,#837,.F.);
#837 = EDGE_CURVE('',#838,#444,#840,.T.);
#838 = VERTEX_POINT('',#839);
#839 = CARTESIAN_POINT('',(-16.,28.,8.));
#840 = LINE('',#841,#842);
#841 = CARTESIAN_POINT('',(-16.,28.,8.));
#842 = VECTOR('',#843,1.);
#843 = DIRECTION('',(0.,0.,1.));
#844 = ORIENTED_EDGE('',*,*,#845,.T.);
#845 = EDGE_CURVE('',#838,#789,#846,.T.);
#846 = CIRCLE('',#847,5.);
#847 = AXIS2_PLACEMENT_3D('',#848,#849,#850);
#848 = CARTESIAN_POINT('',(-16.,23.,8.));
#849 = DIRECTION('',(0.,0.,1.));
#850 = DIRECTION('',(1.,0.,-0.));
#851 = CYLINDRICAL_SURFACE('',#852,5.);
#852 = AXIS2_PLACEMENT_3D('',#853,#854,#855);
#853 = CARTESIAN_POINT('',(-16.,23.,8.));
#854 = DIRECTION('',(0.,0.,1.));
#855 = DIRECTION('',(1.,0.,-0.));
#856 = ADVANCED_FACE('',(#857),#876,.T.);
#857 = FACE_BOUND('',#858,.T.);
#858 = EDGE_LOOP('',(#859,#867,#868,#869));
#859 = ORIENTED_EDGE('',*,*,#860,.T.);
#860 = EDGE_CURVE('',#861,#470,#863,.T.);
#861 = VERTEX_POINT('',#862);
#862 = CARTESIAN_POINT('',(21.,-23.,8.));
#863 = LINE('',#864,#865);
#864 = CARTESIAN_POINT('',(21.,-23.,8.));
#865 = VECTOR('',#866,1.);
#866 = DIRECTION('',(0.,0.,1.));
#867 = ORIENTED_EDGE('',*,*,#469,.F.);
#868 = ORIENTED_EDGE('',*,*,#811,.F.);
#869 = ORIENTED_EDGE('',*,*,#870,.T.);
#870 = EDGE_CURVE('',#812,#861,#871,.T.);
#871 = CIRCLE('',#872,5.);
#872 = AXIS2_PLACEMENT_3D('',#873,#874,#875);
#873 = CARTESIAN_POINT('',(16.,-23.,8.));
#874 = DIRECTION('',(0.,0.,1.));
#875 = DIRECTION('',(1.,0.,-0.));
#876 = CYLINDRICAL_SURFACE('',#877,5.);
#877 = AXIS2_PLACEMENT_3D('',#878,#879,#880);
#878 = CARTESIAN_POINT('',(16.,-23.,8.));
#879 = DIRECTION('',(0.,0.,1.));
#880 = DIRECTION('',(1.,0.,-0.));
#881 = ADVANCED_FACE('',(#882),#900,.T.);
#882 = FACE_BOUND('',#883,.T.);
#883 = EDGE_LOOP('',(#884,#892,#898,#899));
#884 = ORIENTED_EDGE('',*,*,#885,.F.);
#885 = EDGE_CURVE('',#886,#494,#888,.T.);
#886 = VERTEX_POINT('',#887);
#887 = CARTESIAN_POINT('',(16.,28.,8.));
#888 = LINE('',#889,#890);
#889 = CARTESIAN_POINT('',(16.,28.,8.));
#890 = VECTOR('',#891,1.);
#891 = DIRECTION('',(0.,0.,1.));
#892 = ORIENTED_EDGE('',*,*,#893,.F.);
#893 = EDGE_CURVE('',#838,#886,#894,.T.);
#894 = LINE('',#895,#896);
#895 = CARTESIAN_POINT('',(-16.,28.,8.));
#896 = VECTOR('',#897,1.);
#897 = DIRECTION('',(1.,0.,-0.));
#898 = ORIENTED_EDGE('',*,*,#837,.T.);
#899 = ORIENTED_EDGE('',*,*,#501,.F.);
#900 = PLANE('',#901);
#901 = AXIS2_PLACEMENT_3D('',#902,#903,#904);
#902 = CARTESIAN_POINT('',(-16.,28.,8.));
#903 = DIRECTION('',(-0.,1.,0.));
#904 = DIRECTION('',(0.,0.,1.));
#905 = ADVANCED_FACE('',(#906),#924,.T.);
#906 = FACE_BOUND('',#907,.T.);
#907 = EDGE_LOOP('',(#908,#909,#917,#923));
#908 = ORIENTED_EDGE('',*,*,#860,.F.);
#909 = ORIENTED_EDGE('',*,*,#910,.T.);
#910 = EDGE_CURVE('',#861,#911,#913,.T.);
#911 = VERTEX_POINT('',#912);
#912 = CARTESIAN_POINT('',(21.,23.,8.));
#913 = LINE('',#914,#915);
#914 = CARTESIAN_POINT('',(21.,-23.,8.));
#915 = VECTOR('',#916,1.);
#916 = DIRECTION('',(-0.,1.,0.));
#917 = ORIENTED_EDGE('',*,*,#918,.T.);
#918 = EDGE_CURVE('',#911,#519,#919,.T.);
#919 = LINE('',#920,#921);
#920 = CARTESIAN_POINT('',(21.,23.,8.));
#921 = VECTOR('',#922,1.);
#922 = DIRECTION('',(0.,0.,1.));
#923 = ORIENTED_EDGE('',*,*,#518,.F.);
#924 = PLANE('',#925);
#925 = AXIS2_PLACEMENT_3D('',#926,#927,#928);
#926 = CARTESIAN_POINT('',(21.,-23.,8.));
#927 = DIRECTION('',(1.,0.,-0.));
#928 = DIRECTION('',(0.,0.,1.));
#929 = ADVANCED_FACE('',(#930),#942,.T.);
#930 = FACE_BOUND('',#931,.T.);
#931 = EDGE_LOOP('',(#932,#933,#934,#935));
#932 = ORIENTED_EDGE('',*,*,#885,.T.);
#933 = ORIENTED_EDGE('',*,*,#542,.F.);
#934 = ORIENTED_EDGE('',*,*,#918,.F.);
#935 = ORIENTED_EDGE('',*,*,#936,.T.);
#936 = EDGE_CURVE('',#911,#886,#937,.T.);
#937 = CIRCLE('',#938,5.);
#938 = AXIS2_PLACEMENT_3D('',#939,#940,#941);
#939 = CARTESIAN_POINT('',(16.,23.,8.));
#940 = DIRECTION('',(0.,0.,1.));
#941 = DIRECTION('',(1.,0.,-0.));
#942 = CYLINDRICAL_SURFACE('',#943,5.);
#943 = AXIS2_PLACEMENT_3D('',#944,#945,#946);
#944 = CARTESIAN_POINT('',(16.,23.,8.));
#945 = DIRECTION('',(0.,0.,1.));
#946 = DIRECTION('',(1.,0.,-0.));
#947 = ADVANCED_FACE('',(#948,#1018),#1028,.F.);
#948 = FACE_BOUND('',#949,.F.);
#949 = EDGE_LOOP('',(#950,#961,#969,#978,#986,#995,#1003,#1012));
#950 = ORIENTED_EDGE('',*,*,#951,.T.);
#951 = EDGE_CURVE('',#952,#954,#956,.T.);
#952 = VERTEX_POINT('',#953);
#953 = CARTESIAN_POINT('',(-14.96,-19.,12.4));
#954 = VERTEX_POINT('',#955);
#955 = CARTESIAN_POINT('',(-11.46,-22.5,12.4));
#956 = CIRCLE('',#957,3.5);
#957 = AXIS2_PLACEMENT_3D('',#958,#959,#960);
#958 = CARTESIAN_POINT('',(-11.46,-19.,12.4));
#959 = DIRECTION('',(0.,0.,1.));
#960 = DIRECTION('',(1.,0.,-0.));
#961 = ORIENTED_EDGE('',*,*,#962,.T.);
#962 = EDGE_CURVE('',#954,#963,#965,.T.);
#963 = VERTEX_POINT('',#964);
#964 = CARTESIAN_POINT('',(11.46,-22.5,12.4));
#965 = LINE('',#966,#967);
#966 = CARTESIAN_POINT('',(-11.46,-22.5,12.4));
#967 = VECTOR('',#968,1.);
#968 = DIRECTION('',(1.,0.,-0.));
#969 = ORIENTED_EDGE('',*,*,#970,.T.);
#970 = EDGE_CURVE('',#963,#971,#973,.T.);
#971 = VERTEX_POINT('',#972);
#972 = CARTESIAN_POINT('',(14.96,-19.,12.4));
#973 = CIRCLE('',#974,3.5);
#974 = AXIS2_PLACEMENT_3D('',#975,#976,#977);
#975 = CARTESIAN_POINT('',(11.46,-19.,12.4));
#976 = DIRECTION('',(0.,0.,1.));
#977 = DIRECTION('',(1.,0.,-0.));
#978 = ORIENTED_EDGE('',*,*,#979,.T.);
#979 = EDGE_CURVE('',#971,#980,#982,.T.);
#980 = VERTEX_POINT('',#981);
#981 = CARTESIAN_POINT('',(14.96,19.,12.4));
#982 = LINE('',#983,#984);
#983 = CARTESIAN_POINT('',(14.96,-19.,12.4));
#984 = VECTOR('',#985,1.);
#985 = DIRECTION('',(-0.,1.,0.));
#986 = ORIENTED_EDGE('',*,*,#987,.T.);
#987 = EDGE_CURVE('',#980,#988,#990,.T.);
#988 = VERTEX_POINT('',#989);
#989 = CARTESIAN_POINT('',(11.46,22.5,12.4));
#990 = CIRCLE('',#991,3.5);
#991 = AXIS2_PLACEMENT_3D('',#992,#993,#994);
#992 = CARTESIAN_POINT('',(11.46,19.,12.4));
#993 = DIRECTION('',(0.,0.,1.));
#994 = DIRECTION('',(1.,0.,-0.));
#995 = ORIENTED_EDGE('',*,*,#996,.F.);
#996 = EDGE_CURVE('',#997,#988,#999,.T.);
#997 = VERTEX_POINT('',#998);
#998 = CARTESIAN_POINT('',(-11.46,22.5,12.4));
#999 = LINE('',#1000,#1001);
#1000 = CARTESIAN_POINT('',(-11.46,22.5,12.4));
#1001 = VECTOR('',#1002,1.);
#1002 = DIRECTION('',(1.,0.,-0.));
#1003 = ORIENTED_EDGE('',*,*,#1004,.T.);
#1004 = EDGE_CURVE('',#997,#1005,#1007,.T.);
#1005 = VERTEX_POINT('',#1006);
#1006 = CARTESIAN_POINT('',(-14.96,19.,12.4));
#1007 = CIRCLE('',#1008,3.5);
#1008 = AXIS2_PLACEMENT_3D('',#1009,#1010,#1011);
#1009 = CARTESIAN_POINT('',(-11.46,19.,12.4));
#1010 = DIRECTION('',(0.,0.,1.));
#1011 = DIRECTION('',(1.,0.,-0.));
#1012 = ORIENTED_EDGE('',*,*,#1013,.F.);
#1013 = EDGE_CURVE('',#952,#1005,#1014,.T.);
#1014 = LINE('',#1015,#1016);
#1015 = CARTESIAN_POINT('',(-14.96,-19.,12.4));
#1016 = VECTOR('',#1017,1.);
#1017 = DIRECTION('',(-0.,1.,0.));
#1018 = FACE_BOUND('',#1019,.F.);
#1019 = EDGE_LOOP('',(#1020,#1021,#1022,#1023,#1024,#1025,#1026,#1027));
#1020 = ORIENTED_EDGE('',*,*,#576,.F.);
#1021 = ORIENTED_EDGE('',*,*,#592,.T.);
#1022 = ORIENTED_EDGE('',*,*,#649,.F.);
#1023 = ORIENTED_EDGE('',*,*,#697,.F.);
#1024 = ORIENTED_EDGE('',*,*,#740,.F.);
#1025 = ORIENTED_EDGE('',*,*,#714,.F.);
#1026 = ORIENTED_EDGE('',*,*,#674,.F.);
#1027 = ORIENTED_EDGE('',*,*,#623,.T.);
#1028 = PLANE('',#1029);
#1029 = AXIS2_PLACEMENT_3D('',#1030,#1031,#1032);
#1030 = CARTESIAN_POINT('',(0.,-3.958984693253E-16,12.4));
#1031 = DIRECTION('',(0.,0.,1.));
#1032 = DIRECTION('',(1.,0.,-0.));
#1033 = ADVANCED_FACE('',(#1034,#1044),#1114,.T.);
#1034 = FACE_BOUND('',#1035,.T.);
#1035 = EDGE_LOOP('',(#1036,#1037,#1038,#1039,#1040,#1041,#1042,#1043));
#1036 = ORIENTED_EDGE('',*,*,#772,.F.);
#1037 = ORIENTED_EDGE('',*,*,#788,.T.);
#1038 = ORIENTED_EDGE('',*,*,#845,.F.);
#1039 = ORIENTED_EDGE('',*,*,#893,.T.);
#1040 = ORIENTED_EDGE('',*,*,#936,.F.);
#1041 = ORIENTED_EDGE('',*,*,#910,.F.);
#1042 = ORIENTED_EDGE('',*,*,#870,.F.);
#1043 = ORIENTED_EDGE('',*,*,#819,.F.);
#1044 = FACE_BOUND('',#1045,.T.);
#1045 = EDGE_LOOP('',(#1046,#1056,#1065,#1073,#1082,#1090,#1099,#1107));
#1046 = ORIENTED_EDGE('',*,*,#1047,.T.);
#1047 = EDGE_CURVE('',#1048,#1050,#1052,.T.);
#1048 = VERTEX_POINT('',#1049);
#1049 = CARTESIAN_POINT('',(-19.25,23.,8.));
#1050 = VERTEX_POINT('',#1051);
#1051 = CARTESIAN_POINT('',(-19.25,-23.,8.));
#1052 = LINE('',#1053,#1054);
#1053 = CARTESIAN_POINT('',(-19.25,-11.5,8.));
#1054 = VECTOR('',#1055,1.);
#1055 = DIRECTION('',(0.,-1.,0.));
#1056 = ORIENTED_EDGE('',*,*,#1057,.T.);
#1057 = EDGE_CURVE('',#1050,#1058,#1060,.T.);
#1058 = VERTEX_POINT('',#1059);
#1059 = CARTESIAN_POINT('',(-16.,-26.25,8.));
#1060 = CIRCLE('',#1061,3.25);
#1061 = AXIS2_PLACEMENT_3D('',#1062,#1063,#1064);
#1062 = CARTESIAN_POINT('',(-16.,-23.,8.));
#1063 = DIRECTION('',(0.,0.,1.));
#1064 = DIRECTION('',(1.,0.,-0.));
#1065 = ORIENTED_EDGE('',*,*,#1066,.T.);
#1066 = EDGE_CURVE('',#1058,#1067,#1069,.T.);
#1067 = VERTEX_POINT('',#1068);
#1068 = CARTESIAN_POINT('',(16.,-26.25,8.));
#1069 = LINE('',#1070,#1071);
#1070 = CARTESIAN_POINT('',(-8.,-26.25,8.));
#1071 = VECTOR('',#1072,1.);
#1072 = DIRECTION('',(1.,0.,-0.));
#1073 = ORIENTED_EDGE('',*,*,#1074,.T.);
#1074 = EDGE_CURVE('',#1067,#1075,#1077,.T.);
#1075 = VERTEX_POINT('',#1076);
#1076 = CARTESIAN_POINT('',(19.25,-23.,8.));
#1077 = CIRCLE('',#1078,3.25);
#1078 = AXIS2_PLACEMENT_3D('',#1079,#1080,#1081);
#1079 = CARTESIAN_POINT('',(16.,-23.,8.));
#1080 = DIRECTION('',(0.,0.,1.));
#1081 = DIRECTION('',(1.,0.,-0.));
#1082 = ORIENTED_EDGE('',*,*,#1083,.F.);
#1083 = EDGE_CURVE('',#1084,#1075,#1086,.T.);
#1084 = VERTEX_POINT('',#1085);
#1085 = CARTESIAN_POINT('',(19.25,23.,8.));
#1086 = LINE('',#1087,#1088);
#1087 = CARTESIAN_POINT('',(19.25,-11.5,8.));
#1088 = VECTOR('',#1089,1.);
#1089 = DIRECTION('',(0.,-1.,0.));
#1090 = ORIENTED_EDGE('',*,*,#1091,.T.);
#1091 = EDGE_CURVE('',#1084,#1092,#1094,.T.);
#1092 = VERTEX_POINT('',#1093);
#1093 = CARTESIAN_POINT('',(16.,26.25,8.));
#1094 = CIRCLE('',#1095,3.25);
#1095 = AXIS2_PLACEMENT_3D('',#1096,#1097,#1098);
#1096 = CARTESIAN_POINT('',(16.,23.,8.));
#1097 = DIRECTION('',(0.,0.,1.));
#1098 = DIRECTION('',(1.,0.,-0.));
#1099 = ORIENTED_EDGE('',*,*,#1100,.F.);
#1100 = EDGE_CURVE('',#1101,#1092,#1103,.T.);
#1101 = VERTEX_POINT('',#1102);
#1102 = CARTESIAN_POINT('',(-16.,26.25,8.));
#1103 = LINE('',#1104,#1105);
#1104 = CARTESIAN_POINT('',(-8.,26.25,8.));
#1105 = VECTOR('',#1106,1.);
#1106 = DIRECTION('',(1.,0.,-0.));
#1107 = ORIENTED_EDGE('',*,*,#1108,.T.);
#1108 = EDGE_CURVE('',#1101,#1048,#1109,.T.);
#1109 = CIRCLE('',#1110,3.25);
#1110 = AXIS2_PLACEMENT_3D('',#1111,#1112,#1113);
#1111 = CARTESIAN_POINT('',(-16.,23.,8.));
#1112 = DIRECTION('',(0.,0.,1.));
#1113 = DIRECTION('',(1.,0.,-0.));
#1114 = PLANE('',#1115);
#1115 = AXIS2_PLACEMENT_3D('',#1116,#1117,#1118);
#1116 = CARTESIAN_POINT('',(0.,-2.431046290648E-15,8.));
#1117 = DIRECTION('',(-0.,-0.,-1.));
#1118 = DIRECTION('',(-1.,0.,0.));
#1119 = ADVANCED_FACE('',(#1120),#1146,.F.);
#1120 = FACE_BOUND('',#1121,.F.);
#1121 = EDGE_LOOP('',(#1122,#1123,#1131,#1140));
#1122 = ORIENTED_EDGE('',*,*,#951,.F.);
#1123 = ORIENTED_EDGE('',*,*,#1124,.F.);
#1124 = EDGE_CURVE('',#1125,#952,#1127,.T.);
#1125 = VERTEX_POINT('',#1126);
#1126 = CARTESIAN_POINT('',(-14.96,-19.,11.1));
#1127 = LINE('',#1128,#1129);
#1128 = CARTESIAN_POINT('',(-14.96,-19.,7.9));
#1129 = VECTOR('',#1130,1.);
#1130 = DIRECTION('',(0.,0.,1.));
#1131 = ORIENTED_EDGE('',*,*,#1132,.T.);
#1132 = EDGE_CURVE('',#1125,#1133,#1135,.T.);
#1133 = VERTEX_POINT('',#1134);
#1134 = CARTESIAN_POINT('',(-11.46,-22.5,11.1));
#1135 = CIRCLE('',#1136,3.5);
#1136 = AXIS2_PLACEMENT_3D('',#1137,#1138,#1139);
#1137 = CARTESIAN_POINT('',(-11.46,-19.,11.1));
#1138 = DIRECTION('',(0.,0.,1.));
#1139 = DIRECTION('',(1.,0.,-0.));
#1140 = ORIENTED_EDGE('',*,*,#1141,.T.);
#1141 = EDGE_CURVE('',#1133,#954,#1142,.T.);
#1142 = LINE('',#1143,#1144);
#1143 = CARTESIAN_POINT('',(-11.46,-22.5,7.9));
#1144 = VECTOR('',#1145,1.);
#1145 = DIRECTION('',(0.,0.,1.));
#1146 = CYLINDRICAL_SURFACE('',#1147,3.5);
#1147 = AXIS2_PLACEMENT_3D('',#1148,#1149,#1150);
#1148 = CARTESIAN_POINT('',(-11.46,-19.,7.9));
#1149 = DIRECTION('',(0.,0.,1.));
#1150 = DIRECTION('',(1.,0.,-0.));
#1151 = ADVANCED_FACE('',(#1152),#1170,.T.);
#1152 = FACE_BOUND('',#1153,.T.);
#1153 = EDGE_LOOP('',(#1154,#1155,#1163,#1169));
#1154 = ORIENTED_EDGE('',*,*,#1124,.F.);
#1155 = ORIENTED_EDGE('',*,*,#1156,.T.);
#1156 = EDGE_CURVE('',#1125,#1157,#1159,.T.);
#1157 = VERTEX_POINT('',#1158);
#1158 = CARTESIAN_POINT('',(-14.96,19.,11.1));
#1159 = LINE('',#1160,#1161);
#1160 = CARTESIAN_POINT('',(-14.96,-9.5,11.1));
#1161 = VECTOR('',#1162,1.);
#1162 = DIRECTION('',(-0.,1.,0.));
#1163 = ORIENTED_EDGE('',*,*,#1164,.T.);
#1164 = EDGE_CURVE('',#1157,#1005,#1165,.T.);
#1165 = LINE('',#1166,#1167);
#1166 = CARTESIAN_POINT('',(-14.96,19.,7.9));
#1167 = VECTOR('',#1168,1.);
#1168 = DIRECTION('',(0.,0.,1.));
#1169 = ORIENTED_EDGE('',*,*,#1013,.F.);
#1170 = PLANE('',#1171);
#1171 = AXIS2_PLACEMENT_3D('',#1172,#1173,#1174);
#1172 = CARTESIAN_POINT('',(-14.96,-19.,7.9));
#1173 = DIRECTION('',(1.,0.,-0.));
#1174 = DIRECTION('',(0.,0.,1.));
#1175 = ADVANCED_FACE('',(#1176),#1194,.T.);
#1176 = FACE_BOUND('',#1177,.T.);
#1177 = EDGE_LOOP('',(#1178,#1186,#1187,#1188));
#1178 = ORIENTED_EDGE('',*,*,#1179,.T.);
#1179 = EDGE_CURVE('',#1180,#1133,#1182,.T.);
#1180 = VERTEX_POINT('',#1181);
#1181 = CARTESIAN_POINT('',(11.46,-22.5,11.1));
#1182 = LINE('',#1183,#1184);
#1183 = CARTESIAN_POINT('',(-5.73,-22.5,11.1));
#1184 = VECTOR('',#1185,1.);
#1185 = DIRECTION('',(-1.,-0.,0.));
#1186 = ORIENTED_EDGE('',*,*,#1141,.T.);
#1187 = ORIENTED_EDGE('',*,*,#962,.T.);
#1188 = ORIENTED_EDGE('',*,*,#1189,.F.);
#1189 = EDGE_CURVE('',#1180,#963,#1190,.T.);
#1190 = LINE('',#1191,#1192);
#1191 = CARTESIAN_POINT('',(11.46,-22.5,7.9));
#1192 = VECTOR('',#1193,1.);
#1193 = DIRECTION('',(0.,0.,1.));
#1194 = PLANE('',#1195);
#1195 = AXIS2_PLACEMENT_3D('',#1196,#1197,#1198);
#1196 = CARTESIAN_POINT('',(-11.46,-22.5,7.9));
#1197 = DIRECTION('',(-0.,1.,0.));
#1198 = DIRECTION('',(0.,0.,1.));
#1199 = ADVANCED_FACE('',(#1200),#1219,.F.);
#1200 = FACE_BOUND('',#1201,.F.);
#1201 = EDGE_LOOP('',(#1202,#1203,#1211,#1218));
#1202 = ORIENTED_EDGE('',*,*,#1004,.F.);
#1203 = ORIENTED_EDGE('',*,*,#1204,.F.);
#1204 = EDGE_CURVE('',#1205,#997,#1207,.T.);
#1205 = VERTEX_POINT('',#1206);
#1206 = CARTESIAN_POINT('',(-11.46,22.5,11.1));
#1207 = LINE('',#1208,#1209);
#1208 = CARTESIAN_POINT('',(-11.46,22.5,7.9));
#1209 = VECTOR('',#1210,1.);
#1210 = DIRECTION('',(0.,0.,1.));
#1211 = ORIENTED_EDGE('',*,*,#1212,.T.);
#1212 = EDGE_CURVE('',#1205,#1157,#1213,.T.);
#1213 = CIRCLE('',#1214,3.5);
#1214 = AXIS2_PLACEMENT_3D('',#1215,#1216,#1217);
#1215 = CARTESIAN_POINT('',(-11.46,19.,11.1));
#1216 = DIRECTION('',(0.,0.,1.));
#1217 = DIRECTION('',(1.,0.,-0.));
#1218 = ORIENTED_EDGE('',*,*,#1164,.T.);
#1219 = CYLINDRICAL_SURFACE('',#1220,3.5);
#1220 = AXIS2_PLACEMENT_3D('',#1221,#1222,#1223);
#1221 = CARTESIAN_POINT('',(-11.46,19.,7.9));
#1222 = DIRECTION('',(0.,0.,1.));
#1223 = DIRECTION('',(1.,0.,-0.));
#1224 = ADVANCED_FACE('',(#1225),#1244,.F.);
#1225 = FACE_BOUND('',#1226,.F.);
#1226 = EDGE_LOOP('',(#1227,#1228,#1229,#1238));
#1227 = ORIENTED_EDGE('',*,*,#970,.F.);
#1228 = ORIENTED_EDGE('',*,*,#1189,.F.);
#1229 = ORIENTED_EDGE('',*,*,#1230,.T.);
#1230 = EDGE_CURVE('',#1180,#1231,#1233,.T.);
#1231 = VERTEX_POINT('',#1232);
#1232 = CARTESIAN_POINT('',(14.96,-19.,11.1));
#1233 = CIRCLE('',#1234,3.5);
#1234 = AXIS2_PLACEMENT_3D('',#1235,#1236,#1237);
#1235 = CARTESIAN_POINT('',(11.46,-19.,11.1));
#1236 = DIRECTION('',(0.,0.,1.));
#1237 = DIRECTION('',(1.,0.,-0.));
#1238 = ORIENTED_EDGE('',*,*,#1239,.T.);
#1239 = EDGE_CURVE('',#1231,#971,#1240,.T.);
#1240 = LINE('',#1241,#1242);
#1241 = CARTESIAN_POINT('',(14.96,-19.,7.9));
#1242 = VECTOR('',#1243,1.);
#1243 = DIRECTION('',(0.,0.,1.));
#1244 = CYLINDRICAL_SURFACE('',#1245,3.5);
#1245 = AXIS2_PLACEMENT_3D('',#1246,#1247,#1248);
#1246 = CARTESIAN_POINT('',(11.46,-19.,7.9));
#1247 = DIRECTION('',(0.,0.,1.));
#1248 = DIRECTION('',(1.,0.,-0.));
#1249 = ADVANCED_FACE('',(#1250),#1268,.F.);
#1250 = FACE_BOUND('',#1251,.F.);
#1251 = EDGE_LOOP('',(#1252,#1260,#1261,#1262));
#1252 = ORIENTED_EDGE('',*,*,#1253,.T.);
#1253 = EDGE_CURVE('',#1254,#1205,#1256,.T.);
#1254 = VERTEX_POINT('',#1255);
#1255 = CARTESIAN_POINT('',(11.46,22.5,11.1));
#1256 = LINE('',#1257,#1258);
#1257 = CARTESIAN_POINT('',(-5.73,22.5,11.1));
#1258 = VECTOR('',#1259,1.);
#1259 = DIRECTION('',(-1.,-0.,0.));
#1260 = ORIENTED_EDGE('',*,*,#1204,.T.);
#1261 = ORIENTED_EDGE('',*,*,#996,.T.);
#1262 = ORIENTED_EDGE('',*,*,#1263,.F.);
#1263 = EDGE_CURVE('',#1254,#988,#1264,.T.);
#1264 = LINE('',#1265,#1266);
#1265 = CARTESIAN_POINT('',(11.46,22.5,7.9));
#1266 = VECTOR('',#1267,1.);
#1267 = DIRECTION('',(0.,0.,1.));
#1268 = PLANE('',#1269);
#1269 = AXIS2_PLACEMENT_3D('',#1270,#1271,#1272);
#1270 = CARTESIAN_POINT('',(-11.46,22.5,7.9));
#1271 = DIRECTION('',(-0.,1.,0.));
#1272 = DIRECTION('',(0.,0.,1.));
#1273 = ADVANCED_FACE('',(#1274),#1292,.F.);
#1274 = FACE_BOUND('',#1275,.F.);
#1275 = EDGE_LOOP('',(#1276,#1277,#1285,#1291));
#1276 = ORIENTED_EDGE('',*,*,#1239,.F.);
#1277 = ORIENTED_EDGE('',*,*,#1278,.T.);
#1278 = EDGE_CURVE('',#1231,#1279,#1281,.T.);
#1279 = VERTEX_POINT('',#1280);
#1280 = CARTESIAN_POINT('',(14.96,19.,11.1));
#1281 = LINE('',#1282,#1283);
#1282 = CARTESIAN_POINT('',(14.96,-9.5,11.1));
#1283 = VECTOR('',#1284,1.);
#1284 = DIRECTION('',(-0.,1.,0.));
#1285 = ORIENTED_EDGE('',*,*,#1286,.T.);
#1286 = EDGE_CURVE('',#1279,#980,#1287,.T.);
#1287 = LINE('',#1288,#1289);
#1288 = CARTESIAN_POINT('',(14.96,19.,7.9));
#1289 = VECTOR('',#1290,1.);
#1290 = DIRECTION('',(0.,0.,1.));
#1291 = ORIENTED_EDGE('',*,*,#979,.F.);
#1292 = PLANE('',#1293);
#1293 = AXIS2_PLACEMENT_3D('',#1294,#1295,#1296);
#1294 = CARTESIAN_POINT('',(14.96,-19.,7.9));
#1295 = DIRECTION('',(1.,0.,-0.));
#1296 = DIRECTION('',(0.,0.,1.));
#1297 = ADVANCED_FACE('',(#1298),#1310,.F.);
#1298 = FACE_BOUND('',#1299,.F.);
#1299 = EDGE_LOOP('',(#1300,#1301,#1302,#1309));
#1300 = ORIENTED_EDGE('',*,*,#987,.F.);
#1301 = ORIENTED_EDGE('',*,*,#1286,.F.);
#1302 = ORIENTED_EDGE('',*,*,#1303,.T.);
#1303 = EDGE_CURVE('',#1279,#1254,#1304,.T.);
#1304 = CIRCLE('',#1305,3.5);
#1305 = AXIS2_PLACEMENT_3D('',#1306,#1307,#1308);
#1306 = CARTESIAN_POINT('',(11.46,19.,11.1));
#1307 = DIRECTION('',(0.,0.,1.));
#1308 = DIRECTION('',(1.,0.,-0.));
#1309 = ORIENTED_EDGE('',*,*,#1263,.T.);
#1310 = CYLINDRICAL_SURFACE('',#1311,3.5);
#1311 = AXIS2_PLACEMENT_3D('',#1312,#1313,#1314);
#1312 = CARTESIAN_POINT('',(11.46,19.,7.9));
#1313 = DIRECTION('',(0.,0.,1.));
#1314 = DIRECTION('',(1.,0.,-0.));
#1315 = ADVANCED_FACE('',(#1316,#1341,#1375),#1409,.T.);
#1316 = FACE_BOUND('',#1317,.T.);
#1317 = EDGE_LOOP('',(#1318,#1326,#1327,#1335));
#1318 = ORIENTED_EDGE('',*,*,#1319,.F.);
#1319 = EDGE_CURVE('',#1050,#1320,#1322,.T.);
#1320 = VERTEX_POINT('',#1321);
#1321 = CARTESIAN_POINT('',(-19.25,-23.,11.1));
#1322 = LINE('',#1323,#1324);
#1323 = CARTESIAN_POINT('',(-19.25,-23.,7.9));
#1324 = VECTOR('',#1325,1.);
#1325 = DIRECTION('',(0.,0.,1.));
#1326 = ORIENTED_EDGE('',*,*,#1047,.F.);
#1327 = ORIENTED_EDGE('',*,*,#1328,.T.);
#1328 = EDGE_CURVE('',#1048,#1329,#1331,.T.);
#1329 = VERTEX_POINT('',#1330);
#1330 = CARTESIAN_POINT('',(-19.25,23.,11.1));
#1331 = LINE('',#1332,#1333);
#1332 = CARTESIAN_POINT('',(-19.25,23.,7.9));
#1333 = VECTOR('',#1334,1.);
#1334 = DIRECTION('',(0.,0.,1.));
#1335 = ORIENTED_EDGE('',*,*,#1336,.F.);
#1336 = EDGE_CURVE('',#1320,#1329,#1337,.T.);
#1337 = LINE('',#1338,#1339);
#1338 = CARTESIAN_POINT('',(-19.25,-23.,11.1));
#1339 = VECTOR('',#1340,1.);
#1340 = DIRECTION('',(-0.,1.,0.));
#1341 = FACE_BOUND('',#1342,.T.);
#1342 = EDGE_LOOP('',(#1343,#1353,#1361,#1369));
#1343 = ORIENTED_EDGE('',*,*,#1344,.F.);
#1344 = EDGE_CURVE('',#1345,#1347,#1349,.T.);
#1345 = VERTEX_POINT('',#1346);
#1346 = CARTESIAN_POINT('',(-19.25,5.2,10.2));
#1347 = VERTEX_POINT('',#1348);
#1348 = CARTESIAN_POINT('',(-19.25,5.2,9.2));
#1349 = LINE('',#1350,#1351);
#1350 = CARTESIAN_POINT('',(-19.25,5.2,8.55));
#1351 = VECTOR('',#1352,1.);
#1352 = DIRECTION('',(0.,-0.,-1.));
#1353 = ORIENTED_EDGE('',*,*,#1354,.T.);
#1354 = EDGE_CURVE('',#1345,#1355,#1357,.T.);
#1355 = VERTEX_POINT('',#1356);
#1356 = CARTESIAN_POINT('',(-19.25,10.8,10.2));
#1357 = LINE('',#1358,#1359);
#1358 = CARTESIAN_POINT('',(-19.25,-8.9,10.2));
#1359 = VECTOR('',#1360,1.);
#1360 = DIRECTION('',(0.,1.,0.));
#1361 = ORIENTED_EDGE('',*,*,#1362,.T.);
#1362 = EDGE_CURVE('',#1355,#1363,#1365,.T.);
#1363 = VERTEX_POINT('',#1364);
#1364 = CARTESIAN_POINT('',(-19.25,10.8,9.2));
#1365 = LINE('',#1366,#1367);
#1366 = CARTESIAN_POINT('',(-19.25,10.8,8.55));
#1367 = VECTOR('',#1368,1.);
#1368 = DIRECTION('',(0.,-0.,-1.));
#1369 = ORIENTED_EDGE('',*,*,#1370,.F.);
#1370 = EDGE_CURVE('',#1347,#1363,#1371,.T.);
#1371 = LINE('',#1372,#1373);
#1372 = CARTESIAN_POINT('',(-19.25,-8.9,9.2));
#1373 = VECTOR('',#1374,1.);
#1374 = DIRECTION('',(0.,1.,0.));
#1375 = FACE_BOUND('',#1376,.T.);
#1376 = EDGE_LOOP('',(#1377,#1387,#1395,#1403));
#1377 = ORIENTED_EDGE('',*,*,#1378,.F.);
#1378 = EDGE_CURVE('',#1379,#1381,#1383,.T.);
#1379 = VERTEX_POINT('',#1380);
#1380 = CARTESIAN_POINT('',(-19.25,-10.8,10.2));
#1381 = VERTEX_POINT('',#1382);
#1382 = CARTESIAN_POINT('',(-19.25,-10.8,9.2));
#1383 = LINE('',#1384,#1385);
#1384 = CARTESIAN_POINT('',(-19.25,-10.8,8.55));
#1385 = VECTOR('',#1386,1.);
#1386 = DIRECTION('',(0.,-0.,-1.));
#1387 = ORIENTED_EDGE('',*,*,#1388,.T.);
#1388 = EDGE_CURVE('',#1379,#1389,#1391,.T.);
#1389 = VERTEX_POINT('',#1390);
#1390 = CARTESIAN_POINT('',(-19.25,-5.2,10.2));
#1391 = LINE('',#1392,#1393);
#1392 = CARTESIAN_POINT('',(-19.25,-16.9,10.2));
#1393 = VECTOR('',#1394,1.);
#1394 = DIRECTION('',(0.,1.,0.));
#1395 = ORIENTED_EDGE('',*,*,#1396,.T.);
#1396 = EDGE_CURVE('',#1389,#1397,#1399,.T.);
#1397 = VERTEX_POINT('',#1398);
#1398 = CARTESIAN_POINT('',(-19.25,-5.2,9.2));
#1399 = LINE('',#1400,#1401);
#1400 = CARTESIAN_POINT('',(-19.25,-5.2,8.55));
#1401 = VECTOR('',#1402,1.);
#1402 = DIRECTION('',(0.,-0.,-1.));
#1403 = ORIENTED_EDGE('',*,*,#1404,.F.);
#1404 = EDGE_CURVE('',#1381,#1397,#1405,.T.);
#1405 = LINE('',#1406,#1407);
#1406 = CARTESIAN_POINT('',(-19.25,-16.9,9.2));
#1407 = VECTOR('',#1408,1.);
#1408 = DIRECTION('',(0.,1.,0.));
#1409 = PLANE('',#1410);
#1410 = AXIS2_PLACEMENT_3D('',#1411,#1412,#1413);
#1411 = CARTESIAN_POINT('',(-19.25,-23.,7.9));
#1412 = DIRECTION('',(1.,0.,-0.));
#1413 = DIRECTION('',(0.,0.,1.));
#1414 = ADVANCED_FACE('',(#1415),#1434,.F.);
#1415 = FACE_BOUND('',#1416,.F.);
#1416 = EDGE_LOOP('',(#1417,#1426,#1432,#1433));
#1417 = ORIENTED_EDGE('',*,*,#1418,.F.);
#1418 = EDGE_CURVE('',#1419,#1329,#1421,.T.);
#1419 = VERTEX_POINT('',#1420);
#1420 = CARTESIAN_POINT('',(-16.,26.25,11.1));
#1421 = CIRCLE('',#1422,3.25);
#1422 = AXIS2_PLACEMENT_3D('',#1423,#1424,#1425);
#1423 = CARTESIAN_POINT('',(-16.,23.,11.1));
#1424 = DIRECTION('',(0.,0.,1.));
#1425 = DIRECTION('',(1.,0.,-0.));
#1426 = ORIENTED_EDGE('',*,*,#1427,.F.);
#1427 = EDGE_CURVE('',#1101,#1419,#1428,.T.);
#1428 = LINE('',#1429,#1430);
#1429 = CARTESIAN_POINT('',(-16.,26.25,7.9));
#1430 = VECTOR('',#1431,1.);
#1431 = DIRECTION('',(0.,0.,1.));
#1432 = ORIENTED_EDGE('',*,*,#1108,.T.);
#1433 = ORIENTED_EDGE('',*,*,#1328,.T.);
#1434 = CYLINDRICAL_SURFACE('',#1435,3.25);
#1435 = AXIS2_PLACEMENT_3D('',#1436,#1437,#1438);
#1436 = CARTESIAN_POINT('',(-16.,23.,7.9));
#1437 = DIRECTION('',(0.,0.,1.));
#1438 = DIRECTION('',(1.,0.,-0.));
#1439 = ADVANCED_FACE('',(#1440),#1458,.F.);
#1440 = FACE_BOUND('',#1441,.F.);
#1441 = EDGE_LOOP('',(#1442,#1443,#1444,#1452));
#1442 = ORIENTED_EDGE('',*,*,#1100,.F.);
#1443 = ORIENTED_EDGE('',*,*,#1427,.T.);
#1444 = ORIENTED_EDGE('',*,*,#1445,.T.);
#1445 = EDGE_CURVE('',#1419,#1446,#1448,.T.);
#1446 = VERTEX_POINT('',#1447);
#1447 = CARTESIAN_POINT('',(16.,26.25,11.1));
#1448 = LINE('',#1449,#1450);
#1449 = CARTESIAN_POINT('',(-16.,26.25,11.1));
#1450 = VECTOR('',#1451,1.);
#1451 = DIRECTION('',(1.,0.,-0.));
#1452 = ORIENTED_EDGE('',*,*,#1453,.F.);
#1453 = EDGE_CURVE('',#1092,#1446,#1454,.T.);
#1454 = LINE('',#1455,#1456);
#1455 = CARTESIAN_POINT('',(16.,26.25,7.9));
#1456 = VECTOR('',#1457,1.);
#1457 = DIRECTION('',(0.,0.,1.));
#1458 = PLANE('',#1459);
#1459 = AXIS2_PLACEMENT_3D('',#1460,#1461,#1462);
#1460 = CARTESIAN_POINT('',(-16.,26.25,7.9));
#1461 = DIRECTION('',(-0.,1.,0.));
#1462 = DIRECTION('',(0.,0.,1.));
#1463 = ADVANCED_FACE('',(#1464),#1483,.F.);
#1464 = FACE_BOUND('',#1465,.F.);
#1465 = EDGE_LOOP('',(#1466,#1475,#1481,#1482));
#1466 = ORIENTED_EDGE('',*,*,#1467,.F.);
#1467 = EDGE_CURVE('',#1468,#1446,#1470,.T.);
#1468 = VERTEX_POINT('',#1469);
#1469 = CARTESIAN_POINT('',(19.25,23.,11.1));
#1470 = CIRCLE('',#1471,3.25);
#1471 = AXIS2_PLACEMENT_3D('',#1472,#1473,#1474);
#1472 = CARTESIAN_POINT('',(16.,23.,11.1));
#1473 = DIRECTION('',(0.,0.,1.));
#1474 = DIRECTION('',(1.,0.,-0.));
#1475 = ORIENTED_EDGE('',*,*,#1476,.F.);
#1476 = EDGE_CURVE('',#1084,#1468,#1477,.T.);
#1477 = LINE('',#1478,#1479);
#1478 = CARTESIAN_POINT('',(19.25,23.,7.9));
#1479 = VECTOR('',#1480,1.);
#1480 = DIRECTION('',(0.,0.,1.));
#1481 = ORIENTED_EDGE('',*,*,#1091,.T.);
#1482 = ORIENTED_EDGE('',*,*,#1453,.T.);
#1483 = CYLINDRICAL_SURFACE('',#1484,3.25);
#1484 = AXIS2_PLACEMENT_3D('',#1485,#1486,#1487);
#1485 = CARTESIAN_POINT('',(16.,23.,7.9));
#1486 = DIRECTION('',(0.,0.,1.));
#1487 = DIRECTION('',(1.,0.,-0.));
#1488 = ADVANCED_FACE('',(#1489,#1507,#1541),#1575,.F.);
#1489 = FACE_BOUND('',#1490,.F.);
#1490 = EDGE_LOOP('',(#1491,#1499,#1500,#1501));
#1491 = ORIENTED_EDGE('',*,*,#1492,.F.);
#1492 = EDGE_CURVE('',#1075,#1493,#1495,.T.);
#1493 = VERTEX_POINT('',#1494);
#1494 = CARTESIAN_POINT('',(19.25,-23.,11.1));
#1495 = LINE('',#1496,#1497);
#1496 = CARTESIAN_POINT('',(19.25,-23.,7.9));
#1497 = VECTOR('',#1498,1.);
#1498 = DIRECTION('',(0.,0.,1.));
#1499 = ORIENTED_EDGE('',*,*,#1083,.F.);
#1500 = ORIENTED_EDGE('',*,*,#1476,.T.);
#1501 = ORIENTED_EDGE('',*,*,#1502,.F.);
#1502 = EDGE_CURVE('',#1493,#1468,#1503,.T.);
#1503 = LINE('',#1504,#1505);
#1504 = CARTESIAN_POINT('',(19.25,-23.,11.1));
#1505 = VECTOR('',#1506,1.);
#1506 = DIRECTION('',(-0.,1.,0.));
#1507 = FACE_BOUND('',#1508,.F.);
#1508 = EDGE_LOOP('',(#1509,#1519,#1527,#1535));
#1509 = ORIENTED_EDGE('',*,*,#1510,.T.);
#1510 = EDGE_CURVE('',#1511,#1513,#1515,.T.);
#1511 = VERTEX_POINT('',#1512);
#1512 = CARTESIAN_POINT('',(19.25,10.8,9.2));
#1513 = VERTEX_POINT('',#1514);
#1514 = CARTESIAN_POINT('',(19.25,5.2,9.2));
#1515 = LINE('',#1516,#1517);
#1516 = CARTESIAN_POINT('',(19.25,-8.9,9.2));
#1517 = VECTOR('',#1518,1.);
#1518 = DIRECTION('',(0.,-1.,0.));
#1519 = ORIENTED_EDGE('',*,*,#1520,.T.);
#1520 = EDGE_CURVE('',#1513,#1521,#1523,.T.);
#1521 = VERTEX_POINT('',#1522);
#1522 = CARTESIAN_POINT('',(19.25,5.2,10.2));
#1523 = LINE('',#1524,#1525);
#1524 = CARTESIAN_POINT('',(19.25,5.2,8.55));
#1525 = VECTOR('',#1526,1.);
#1526 = DIRECTION('',(0.,0.,1.));
#1527 = ORIENTED_EDGE('',*,*,#1528,.F.);
#1528 = EDGE_CURVE('',#1529,#1521,#1531,.T.);
#1529 = VERTEX_POINT('',#1530);
#1530 = CARTESIAN_POINT('',(19.25,10.8,10.2));
#1531 = LINE('',#1532,#1533);
#1532 = CARTESIAN_POINT('',(19.25,-8.9,10.2));
#1533 = VECTOR('',#1534,1.);
#1534 = DIRECTION('',(0.,-1.,0.));
#1535 = ORIENTED_EDGE('',*,*,#1536,.F.);
#1536 = EDGE_CURVE('',#1511,#1529,#1537,.T.);
#1537 = LINE('',#1538,#1539);
#1538 = CARTESIAN_POINT('',(19.25,10.8,8.55));
#1539 = VECTOR('',#1540,1.);
#1540 = DIRECTION('',(0.,0.,1.));
#1541 = FACE_BOUND('',#1542,.F.);
#1542 = EDGE_LOOP('',(#1543,#1553,#1561,#1569));
#1543 = ORIENTED_EDGE('',*,*,#1544,.T.);
#1544 = EDGE_CURVE('',#1545,#1547,#1549,.T.);
#1545 = VERTEX_POINT('',#1546);
#1546 = CARTESIAN_POINT('',(19.25,-5.2,9.2));
#1547 = VERTEX_POINT('',#1548);
#1548 = CARTESIAN_POINT('',(19.25,-10.8,9.2));
#1549 = LINE('',#1550,#1551);
#1550 = CARTESIAN_POINT('',(19.25,-16.9,9.2));
#1551 = VECTOR('',#1552,1.);
#1552 = DIRECTION('',(0.,-1.,0.));
#1553 = ORIENTED_EDGE('',*,*,#1554,.T.);
#1554 = EDGE_CURVE('',#1547,#1555,#1557,.T.);
#1555 = VERTEX_POINT('',#1556);
#1556 = CARTESIAN_POINT('',(19.25,-10.8,10.2));
#1557 = LINE('',#1558,#1559);
#1558 = CARTESIAN_POINT('',(19.25,-10.8,8.55));
#1559 = VECTOR('',#1560,1.);
#1560 = DIRECTION('',(0.,0.,1.));
#1561 = ORIENTED_EDGE('',*,*,#1562,.F.);
#1562 = EDGE_CURVE('',#1563,#1555,#1565,.T.);
#1563 = VERTEX_POINT('',#1564);
#1564 = CARTESIAN_POINT('',(19.25,-5.2,10.2));
#1565 = LINE('',#1566,#1567);
#1566 = CARTESIAN_POINT('',(19.25,-16.9,10.2));
#1567 = VECTOR('',#1568,1.);
#1568 = DIRECTION('',(0.,-1.,0.));
#1569 = ORIENTED_EDGE('',*,*,#1570,.F.);
#1570 = EDGE_CURVE('',#1545,#1563,#1571,.T.);
#1571 = LINE('',#1572,#1573);
#1572 = CARTESIAN_POINT('',(19.25,-5.2,8.55));
#1573 = VECTOR('',#1574,1.);
#1574 = DIRECTION('',(0.,0.,1.));
#1575 = PLANE('',#1576);
#1576 = AXIS2_PLACEMENT_3D('',#1577,#1578,#1579);
#1577 = CARTESIAN_POINT('',(19.25,-23.,7.9));
#1578 = DIRECTION('',(1.,0.,-0.));
#1579 = DIRECTION('',(0.,0.,1.));
#1580 = ADVANCED_FACE('',(#1581),#1600,.F.);
#1581 = FACE_BOUND('',#1582,.F.);
#1582 = EDGE_LOOP('',(#1583,#1592,#1598,#1599));
#1583 = ORIENTED_EDGE('',*,*,#1584,.F.);
#1584 = EDGE_CURVE('',#1585,#1493,#1587,.T.);
#1585 = VERTEX_POINT('',#1586);
#1586 = CARTESIAN_POINT('',(16.,-26.25,11.1));
#1587 = CIRCLE('',#1588,3.25);
#1588 = AXIS2_PLACEMENT_3D('',#1589,#1590,#1591);
#1589 = CARTESIAN_POINT('',(16.,-23.,11.1));
#1590 = DIRECTION('',(0.,0.,1.));
#1591 = DIRECTION('',(1.,0.,-0.));
#1592 = ORIENTED_EDGE('',*,*,#1593,.F.);
#1593 = EDGE_CURVE('',#1067,#1585,#1594,.T.);
#1594 = LINE('',#1595,#1596);
#1595 = CARTESIAN_POINT('',(16.,-26.25,7.9));
#1596 = VECTOR('',#1597,1.);
#1597 = DIRECTION('',(0.,0.,1.));
#1598 = ORIENTED_EDGE('',*,*,#1074,.T.);
#1599 = ORIENTED_EDGE('',*,*,#1492,.T.);
#1600 = CYLINDRICAL_SURFACE('',#1601,3.25);
#1601 = AXIS2_PLACEMENT_3D('',#1602,#1603,#1604);
#1602 = CARTESIAN_POINT('',(16.,-23.,7.9));
#1603 = DIRECTION('',(0.,0.,1.));
#1604 = DIRECTION('',(1.,0.,-0.));
#1605 = ADVANCED_FACE('',(#1606),#1624,.T.);
#1606 = FACE_BOUND('',#1607,.T.);
#1607 = EDGE_LOOP('',(#1608,#1609,#1617,#1623));
#1608 = ORIENTED_EDGE('',*,*,#1066,.F.);
#1609 = ORIENTED_EDGE('',*,*,#1610,.T.);
#1610 = EDGE_CURVE('',#1058,#1611,#1613,.T.);
#1611 = VERTEX_POINT('',#1612);
#1612 = CARTESIAN_POINT('',(-16.,-26.25,11.1));
#1613 = LINE('',#1614,#1615);
#1614 = CARTESIAN_POINT('',(-16.,-26.25,7.9));
#1615 = VECTOR('',#1616,1.);
#1616 = DIRECTION('',(0.,0.,1.));
#1617 = ORIENTED_EDGE('',*,*,#1618,.T.);
#1618 = EDGE_CURVE('',#1611,#1585,#1619,.T.);
#1619 = LINE('',#1620,#1621);
#1620 = CARTESIAN_POINT('',(-16.,-26.25,11.1));
#1621 = VECTOR('',#1622,1.);
#1622 = DIRECTION('',(1.,0.,-0.));
#1623 = ORIENTED_EDGE('',*,*,#1593,.F.);
#1624 = PLANE('',#1625);
#1625 = AXIS2_PLACEMENT_3D('',#1626,#1627,#1628);
#1626 = CARTESIAN_POINT('',(-16.,-26.25,7.9));
#1627 = DIRECTION('',(-0.,1.,0.));
#1628 = DIRECTION('',(0.,0.,1.));
#1629 = ADVANCED_FACE('',(#1630),#1642,.F.);
#1630 = FACE_BOUND('',#1631,.F.);
#1631 = EDGE_LOOP('',(#1632,#1639,#1640,#1641));
#1632 = ORIENTED_EDGE('',*,*,#1633,.F.);
#1633 = EDGE_CURVE('',#1320,#1611,#1634,.T.);
#1634 = CIRCLE('',#1635,3.25);
#1635 = AXIS2_PLACEMENT_3D('',#1636,#1637,#1638);
#1636 = CARTESIAN_POINT('',(-16.,-23.,11.1));
#1637 = DIRECTION('',(0.,0.,1.));
#1638 = DIRECTION('',(1.,0.,-0.));
#1639 = ORIENTED_EDGE('',*,*,#1319,.F.);
#1640 = ORIENTED_EDGE('',*,*,#1057,.T.);
#1641 = ORIENTED_EDGE('',*,*,#1610,.T.);
#1642 = CYLINDRICAL_SURFACE('',#1643,3.25);
#1643 = AXIS2_PLACEMENT_3D('',#1644,#1645,#1646);
#1644 = CARTESIAN_POINT('',(-16.,-23.,7.9));
#1645 = DIRECTION('',(0.,0.,1.));
#1646 = DIRECTION('',(1.,0.,-0.));
#1647 = ADVANCED_FACE('',(#1648,#1658),#1668,.F.);
#1648 = FACE_BOUND('',#1649,.F.);
#1649 = EDGE_LOOP('',(#1650,#1651,#1652,#1653,#1654,#1655,#1656,#1657));
#1650 = ORIENTED_EDGE('',*,*,#1633,.T.);
#1651 = ORIENTED_EDGE('',*,*,#1618,.T.);
#1652 = ORIENTED_EDGE('',*,*,#1584,.T.);
#1653 = ORIENTED_EDGE('',*,*,#1502,.T.);
#1654 = ORIENTED_EDGE('',*,*,#1467,.T.);
#1655 = ORIENTED_EDGE('',*,*,#1445,.F.);
#1656 = ORIENTED_EDGE('',*,*,#1418,.T.);
#1657 = ORIENTED_EDGE('',*,*,#1336,.F.);
#1658 = FACE_BOUND('',#1659,.F.);
#1659 = EDGE_LOOP('',(#1660,#1661,#1662,#1663,#1664,#1665,#1666,#1667));
#1660 = ORIENTED_EDGE('',*,*,#1132,.F.);
#1661 = ORIENTED_EDGE('',*,*,#1156,.T.);
#1662 = ORIENTED_EDGE('',*,*,#1212,.F.);
#1663 = ORIENTED_EDGE('',*,*,#1253,.F.);
#1664 = ORIENTED_EDGE('',*,*,#1303,.F.);
#1665 = ORIENTED_EDGE('',*,*,#1278,.F.);
#1666 = ORIENTED_EDGE('',*,*,#1230,.F.);
#1667 = ORIENTED_EDGE('',*,*,#1179,.T.);
#1668 = PLANE('',#1669);
#1669 = AXIS2_PLACEMENT_3D('',#1670,#1671,#1672);
#1670 = CARTESIAN_POINT('',(0.,0.,11.1));
#1671 = DIRECTION('',(0.,0.,1.));
#1672 = DIRECTION('',(1.,0.,-0.));
#1673 = ADVANCED_FACE('',(#1674),#1699,.T.);
#1674 = FACE_BOUND('',#1675,.F.);
#1675 = EDGE_LOOP('',(#1676,#1684,#1685,#1693));
#1676 = ORIENTED_EDGE('',*,*,#1677,.F.);
#1677 = EDGE_CURVE('',#1347,#1678,#1680,.T.);
#1678 = VERTEX_POINT('',#1679);
#1679 = CARTESIAN_POINT('',(-19.85,5.2,9.2));
#1680 = LINE('',#1681,#1682);
#1681 = CARTESIAN_POINT('',(-19.15,5.2,9.2));
#1682 = VECTOR('',#1683,1.);
#1683 = DIRECTION('',(-1.,-0.,-0.));
#1684 = ORIENTED_EDGE('',*,*,#1344,.F.);
#1685 = ORIENTED_EDGE('',*,*,#1686,.T.);
#1686 = EDGE_CURVE('',#1345,#1687,#1689,.T.);
#1687 = VERTEX_POINT('',#1688);
#1688 = CARTESIAN_POINT('',(-19.85,5.2,10.2));
#1689 = LINE('',#1690,#1691);
#1690 = CARTESIAN_POINT('',(-19.15,5.2,10.2));
#1691 = VECTOR('',#1692,1.);
#1692 = DIRECTION('',(-1.,-0.,-0.));
#1693 = ORIENTED_EDGE('',*,*,#1694,.F.);
#1694 = EDGE_CURVE('',#1678,#1687,#1695,.T.);
#1695 = LINE('',#1696,#1697);
#1696 = CARTESIAN_POINT('',(-19.85,5.2,9.2));
#1697 = VECTOR('',#1698,1.);
#1698 = DIRECTION('',(-0.,-0.,1.));
#1699 = PLANE('',#1700);
#1700 = AXIS2_PLACEMENT_3D('',#1701,#1702,#1703);
#1701 = CARTESIAN_POINT('',(-19.15,5.2,9.2));
#1702 = DIRECTION('',(-0.,1.,-0.));
#1703 = DIRECTION('',(0.,0.,-1.));
#1704 = ADVANCED_FACE('',(#1705),#1723,.T.);
#1705 = FACE_BOUND('',#1706,.F.);
#1706 = EDGE_LOOP('',(#1707,#1715,#1716,#1717));
#1707 = ORIENTED_EDGE('',*,*,#1708,.F.);
#1708 = EDGE_CURVE('',#1363,#1709,#1711,.T.);
#1709 = VERTEX_POINT('',#1710);
#1710 = CARTESIAN_POINT('',(-19.85,10.8,9.2));
#1711 = LINE('',#1712,#1713);
#1712 = CARTESIAN_POINT('',(-19.15,10.8,9.2));
#1713 = VECTOR('',#1714,1.);
#1714 = DIRECTION('',(-1.,-0.,-0.));
#1715 = ORIENTED_EDGE('',*,*,#1370,.F.);
#1716 = ORIENTED_EDGE('',*,*,#1677,.T.);
#1717 = ORIENTED_EDGE('',*,*,#1718,.T.);
#1718 = EDGE_CURVE('',#1678,#1709,#1719,.T.);
#1719 = LINE('',#1720,#1721);
#1720 = CARTESIAN_POINT('',(-19.85,5.2,9.2));
#1721 = VECTOR('',#1722,1.);
#1722 = DIRECTION('',(-0.,1.,-0.));
#1723 = PLANE('',#1724);
#1724 = AXIS2_PLACEMENT_3D('',#1725,#1726,#1727);
#1725 = CARTESIAN_POINT('',(-19.15,5.2,9.2));
#1726 = DIRECTION('',(-0.,-0.,1.));
#1727 = DIRECTION('',(1.,0.,0.));
#1728 = ADVANCED_FACE('',(#1729),#1747,.F.);
#1729 = FACE_BOUND('',#1730,.T.);
#1730 = EDGE_LOOP('',(#1731,#1732,#1733,#1741));
#1731 = ORIENTED_EDGE('',*,*,#1708,.F.);
#1732 = ORIENTED_EDGE('',*,*,#1362,.F.);
#1733 = ORIENTED_EDGE('',*,*,#1734,.T.);
#1734 = EDGE_CURVE('',#1355,#1735,#1737,.T.);
#1735 = VERTEX_POINT('',#1736);
#1736 = CARTESIAN_POINT('',(-19.85,10.8,10.2));
#1737 = LINE('',#1738,#1739);
#1738 = CARTESIAN_POINT('',(-19.15,10.8,10.2));
#1739 = VECTOR('',#1740,1.);
#1740 = DIRECTION('',(-1.,-0.,-0.));
#1741 = ORIENTED_EDGE('',*,*,#1742,.F.);
#1742 = EDGE_CURVE('',#1709,#1735,#1743,.T.);
#1743 = LINE('',#1744,#1745);
#1744 = CARTESIAN_POINT('',(-19.85,10.8,9.2));
#1745 = VECTOR('',#1746,1.);
#1746 = DIRECTION('',(-0.,-0.,1.));
#1747 = PLANE('',#1748);
#1748 = AXIS2_PLACEMENT_3D('',#1749,#1750,#1751);
#1749 = CARTESIAN_POINT('',(-19.15,10.8,9.2));
#1750 = DIRECTION('',(-0.,1.,-0.));
#1751 = DIRECTION('',(0.,0.,-1.));
#1752 = ADVANCED_FACE('',(#1753),#1764,.F.);
#1753 = FACE_BOUND('',#1754,.T.);
#1754 = EDGE_LOOP('',(#1755,#1756,#1757,#1758));
#1755 = ORIENTED_EDGE('',*,*,#1734,.F.);
#1756 = ORIENTED_EDGE('',*,*,#1354,.F.);
#1757 = ORIENTED_EDGE('',*,*,#1686,.T.);
#1758 = ORIENTED_EDGE('',*,*,#1759,.T.);
#1759 = EDGE_CURVE('',#1687,#1735,#1760,.T.);
#1760 = LINE('',#1761,#1762);
#1761 = CARTESIAN_POINT('',(-19.85,5.2,10.2));
#1762 = VECTOR('',#1763,1.);
#1763 = DIRECTION('',(-0.,1.,-0.));
#1764 = PLANE('',#1765);
#1765 = AXIS2_PLACEMENT_3D('',#1766,#1767,#1768);
#1766 = CARTESIAN_POINT('',(-19.15,5.2,10.2));
#1767 = DIRECTION('',(-0.,-0.,1.));
#1768 = DIRECTION('',(1.,0.,0.));
#1769 = ADVANCED_FACE('',(#1770),#1795,.T.);
#1770 = FACE_BOUND('',#1771,.F.);
#1771 = EDGE_LOOP('',(#1772,#1780,#1781,#1789));
#1772 = ORIENTED_EDGE('',*,*,#1773,.F.);
#1773 = EDGE_CURVE('',#1381,#1774,#1776,.T.);
#1774 = VERTEX_POINT('',#1775);
#1775 = CARTESIAN_POINT('',(-19.85,-10.8,9.2));
#1776 = LINE('',#1777,#1778);
#1777 = CARTESIAN_POINT('',(-19.15,-10.8,9.2));
#1778 = VECTOR('',#1779,1.);
#1779 = DIRECTION('',(-1.,-0.,-0.));
#1780 = ORIENTED_EDGE('',*,*,#1378,.F.);
#1781 = ORIENTED_EDGE('',*,*,#1782,.T.);
#1782 = EDGE_CURVE('',#1379,#1783,#1785,.T.);
#1783 = VERTEX_POINT('',#1784);
#1784 = CARTESIAN_POINT('',(-19.85,-10.8,10.2));
#1785 = LINE('',#1786,#1787);
#1786 = CARTESIAN_POINT('',(-19.15,-10.8,10.2));
#1787 = VECTOR('',#1788,1.);
#1788 = DIRECTION('',(-1.,-0.,-0.));
#1789 = ORIENTED_EDGE('',*,*,#1790,.F.);
#1790 = EDGE_CURVE('',#1774,#1783,#1791,.T.);
#1791 = LINE('',#1792,#1793);
#1792 = CARTESIAN_POINT('',(-19.85,-10.8,9.2));
#1793 = VECTOR('',#1794,1.);
#1794 = DIRECTION('',(-0.,-0.,1.));
#1795 = PLANE('',#1796);
#1796 = AXIS2_PLACEMENT_3D('',#1797,#1798,#1799);
#1797 = CARTESIAN_POINT('',(-19.15,-10.8,9.2));
#1798 = DIRECTION('',(-0.,1.,-0.));
#1799 = DIRECTION('',(0.,0.,-1.));
#1800 = ADVANCED_FACE('',(#1801),#1819,.F.);
#1801 = FACE_BOUND('',#1802,.T.);
#1802 = EDGE_LOOP('',(#1803,#1811,#1812,#1813));
#1803 = ORIENTED_EDGE('',*,*,#1804,.F.);
#1804 = EDGE_CURVE('',#1389,#1805,#1807,.T.);
#1805 = VERTEX_POINT('',#1806);
#1806 = CARTESIAN_POINT('',(-19.85,-5.2,10.2));
#1807 = LINE('',#1808,#1809);
#1808 = CARTESIAN_POINT('',(-19.15,-5.2,10.2));
#1809 = VECTOR('',#1810,1.);
#1810 = DIRECTION('',(-1.,-0.,-0.));
#1811 = ORIENTED_EDGE('',*,*,#1388,.F.);
#1812 = ORIENTED_EDGE('',*,*,#1782,.T.);
#1813 = ORIENTED_EDGE('',*,*,#1814,.T.);
#1814 = EDGE_CURVE('',#1783,#1805,#1815,.T.);
#1815 = LINE('',#1816,#1817);
#1816 = CARTESIAN_POINT('',(-19.85,-10.8,10.2));
#1817 = VECTOR('',#1818,1.);
#1818 = DIRECTION('',(-0.,1.,-0.));
#1819 = PLANE('',#1820);
#1820 = AXIS2_PLACEMENT_3D('',#1821,#1822,#1823);
#1821 = CARTESIAN_POINT('',(-19.15,-10.8,10.2));
#1822 = DIRECTION('',(-0.,-0.,1.));
#1823 = DIRECTION('',(1.,0.,0.));
#1824 = ADVANCED_FACE('',(#1825),#1843,.T.);
#1825 = FACE_BOUND('',#1826,.F.);
#1826 = EDGE_LOOP('',(#1827,#1835,#1836,#1837));
#1827 = ORIENTED_EDGE('',*,*,#1828,.F.);
#1828 = EDGE_CURVE('',#1397,#1829,#1831,.T.);
#1829 = VERTEX_POINT('',#1830);
#1830 = CARTESIAN_POINT('',(-19.85,-5.2,9.2));
#1831 = LINE('',#1832,#1833);
#1832 = CARTESIAN_POINT('',(-19.15,-5.2,9.2));
#1833 = VECTOR('',#1834,1.);
#1834 = DIRECTION('',(-1.,-0.,-0.));
#1835 = ORIENTED_EDGE('',*,*,#1404,.F.);
#1836 = ORIENTED_EDGE('',*,*,#1773,.T.);
#1837 = ORIENTED_EDGE('',*,*,#1838,.T.);
#1838 = EDGE_CURVE('',#1774,#1829,#1839,.T.);
#1839 = LINE('',#1840,#1841);
#1840 = CARTESIAN_POINT('',(-19.85,-10.8,9.2));
#1841 = VECTOR('',#1842,1.);
#1842 = DIRECTION('',(-0.,1.,-0.));
#1843 = PLANE('',#1844);
#1844 = AXIS2_PLACEMENT_3D('',#1845,#1846,#1847);
#1845 = CARTESIAN_POINT('',(-19.15,-10.8,9.2));
#1846 = DIRECTION('',(-0.,-0.,1.));
#1847 = DIRECTION('',(1.,0.,0.));
#1848 = ADVANCED_FACE('',(#1849),#1860,.F.);
#1849 = FACE_BOUND('',#1850,.T.);
#1850 = EDGE_LOOP('',(#1851,#1852,#1853,#1854));
#1851 = ORIENTED_EDGE('',*,*,#1828,.F.);
#1852 = ORIENTED_EDGE('',*,*,#1396,.F.);
#1853 = ORIENTED_EDGE('',*,*,#1804,.T.);
#1854 = ORIENTED_EDGE('',*,*,#1855,.F.);
#1855 = EDGE_CURVE('',#1829,#1805,#1856,.T.);
#1856 = LINE('',#1857,#1858);
#1857 = CARTESIAN_POINT('',(-19.85,-5.2,9.2));
#1858 = VECTOR('',#1859,1.);
#1859 = DIRECTION('',(-0.,-0.,1.));
#1860 = PLANE('',#1861);
#1861 = AXIS2_PLACEMENT_3D('',#1862,#1863,#1864);
#1862 = CARTESIAN_POINT('',(-19.15,-5.2,9.2));
#1863 = DIRECTION('',(-0.,1.,-0.));
#1864 = DIRECTION('',(0.,0.,-1.));
#1865 = ADVANCED_FACE('',(#1866),#1891,.T.);
#1866 = FACE_BOUND('',#1867,.T.);
#1867 = EDGE_LOOP('',(#1868,#1876,#1877,#1885));
#1868 = ORIENTED_EDGE('',*,*,#1869,.F.);
#1869 = EDGE_CURVE('',#1511,#1870,#1872,.T.);
#1870 = VERTEX_POINT('',#1871);
#1871 = CARTESIAN_POINT('',(19.85,10.8,9.2));
#1872 = LINE('',#1873,#1874);
#1873 = CARTESIAN_POINT('',(19.15,10.8,9.2));
#1874 = VECTOR('',#1875,1.);
#1875 = DIRECTION('',(1.,0.,-0.));
#1876 = ORIENTED_EDGE('',*,*,#1510,.T.);
#1877 = ORIENTED_EDGE('',*,*,#1878,.T.);
#1878 = EDGE_CURVE('',#1513,#1879,#1881,.T.);
#1879 = VERTEX_POINT('',#1880);
#1880 = CARTESIAN_POINT('',(19.85,5.2,9.2));
#1881 = LINE('',#1882,#1883);
#1882 = CARTESIAN_POINT('',(19.15,5.2,9.2));
#1883 = VECTOR('',#1884,1.);
#1884 = DIRECTION('',(1.,0.,-0.));
#1885 = ORIENTED_EDGE('',*,*,#1886,.T.);
#1886 = EDGE_CURVE('',#1879,#1870,#1887,.T.);
#1887 = LINE('',#1888,#1889);
#1888 = CARTESIAN_POINT('',(19.85,5.2,9.2));
#1889 = VECTOR('',#1890,1.);
#1890 = DIRECTION('',(-0.,1.,0.));
#1891 = PLANE('',#1892);
#1892 = AXIS2_PLACEMENT_3D('',#1893,#1894,#1895);
#1893 = CARTESIAN_POINT('',(19.15,5.2,9.2));
#1894 = DIRECTION('',(0.,0.,1.));
#1895 = DIRECTION('',(1.,0.,-0.));
#1896 = ADVANCED_FACE('',(#1897),#1915,.F.);
#1897 = FACE_BOUND('',#1898,.F.);
#1898 = EDGE_LOOP('',(#1899,#1900,#1901,#1909));
#1899 = ORIENTED_EDGE('',*,*,#1869,.F.);
#1900 = ORIENTED_EDGE('',*,*,#1536,.T.);
#1901 = ORIENTED_EDGE('',*,*,#1902,.T.);
#1902 = EDGE_CURVE('',#1529,#1903,#1905,.T.);
#1903 = VERTEX_POINT('',#1904);
#1904 = CARTESIAN_POINT('',(19.85,10.8,10.2));
#1905 = LINE('',#1906,#1907);
#1906 = CARTESIAN_POINT('',(19.15,10.8,10.2));
#1907 = VECTOR('',#1908,1.);
#1908 = DIRECTION('',(1.,0.,-0.));
#1909 = ORIENTED_EDGE('',*,*,#1910,.F.);
#1910 = EDGE_CURVE('',#1870,#1903,#1911,.T.);
#1911 = LINE('',#1912,#1913);
#1912 = CARTESIAN_POINT('',(19.85,10.8,9.2));
#1913 = VECTOR('',#1914,1.);
#1914 = DIRECTION('',(0.,0.,1.));
#1915 = PLANE('',#1916);
#1916 = AXIS2_PLACEMENT_3D('',#1917,#1918,#1919);
#1917 = CARTESIAN_POINT('',(19.15,10.8,9.2));
#1918 = DIRECTION('',(-0.,1.,0.));
#1919 = DIRECTION('',(0.,0.,1.));
#1920 = ADVANCED_FACE('',(#1921),#1939,.F.);
#1921 = FACE_BOUND('',#1922,.F.);
#1922 = EDGE_LOOP('',(#1923,#1924,#1925,#1933));
#1923 = ORIENTED_EDGE('',*,*,#1902,.F.);
#1924 = ORIENTED_EDGE('',*,*,#1528,.T.);
#1925 = ORIENTED_EDGE('',*,*,#1926,.T.);
#1926 = EDGE_CURVE('',#1521,#1927,#1929,.T.);
#1927 = VERTEX_POINT('',#1928);
#1928 = CARTESIAN_POINT('',(19.85,5.2,10.2));
#1929 = LINE('',#1930,#1931);
#1930 = CARTESIAN_POINT('',(19.15,5.2,10.2));
#1931 = VECTOR('',#1932,1.);
#1932 = DIRECTION('',(1.,0.,-0.));
#1933 = ORIENTED_EDGE('',*,*,#1934,.T.);
#1934 = EDGE_CURVE('',#1927,#1903,#1935,.T.);
#1935 = LINE('',#1936,#1937);
#1936 = CARTESIAN_POINT('',(19.85,5.2,10.2));
#1937 = VECTOR('',#1938,1.);
#1938 = DIRECTION('',(-0.,1.,0.));
#1939 = PLANE('',#1940);
#1940 = AXIS2_PLACEMENT_3D('',#1941,#1942,#1943);
#1941 = CARTESIAN_POINT('',(19.15,5.2,10.2));
#1942 = DIRECTION('',(0.,0.,1.));
#1943 = DIRECTION('',(1.,0.,-0.));
#1944 = ADVANCED_FACE('',(#1945),#1956,.T.);
#1945 = FACE_BOUND('',#1946,.T.);
#1946 = EDGE_LOOP('',(#1947,#1948,#1949,#1950));
#1947 = ORIENTED_EDGE('',*,*,#1878,.F.);
#1948 = ORIENTED_EDGE('',*,*,#1520,.T.);
#1949 = ORIENTED_EDGE('',*,*,#1926,.T.);
#1950 = ORIENTED_EDGE('',*,*,#1951,.F.);
#1951 = EDGE_CURVE('',#1879,#1927,#1952,.T.);
#1952 = LINE('',#1953,#1954);
#1953 = CARTESIAN_POINT('',(19.85,5.2,9.2));
#1954 = VECTOR('',#1955,1.);
#1955 = DIRECTION('',(0.,0.,1.));
#1956 = PLANE('',#1957);
#1957 = AXIS2_PLACEMENT_3D('',#1958,#1959,#1960);
#1958 = CARTESIAN_POINT('',(19.15,5.2,9.2));
#1959 = DIRECTION('',(-0.,1.,0.));
#1960 = DIRECTION('',(0.,0.,1.));
#1961 = ADVANCED_FACE('',(#1962),#1987,.T.);
#1962 = FACE_BOUND('',#1963,.T.);
#1963 = EDGE_LOOP('',(#1964,#1972,#1973,#1981));
#1964 = ORIENTED_EDGE('',*,*,#1965,.F.);
#1965 = EDGE_CURVE('',#1545,#1966,#1968,.T.);
#1966 = VERTEX_POINT('',#1967);
#1967 = CARTESIAN_POINT('',(19.85,-5.2,9.2));
#1968 = LINE('',#1969,#1970);
#1969 = CARTESIAN_POINT('',(19.15,-5.2,9.2));
#1970 = VECTOR('',#1971,1.);
#1971 = DIRECTION('',(1.,0.,-0.));
#1972 = ORIENTED_EDGE('',*,*,#1544,.T.);
#1973 = ORIENTED_EDGE('',*,*,#1974,.T.);
#1974 = EDGE_CURVE('',#1547,#1975,#1977,.T.);
#1975 = VERTEX_POINT('',#1976);
#1976 = CARTESIAN_POINT('',(19.85,-10.8,9.2));
#1977 = LINE('',#1978,#1979);
#1978 = CARTESIAN_POINT('',(19.15,-10.8,9.2));
#1979 = VECTOR('',#1980,1.);
#1980 = DIRECTION('',(1.,0.,-0.));
#1981 = ORIENTED_EDGE('',*,*,#1982,.T.);
#1982 = EDGE_CURVE('',#1975,#1966,#1983,.T.);
#1983 = LINE('',#1984,#1985);
#1984 = CARTESIAN_POINT('',(19.85,-10.8,9.2));
#1985 = VECTOR('',#1986,1.);
#1986 = DIRECTION('',(-0.,1.,0.));
#1987 = PLANE('',#1988);
#1988 = AXIS2_PLACEMENT_3D('',#1989,#1990,#1991);
#1989 = CARTESIAN_POINT('',(19.15,-10.8,9.2));
#1990 = DIRECTION('',(0.,0.,1.));
#1991 = DIRECTION('',(1.,0.,-0.));
#1992 = ADVANCED_FACE('',(#1993),#2011,.F.);
#1993 = FACE_BOUND('',#1994,.F.);
#1994 = EDGE_LOOP('',(#1995,#1996,#1997,#2005));
#1995 = ORIENTED_EDGE('',*,*,#1965,.F.);
#1996 = ORIENTED_EDGE('',*,*,#1570,.T.);
#1997 = ORIENTED_EDGE('',*,*,#1998,.T.);
#1998 = EDGE_CURVE('',#1563,#1999,#2001,.T.);
#1999 = VERTEX_POINT('',#2000);
#2000 = CARTESIAN_POINT('',(19.85,-5.2,10.2));
#2001 = LINE('',#2002,#2003);
#2002 = CARTESIAN_POINT('',(19.15,-5.2,10.2));
#2003 = VECTOR('',#2004,1.);
#2004 = DIRECTION('',(1.,0.,-0.));
#2005 = ORIENTED_EDGE('',*,*,#2006,.F.);
#2006 = EDGE_CURVE('',#1966,#1999,#2007,.T.);
#2007 = LINE('',#2008,#2009);
#2008 = CARTESIAN_POINT('',(19.85,-5.2,9.2));
#2009 = VECTOR('',#2010,1.);
#2010 = DIRECTION('',(0.,0.,1.));
#2011 = PLANE('',#2012);
#2012 = AXIS2_PLACEMENT_3D('',#2013,#2014,#2015);
#2013 = CARTESIAN_POINT('',(19.15,-5.2,9.2));
#2014 = DIRECTION('',(-0.,1.,0.));
#2015 = DIRECTION('',(0.,0.,1.));
#2016 = ADVANCED_FACE('',(#2017),#2035,.T.);
#2017 = FACE_BOUND('',#2018,.T.);
#2018 = EDGE_LOOP('',(#2019,#2020,#2021,#2029));
#2019 = ORIENTED_EDGE('',*,*,#1974,.F.);
#2020 = ORIENTED_EDGE('',*,*,#1554,.T.);
#2021 = ORIENTED_EDGE('',*,*,#2022,.T.);
#2022 = EDGE_CURVE('',#1555,#2023,#2025,.T.);
#2023 = VERTEX_POINT('',#2024);
#2024 = CARTESIAN_POINT('',(19.85,-10.8,10.2));
#2025 = LINE('',#2026,#2027);
#2026 = CARTESIAN_POINT('',(19.15,-10.8,10.2));
#2027 = VECTOR('',#2028,1.);
#2028 = DIRECTION('',(1.,0.,-0.));
#2029 = ORIENTED_EDGE('',*,*,#2030,.F.);
#2030 = EDGE_CURVE('',#1975,#2023,#2031,.T.);
#2031 = LINE('',#2032,#2033);
#2032 = CARTESIAN_POINT('',(19.85,-10.8,9.2));
#2033 = VECTOR('',#2034,1.);
#2034 = DIRECTION('',(0.,0.,1.));
#2035 = PLANE('',#2036);
#2036 = AXIS2_PLACEMENT_3D('',#2037,#2038,#2039);
#2037 = CARTESIAN_POINT('',(19.15,-10.8,9.2));
#2038 = DIRECTION('',(-0.,1.,0.));
#2039 = DIRECTION('',(0.,0.,1.));
#2040 = ADVANCED_FACE('',(#2041),#2052,.F.);
#2041 = FACE_BOUND('',#2042,.F.);
#2042 = EDGE_LOOP('',(#2043,#2044,#2045,#2046));
#2043 = ORIENTED_EDGE('',*,*,#1998,.F.);
#2044 = ORIENTED_EDGE('',*,*,#1562,.T.);
#2045 = ORIENTED_EDGE('',*,*,#2022,.T.);
#2046 = ORIENTED_EDGE('',*,*,#2047,.T.);
#2047 = EDGE_CURVE('',#2023,#1999,#2048,.T.);
#2048 = LINE('',#2049,#2050);
#2049 = CARTESIAN_POINT('',(19.85,-10.8,10.2));
#2050 = VECTOR('',#2051,1.);
#2051 = DIRECTION('',(-0.,1.,0.));
#2052 = PLANE('',#2053);
#2053 = AXIS2_PLACEMENT_3D('',#2054,#2055,#2056);
#2054 = CARTESIAN_POINT('',(19.15,-10.8,10.2));
#2055 = DIRECTION('',(0.,0.,1.));
#2056 = DIRECTION('',(1.,0.,-0.));
#2057 = ADVANCED_FACE('',(#2058),#2064,.F.);
#2058 = FACE_BOUND('',#2059,.T.);
#2059 = EDGE_LOOP('',(#2060,#2061,#2062,#2063));
#2060 = ORIENTED_EDGE('',*,*,#1694,.F.);
#2061 = ORIENTED_EDGE('',*,*,#1718,.T.);
#2062 = ORIENTED_EDGE('',*,*,#1742,.T.);
#2063 = ORIENTED_EDGE('',*,*,#1759,.F.);
#2064 = PLANE('',#2065);
#2065 = AXIS2_PLACEMENT_3D('',#2066,#2067,#2068);
#2066 = CARTESIAN_POINT('',(-19.85,5.2,9.2));
#2067 = DIRECTION('',(-1.,-0.,-0.));
#2068 = DIRECTION('',(0.,0.,-1.));
#2069 = ADVANCED_FACE('',(#2070),#2076,.F.);
#2070 = FACE_BOUND('',#2071,.T.);
#2071 = EDGE_LOOP('',(#2072,#2073,#2074,#2075));
#2072 = ORIENTED_EDGE('',*,*,#1790,.F.);
#2073 = ORIENTED_EDGE('',*,*,#1838,.T.);
#2074 = ORIENTED_EDGE('',*,*,#1855,.T.);
#2075 = ORIENTED_EDGE('',*,*,#1814,.F.);
#2076 = PLANE('',#2077);
#2077 = AXIS2_PLACEMENT_3D('',#2078,#2079,#2080);
#2078 = CARTESIAN_POINT('',(-19.85,-10.8,9.2));
#2079 = DIRECTION('',(-1.,-0.,-0.));
#2080 = DIRECTION('',(0.,0.,-1.));
#2081 = ADVANCED_FACE('',(#2082),#2088,.F.);
#2082 = FACE_BOUND('',#2083,.F.);
#2083 = EDGE_LOOP('',(#2084,#2085,#2086,#2087));
#2084 = ORIENTED_EDGE('',*,*,#1951,.F.);
#2085 = ORIENTED_EDGE('',*,*,#1886,.T.);
#2086 = ORIENTED_EDGE('',*,*,#1910,.T.);
#2087 = ORIENTED_EDGE('',*,*,#1934,.F.);
#2088 = PLANE('',#2089);
#2089 = AXIS2_PLACEMENT_3D('',#2090,#2091,#2092);
#2090 = CARTESIAN_POINT('',(19.85,5.2,9.2));
#2091 = DIRECTION('',(1.,0.,-0.));
#2092 = DIRECTION('',(0.,0.,1.));
#2093 = ADVANCED_FACE('',(#2094),#2100,.F.);
#2094 = FACE_BOUND('',#2095,.F.);
#2095 = EDGE_LOOP('',(#2096,#2097,#2098,#2099));
#2096 = ORIENTED_EDGE('',*,*,#2030,.F.);
#2097 = ORIENTED_EDGE('',*,*,#1982,.T.);
#2098 = ORIENTED_EDGE('',*,*,#2006,.T.);
#2099 = ORIENTED_EDGE('',*,*,#2047,.F.);
#2100 = PLANE('',#2101);
#2101 = AXIS2_PLACEMENT_3D('',#2102,#2103,#2104);
#2102 = CARTESIAN_POINT('',(19.85,-10.8,9.2));
#2103 = DIRECTION('',(1.,0.,-0.));
#2104 = DIRECTION('',(0.,0.,1.));
#2105 = ( GEOMETRIC_REPRESENTATION_CONTEXT(3) 
GLOBAL_UNCERTAINTY_ASSIGNED_CONTEXT((#2109)) 
GLOBAL_UNIT_ASSIGNED_CONTEXT((#2106,#2107,#2108)) REPRESENTATION_CONTEXT
('Context #1','3D Context with UNIT and UNCERTAINTY') );
#2106 = ( LENGTH_UNIT() NAMED_UNIT(*) SI_UNIT(.MILLI.,.METRE.) );
#2107 = ( NAMED_UNIT(*) PLANE_ANGLE_UNIT() SI_UNIT($,.RADIAN.) );
#2108 = ( NAMED_UNIT(*) SI_UNIT($,.STERADIAN.) SOLID_ANGLE_UNIT() );
#2109 = UNCERTAINTY_MEASURE_WITH_UNIT(LENGTH_MEASURE(1.E-07),#2106,
  'distance_accuracy_value','confusion accuracy');
#2110 = PRODUCT_RELATED_PRODUCT_CATEGORY('part',$,(#7));
ENDSEC;
END-ISO-10303-21;
