ISO-10303-21;
HEADER;
FILE_DESCRIPTION(('FreeCAD Model'),'2;1');
FILE_NAME('Open CASCADE Shape Model','2026-09-18T09:02:51',('FreeCAD'),(
    'FreeCAD'),'Open CASCADE STEP processor 7.8','FreeCAD','Unknown');
FILE_SCHEMA(('AUTOMOTIVE_DESIGN { 1 0 10303 214 1 1 1 1 }'));
ENDSEC;
DATA;
#1 = APPLICATION_PROTOCOL_DEFINITION('international standard',
  'automotive_design',2000,#2);
#2 = APPLICATION_CONTEXT(
  'core data for automotive mechanical design processes');
#3 = SHAPE_DEFINITION_REPRESENTATION(#4,#10);
#4 = PRODUCT_DEFINITION_SHAPE('','',#5);
#5 = PRODUCT_DEFINITION('design','',#6,#9);
#6 = PRODUCT_DEFINITION_FORMATION('','',#7);
#7 = PRODUCT('Open CASCADE STEP translator 7.8 3',
  'Open CASCADE STEP translator 7.8 3','',(#8));
#8 = PRODUCT_CONTEXT('',#2,'mechanical');
#9 = PRODUCT_DEFINITION_CONTEXT('part definition',#2,'design');
#10 = ADVANCED_BREP_SHAPE_REPRESENTATION('',(#11,#15),#441);
#11 = AXIS2_PLACEMENT_3D('',#12,#13,#14);
#12 = CARTESIAN_POINT('',(0.,0.,0.));
#13 = DIRECTION('',(0.,0.,1.));
#14 = DIRECTION('',(1.,0.,-0.));
#15 = MANIFOLD_SOLID_BREP('',#16);
#16 = CLOSED_SHELL('',(#17,#59,#159,#183,#276,#293,#310,#327,#344,#361,
    #373,#395,#412,#429));
#17 = ADVANCED_FACE('',(#18),#54,.T.);
#18 = FACE_BOUND('',#19,.T.);
#19 = EDGE_LOOP('',(#20,#31,#39,#48));
#20 = ORIENTED_EDGE('',*,*,#21,.F.);
#21 = EDGE_CURVE('',#22,#24,#26,.T.);
#22 = VERTEX_POINT('',#23);
#23 = CARTESIAN_POINT('',(-40.,-143.4,-21.));
#24 = VERTEX_POINT('',#25);
#25 = CARTESIAN_POINT('',(-35.,-143.4,-26.));
#26 = CIRCLE('',#27,5.);
#27 = AXIS2_PLACEMENT_3D('',#28,#29,#30);
#28 = CARTESIAN_POINT('',(-35.,-143.4,-21.));
#29 = DIRECTION('',(0.,-1.,1.110223024625E-16));
#30 = DIRECTION('',(1.,0.,0.));
#31 = ORIENTED_EDGE('',*,*,#32,.F.);
#32 = EDGE_CURVE('',#33,#22,#35,.T.);
#33 = VERTEX_POINT('',#34);
#34 = CARTESIAN_POINT('',(-40.,-137.4,-21.));
#35 = LINE('',#36,#37);
#36 = CARTESIAN_POINT('',(-40.,-137.4,-21.));
#37 = VECTOR('',#38,1.);
#38 = DIRECTION('',(0.,-1.,1.110223024625E-16));
#39 = ORIENTED_EDGE('',*,*,#40,.T.);
#40 = EDGE_CURVE('',#33,#41,#43,.T.);
#41 = VERTEX_POINT('',#42);
#42 = CARTESIAN_POINT('',(-35.,-137.4,-26.));
#43 = CIRCLE('',#44,5.);
#44 = AXIS2_PLACEMENT_3D('',#45,#46,#47);
#45 = CARTESIAN_POINT('',(-35.,-137.4,-21.));
#46 = DIRECTION('',(0.,-1.,1.110223024625E-16));
#47 = DIRECTION('',(1.,0.,0.));
#48 = ORIENTED_EDGE('',*,*,#49,.T.);
#49 = EDGE_CURVE('',#41,#24,#50,.T.);
#50 = LINE('',#51,#52);
#51 = CARTESIAN_POINT('',(-35.,-137.4,-26.));
#52 = VECTOR('',#53,1.);
#53 = DIRECTION('',(0.,-1.,1.110223024625E-16));
#54 = CYLINDRICAL_SURFACE('',#55,5.);
#55 = AXIS2_PLACEMENT_3D('',#56,#57,#58);
#56 = CARTESIAN_POINT('',(-35.,-137.4,-21.));
#57 = DIRECTION('',(0.,-1.,1.110223024625E-16));
#58 = DIRECTION('',(1.,0.,0.));
#59 = ADVANCED_FACE('',(#60,#120),#154,.T.);
#60 = FACE_BOUND('',#61,.T.);
#61 = EDGE_LOOP('',(#62,#63,#71,#80,#88,#97,#105,#114));
#62 = ORIENTED_EDGE('',*,*,#21,.T.);
#63 = ORIENTED_EDGE('',*,*,#64,.T.);
#64 = EDGE_CURVE('',#24,#65,#67,.T.);
#65 = VERTEX_POINT('',#66);
#66 = CARTESIAN_POINT('',(35.,-143.4,-26.));
#67 = LINE('',#68,#69);
#68 = CARTESIAN_POINT('',(-35.,-143.4,-26.));
#69 = VECTOR('',#70,1.);
#70 = DIRECTION('',(1.,0.,0.));
#71 = ORIENTED_EDGE('',*,*,#72,.T.);
#72 = EDGE_CURVE('',#65,#73,#75,.T.);
#73 = VERTEX_POINT('',#74);
#74 = CARTESIAN_POINT('',(40.,-143.4,-21.));
#75 = CIRCLE('',#76,5.);
#76 = AXIS2_PLACEMENT_3D('',#77,#78,#79);
#77 = CARTESIAN_POINT('',(35.,-143.4,-21.));
#78 = DIRECTION('',(0.,-1.,1.110223024625E-16));
#79 = DIRECTION('',(1.,0.,0.));
#80 = ORIENTED_EDGE('',*,*,#81,.T.);
#81 = EDGE_CURVE('',#73,#82,#84,.T.);
#82 = VERTEX_POINT('',#83);
#83 = CARTESIAN_POINT('',(40.,-143.4,54.));
#84 = LINE('',#85,#86);
#85 = CARTESIAN_POINT('',(40.,-143.4,-21.));
#86 = VECTOR('',#87,1.);
#87 = DIRECTION('',(0.,1.110223024625E-16,1.));
#88 = ORIENTED_EDGE('',*,*,#89,.T.);
#89 = EDGE_CURVE('',#82,#90,#92,.T.);
#90 = VERTEX_POINT('',#91);
#91 = CARTESIAN_POINT('',(35.,-143.4,59.));
#92 = CIRCLE('',#93,5.);
#93 = AXIS2_PLACEMENT_3D('',#94,#95,#96);
#94 = CARTESIAN_POINT('',(35.,-143.4,54.));
#95 = DIRECTION('',(0.,-1.,1.110223024625E-16));
#96 = DIRECTION('',(1.,0.,0.));
#97 = ORIENTED_EDGE('',*,*,#98,.F.);
#98 = EDGE_CURVE('',#99,#90,#101,.T.);
#99 = VERTEX_POINT('',#100);
#100 = CARTESIAN_POINT('',(-35.,-143.4,59.));
#101 = LINE('',#102,#103);
#102 = CARTESIAN_POINT('',(-35.,-143.4,59.));
#103 = VECTOR('',#104,1.);
#104 = DIRECTION('',(1.,0.,0.));
#105 = ORIENTED_EDGE('',*,*,#106,.T.);
#106 = EDGE_CURVE('',#99,#107,#109,.T.);
#107 = VERTEX_POINT('',#108);
#108 = CARTESIAN_POINT('',(-40.,-143.4,54.));
#109 = CIRCLE('',#110,5.);
#110 = AXIS2_PLACEMENT_3D('',#111,#112,#113);
#111 = CARTESIAN_POINT('',(-35.,-143.4,54.));
#112 = DIRECTION('',(0.,-1.,1.110223024625E-16));
#113 = DIRECTION('',(1.,0.,0.));
#114 = ORIENTED_EDGE('',*,*,#115,.F.);
#115 = EDGE_CURVE('',#22,#107,#116,.T.);
#116 = LINE('',#117,#118);
#117 = CARTESIAN_POINT('',(-40.,-143.4,-21.));
#118 = VECTOR('',#119,1.);
#119 = DIRECTION('',(0.,1.110223024625E-16,1.));
#120 = FACE_BOUND('',#121,.T.);
#121 = EDGE_LOOP('',(#122,#132,#140,#148));
#122 = ORIENTED_EDGE('',*,*,#123,.T.);
#123 = EDGE_CURVE('',#124,#126,#128,.T.);
#124 = VERTEX_POINT('',#125);
#125 = CARTESIAN_POINT('',(9.15,-143.4,-14.15));
#126 = VERTEX_POINT('',#127);
#127 = CARTESIAN_POINT('',(-9.15,-143.4,-14.15));
#128 = LINE('',#129,#130);
#129 = CARTESIAN_POINT('',(-4.575,-143.4,-14.15));
#130 = VECTOR('',#131,1.);
#131 = DIRECTION('',(-1.,-0.,0.));
#132 = ORIENTED_EDGE('',*,*,#133,.T.);
#133 = EDGE_CURVE('',#126,#134,#136,.T.);
#134 = VERTEX_POINT('',#135);
#135 = CARTESIAN_POINT('',(-9.15,-143.4,-7.85));
#136 = LINE('',#137,#138);
#137 = CARTESIAN_POINT('',(-9.15,-143.4,1.175));
#138 = VECTOR('',#139,1.);
#139 = DIRECTION('',(0.,1.110223024625E-16,1.));
#140 = ORIENTED_EDGE('',*,*,#141,.F.);
#141 = EDGE_CURVE('',#142,#134,#144,.T.);
#142 = VERTEX_POINT('',#143);
#143 = CARTESIAN_POINT('',(9.15,-143.4,-7.85));
#144 = LINE('',#145,#146);
#145 = CARTESIAN_POINT('',(-4.575,-143.4,-7.85));
#146 = VECTOR('',#147,1.);
#147 = DIRECTION('',(-1.,-0.,0.));
#148 = ORIENTED_EDGE('',*,*,#149,.F.);
#149 = EDGE_CURVE('',#124,#142,#150,.T.);
#150 = LINE('',#151,#152);
#151 = CARTESIAN_POINT('',(9.15,-143.4,1.175));
#152 = VECTOR('',#153,1.);
#153 = DIRECTION('',(0.,1.110223024625E-16,1.));
#154 = PLANE('',#155);
#155 = AXIS2_PLACEMENT_3D('',#156,#157,#158);
#156 = CARTESIAN_POINT('',(0.,-143.4,16.5));
#157 = DIRECTION('',(0.,-1.,1.110223024625E-16));
#158 = DIRECTION('',(1.,0.,0.));
#159 = ADVANCED_FACE('',(#160),#178,.F.);
#160 = FACE_BOUND('',#161,.F.);
#161 = EDGE_LOOP('',(#162,#170,#171,#172));
#162 = ORIENTED_EDGE('',*,*,#163,.F.);
#163 = EDGE_CURVE('',#41,#164,#166,.T.);
#164 = VERTEX_POINT('',#165);
#165 = CARTESIAN_POINT('',(35.,-137.4,-26.));
#166 = LINE('',#167,#168);
#167 = CARTESIAN_POINT('',(-35.,-137.4,-26.));
#168 = VECTOR('',#169,1.);
#169 = DIRECTION('',(1.,0.,0.));
#170 = ORIENTED_EDGE('',*,*,#49,.T.);
#171 = ORIENTED_EDGE('',*,*,#64,.T.);
#172 = ORIENTED_EDGE('',*,*,#173,.F.);
#173 = EDGE_CURVE('',#164,#65,#174,.T.);
#174 = LINE('',#175,#176);
#175 = CARTESIAN_POINT('',(35.,-137.4,-26.));
#176 = VECTOR('',#177,1.);
#177 = DIRECTION('',(0.,-1.,1.110223024625E-16));
#178 = PLANE('',#179);
#179 = AXIS2_PLACEMENT_3D('',#180,#181,#182);
#180 = CARTESIAN_POINT('',(-35.,-137.4,-26.));
#181 = DIRECTION('',(0.,1.110223024625E-16,1.));
#182 = DIRECTION('',(0.,-1.,1.110223024625E-16));
#183 = ADVANCED_FACE('',(#184,#237),#271,.T.);
#184 = FACE_BOUND('',#185,.T.);
#185 = EDGE_LOOP('',(#186,#187,#195,#204,#212,#221,#229,#236));
#186 = ORIENTED_EDGE('',*,*,#40,.F.);
#187 = ORIENTED_EDGE('',*,*,#188,.T.);
#188 = EDGE_CURVE('',#33,#189,#191,.T.);
#189 = VERTEX_POINT('',#190);
#190 = CARTESIAN_POINT('',(-40.,-137.4,54.));
#191 = LINE('',#192,#193);
#192 = CARTESIAN_POINT('',(-40.,-137.4,-21.));
#193 = VECTOR('',#194,1.);
#194 = DIRECTION('',(0.,1.110223024625E-16,1.));
#195 = ORIENTED_EDGE('',*,*,#196,.F.);
#196 = EDGE_CURVE('',#197,#189,#199,.T.);
#197 = VERTEX_POINT('',#198);
#198 = CARTESIAN_POINT('',(-35.,-137.4,59.));
#199 = CIRCLE('',#200,5.);
#200 = AXIS2_PLACEMENT_3D('',#201,#202,#203);
#201 = CARTESIAN_POINT('',(-35.,-137.4,54.));
#202 = DIRECTION('',(0.,-1.,1.110223024625E-16));
#203 = DIRECTION('',(1.,0.,0.));
#204 = ORIENTED_EDGE('',*,*,#205,.T.);
#205 = EDGE_CURVE('',#197,#206,#208,.T.);
#206 = VERTEX_POINT('',#207);
#207 = CARTESIAN_POINT('',(35.,-137.4,59.));
#208 = LINE('',#209,#210);
#209 = CARTESIAN_POINT('',(-35.,-137.4,59.));
#210 = VECTOR('',#211,1.);
#211 = DIRECTION('',(1.,0.,0.));
#212 = ORIENTED_EDGE('',*,*,#213,.F.);
#213 = EDGE_CURVE('',#214,#206,#216,.T.);
#214 = VERTEX_POINT('',#215);
#215 = CARTESIAN_POINT('',(40.,-137.4,54.));
#216 = CIRCLE('',#217,5.);
#217 = AXIS2_PLACEMENT_3D('',#218,#219,#220);
#218 = CARTESIAN_POINT('',(35.,-137.4,54.));
#219 = DIRECTION('',(0.,-1.,1.110223024625E-16));
#220 = DIRECTION('',(1.,0.,0.));
#221 = ORIENTED_EDGE('',*,*,#222,.F.);
#222 = EDGE_CURVE('',#223,#214,#225,.T.);
#223 = VERTEX_POINT('',#224);
#224 = CARTESIAN_POINT('',(40.,-137.4,-21.));
#225 = LINE('',#226,#227);
#226 = CARTESIAN_POINT('',(40.,-137.4,-21.));
#227 = VECTOR('',#228,1.);
#228 = DIRECTION('',(0.,1.110223024625E-16,1.));
#229 = ORIENTED_EDGE('',*,*,#230,.F.);
#230 = EDGE_CURVE('',#164,#223,#231,.T.);
#231 = CIRCLE('',#232,5.);
#232 = AXIS2_PLACEMENT_3D('',#233,#234,#235);
#233 = CARTESIAN_POINT('',(35.,-137.4,-21.));
#234 = DIRECTION('',(0.,-1.,1.110223024625E-16));
#235 = DIRECTION('',(1.,0.,0.));
#236 = ORIENTED_EDGE('',*,*,#163,.F.);
#237 = FACE_BOUND('',#238,.T.);
#238 = EDGE_LOOP('',(#239,#249,#257,#265));
#239 = ORIENTED_EDGE('',*,*,#240,.F.);
#240 = EDGE_CURVE('',#241,#243,#245,.T.);
#241 = VERTEX_POINT('',#242);
#242 = CARTESIAN_POINT('',(-9.15,-137.4,-7.85));
#243 = VERTEX_POINT('',#244);
#244 = CARTESIAN_POINT('',(9.15,-137.4,-7.85));
#245 = LINE('',#246,#247);
#246 = CARTESIAN_POINT('',(-4.575,-137.4,-7.85));
#247 = VECTOR('',#248,1.);
#248 = DIRECTION('',(1.,0.,0.));
#249 = ORIENTED_EDGE('',*,*,#250,.T.);
#250 = EDGE_CURVE('',#241,#251,#253,.T.);
#251 = VERTEX_POINT('',#252);
#252 = CARTESIAN_POINT('',(-9.15,-137.4,-14.15));
#253 = LINE('',#254,#255);
#254 = CARTESIAN_POINT('',(-9.15,-137.4,1.175));
#255 = VECTOR('',#256,1.);
#256 = DIRECTION('',(0.,-1.110223024625E-16,-1.));
#257 = ORIENTED_EDGE('',*,*,#258,.T.);
#258 = EDGE_CURVE('',#251,#259,#261,.T.);
#259 = VERTEX_POINT('',#260);
#260 = CARTESIAN_POINT('',(9.15,-137.4,-14.15));
#261 = LINE('',#262,#263);
#262 = CARTESIAN_POINT('',(-4.575,-137.4,-14.15));
#263 = VECTOR('',#264,1.);
#264 = DIRECTION('',(1.,0.,0.));
#265 = ORIENTED_EDGE('',*,*,#266,.F.);
#266 = EDGE_CURVE('',#243,#259,#267,.T.);
#267 = LINE('',#268,#269);
#268 = CARTESIAN_POINT('',(9.15,-137.4,1.175));
#269 = VECTOR('',#270,1.);
#270 = DIRECTION('',(0.,-1.110223024625E-16,-1.));
#271 = PLANE('',#272);
#272 = AXIS2_PLACEMENT_3D('',#273,#274,#275);
#273 = CARTESIAN_POINT('',(-7.082006158204E-16,-137.4,16.5));
#274 = DIRECTION('',(-0.,1.,-1.110223024625E-16));
#275 = DIRECTION('',(-1.,0.,0.));
#276 = ADVANCED_FACE('',(#277),#288,.F.);
#277 = FACE_BOUND('',#278,.F.);
#278 = EDGE_LOOP('',(#279,#280,#281,#287));
#279 = ORIENTED_EDGE('',*,*,#32,.F.);
#280 = ORIENTED_EDGE('',*,*,#188,.T.);
#281 = ORIENTED_EDGE('',*,*,#282,.T.);
#282 = EDGE_CURVE('',#189,#107,#283,.T.);
#283 = LINE('',#284,#285);
#284 = CARTESIAN_POINT('',(-40.,-137.4,54.));
#285 = VECTOR('',#286,1.);
#286 = DIRECTION('',(0.,-1.,1.110223024625E-16));
#287 = ORIENTED_EDGE('',*,*,#115,.F.);
#288 = PLANE('',#289);
#289 = AXIS2_PLACEMENT_3D('',#290,#291,#292);
#290 = CARTESIAN_POINT('',(-40.,-137.4,-21.));
#291 = DIRECTION('',(1.,0.,0.));
#292 = DIRECTION('',(0.,-1.,1.110223024625E-16));
#293 = ADVANCED_FACE('',(#294),#305,.T.);
#294 = FACE_BOUND('',#295,.T.);
#295 = EDGE_LOOP('',(#296,#297,#303,#304));
#296 = ORIENTED_EDGE('',*,*,#106,.F.);
#297 = ORIENTED_EDGE('',*,*,#298,.F.);
#298 = EDGE_CURVE('',#197,#99,#299,.T.);
#299 = LINE('',#300,#301);
#300 = CARTESIAN_POINT('',(-35.,-137.4,59.));
#301 = VECTOR('',#302,1.);
#302 = DIRECTION('',(0.,-1.,1.110223024625E-16));
#303 = ORIENTED_EDGE('',*,*,#196,.T.);
#304 = ORIENTED_EDGE('',*,*,#282,.T.);
#305 = CYLINDRICAL_SURFACE('',#306,5.);
#306 = AXIS2_PLACEMENT_3D('',#307,#308,#309);
#307 = CARTESIAN_POINT('',(-35.,-137.4,54.));
#308 = DIRECTION('',(0.,-1.,1.110223024625E-16));
#309 = DIRECTION('',(1.,0.,0.));
#310 = ADVANCED_FACE('',(#311),#322,.T.);
#311 = FACE_BOUND('',#312,.T.);
#312 = EDGE_LOOP('',(#313,#314,#315,#316));
#313 = ORIENTED_EDGE('',*,*,#72,.F.);
#314 = ORIENTED_EDGE('',*,*,#173,.F.);
#315 = ORIENTED_EDGE('',*,*,#230,.T.);
#316 = ORIENTED_EDGE('',*,*,#317,.T.);
#317 = EDGE_CURVE('',#223,#73,#318,.T.);
#318 = LINE('',#319,#320);
#319 = CARTESIAN_POINT('',(40.,-137.4,-21.));
#320 = VECTOR('',#321,1.);
#321 = DIRECTION('',(0.,-1.,1.110223024625E-16));
#322 = CYLINDRICAL_SURFACE('',#323,5.);
#323 = AXIS2_PLACEMENT_3D('',#324,#325,#326);
#324 = CARTESIAN_POINT('',(35.,-137.4,-21.));
#325 = DIRECTION('',(0.,-1.,1.110223024625E-16));
#326 = DIRECTION('',(1.,0.,0.));
#327 = ADVANCED_FACE('',(#328),#339,.T.);
#328 = FACE_BOUND('',#329,.T.);
#329 = EDGE_LOOP('',(#330,#331,#332,#333));
#330 = ORIENTED_EDGE('',*,*,#205,.F.);
#331 = ORIENTED_EDGE('',*,*,#298,.T.);
#332 = ORIENTED_EDGE('',*,*,#98,.T.);
#333 = ORIENTED_EDGE('',*,*,#334,.F.);
#334 = EDGE_CURVE('',#206,#90,#335,.T.);
#335 = LINE('',#336,#337);
#336 = CARTESIAN_POINT('',(35.,-137.4,59.));
#337 = VECTOR('',#338,1.);
#338 = DIRECTION('',(0.,-1.,1.110223024625E-16));
#339 = PLANE('',#340);
#340 = AXIS2_PLACEMENT_3D('',#341,#342,#343);
#341 = CARTESIAN_POINT('',(-35.,-137.4,59.));
#342 = DIRECTION('',(0.,1.110223024625E-16,1.));
#343 = DIRECTION('',(0.,-1.,1.110223024625E-16));
#344 = ADVANCED_FACE('',(#345),#356,.T.);
#345 = FACE_BOUND('',#346,.T.);
#346 = EDGE_LOOP('',(#347,#348,#349,#355));
#347 = ORIENTED_EDGE('',*,*,#317,.F.);
#348 = ORIENTED_EDGE('',*,*,#222,.T.);
#349 = ORIENTED_EDGE('',*,*,#350,.T.);
#350 = EDGE_CURVE('',#214,#82,#351,.T.);
#351 = LINE('',#352,#353);
#352 = CARTESIAN_POINT('',(40.,-137.4,54.));
#353 = VECTOR('',#354,1.);
#354 = DIRECTION('',(0.,-1.,1.110223024625E-16));
#355 = ORIENTED_EDGE('',*,*,#81,.F.);
#356 = PLANE('',#357);
#357 = AXIS2_PLACEMENT_3D('',#358,#359,#360);
#358 = CARTESIAN_POINT('',(40.,-137.4,-21.));
#359 = DIRECTION('',(1.,0.,0.));
#360 = DIRECTION('',(0.,-1.,1.110223024625E-16));
#361 = ADVANCED_FACE('',(#362),#368,.T.);
#362 = FACE_BOUND('',#363,.T.);
#363 = EDGE_LOOP('',(#364,#365,#366,#367));
#364 = ORIENTED_EDGE('',*,*,#89,.F.);
#365 = ORIENTED_EDGE('',*,*,#350,.F.);
#366 = ORIENTED_EDGE('',*,*,#213,.T.);
#367 = ORIENTED_EDGE('',*,*,#334,.T.);
#368 = CYLINDRICAL_SURFACE('',#369,5.);
#369 = AXIS2_PLACEMENT_3D('',#370,#371,#372);
#370 = CARTESIAN_POINT('',(35.,-137.4,54.));
#371 = DIRECTION('',(0.,-1.,1.110223024625E-16));
#372 = DIRECTION('',(1.,0.,0.));
#373 = ADVANCED_FACE('',(#374),#390,.T.);
#374 = FACE_BOUND('',#375,.T.);
#375 = EDGE_LOOP('',(#376,#382,#383,#389));
#376 = ORIENTED_EDGE('',*,*,#377,.F.);
#377 = EDGE_CURVE('',#259,#124,#378,.T.);
#378 = LINE('',#379,#380);
#379 = CARTESIAN_POINT('',(9.15,-137.3,-14.15));
#380 = VECTOR('',#381,1.);
#381 = DIRECTION('',(0.,-1.,1.110223024625E-16));
#382 = ORIENTED_EDGE('',*,*,#258,.F.);
#383 = ORIENTED_EDGE('',*,*,#384,.T.);
#384 = EDGE_CURVE('',#251,#126,#385,.T.);
#385 = LINE('',#386,#387);
#386 = CARTESIAN_POINT('',(-9.15,-137.3,-14.15));
#387 = VECTOR('',#388,1.);
#388 = DIRECTION('',(0.,-1.,1.110223024625E-16));
#389 = ORIENTED_EDGE('',*,*,#123,.F.);
#390 = PLANE('',#391);
#391 = AXIS2_PLACEMENT_3D('',#392,#393,#394);
#392 = CARTESIAN_POINT('',(-9.15,-137.3,-14.15));
#393 = DIRECTION('',(0.,1.110223024625E-16,1.));
#394 = DIRECTION('',(0.,-1.,1.110223024625E-16));
#395 = ADVANCED_FACE('',(#396),#407,.F.);
#396 = FACE_BOUND('',#397,.F.);
#397 = EDGE_LOOP('',(#398,#399,#400,#406));
#398 = ORIENTED_EDGE('',*,*,#377,.F.);
#399 = ORIENTED_EDGE('',*,*,#266,.F.);
#400 = ORIENTED_EDGE('',*,*,#401,.T.);
#401 = EDGE_CURVE('',#243,#142,#402,.T.);
#402 = LINE('',#403,#404);
#403 = CARTESIAN_POINT('',(9.15,-137.3,-7.85));
#404 = VECTOR('',#405,1.);
#405 = DIRECTION('',(0.,-1.,1.110223024625E-16));
#406 = ORIENTED_EDGE('',*,*,#149,.F.);
#407 = PLANE('',#408);
#408 = AXIS2_PLACEMENT_3D('',#409,#410,#411);
#409 = CARTESIAN_POINT('',(9.15,-137.3,-14.15));
#410 = DIRECTION('',(1.,0.,0.));
#411 = DIRECTION('',(0.,-1.,1.110223024625E-16));
#412 = ADVANCED_FACE('',(#413),#424,.F.);
#413 = FACE_BOUND('',#414,.F.);
#414 = EDGE_LOOP('',(#415,#416,#417,#423));
#415 = ORIENTED_EDGE('',*,*,#401,.F.);
#416 = ORIENTED_EDGE('',*,*,#240,.F.);
#417 = ORIENTED_EDGE('',*,*,#418,.T.);
#418 = EDGE_CURVE('',#241,#134,#419,.T.);
#419 = LINE('',#420,#421);
#420 = CARTESIAN_POINT('',(-9.15,-137.3,-7.85));
#421 = VECTOR('',#422,1.);
#422 = DIRECTION('',(0.,-1.,1.110223024625E-16));
#423 = ORIENTED_EDGE('',*,*,#141,.F.);
#424 = PLANE('',#425);
#425 = AXIS2_PLACEMENT_3D('',#426,#427,#428);
#426 = CARTESIAN_POINT('',(-9.15,-137.3,-7.85));
#427 = DIRECTION('',(0.,1.110223024625E-16,1.));
#428 = DIRECTION('',(0.,-1.,1.110223024625E-16));
#429 = ADVANCED_FACE('',(#430),#436,.T.);
#430 = FACE_BOUND('',#431,.T.);
#431 = EDGE_LOOP('',(#432,#433,#434,#435));
#432 = ORIENTED_EDGE('',*,*,#384,.F.);
#433 = ORIENTED_EDGE('',*,*,#250,.F.);
#434 = ORIENTED_EDGE('',*,*,#418,.T.);
#435 = ORIENTED_EDGE('',*,*,#133,.F.);
#436 = PLANE('',#437);
#437 = AXIS2_PLACEMENT_3D('',#438,#439,#440);
#438 = CARTESIAN_POINT('',(-9.15,-137.3,-14.15));
#439 = DIRECTION('',(1.,0.,0.));
#440 = DIRECTION('',(0.,-1.,1.110223024625E-16));
#441 = ( GEOMETRIC_REPRESENTATION_CONTEXT(3) 
GLOBAL_UNCERTAINTY_ASSIGNED_CONTEXT((#445)) GLOBAL_UNIT_ASSIGNED_CONTEXT
((#442,#443,#444)) REPRESENTATION_CONTEXT('Context #1',
  '3D Context with UNIT and UNCERTAINTY') );
#442 = ( LENGTH_UNIT() NAMED_UNIT(*) SI_UNIT(.MILLI.,.METRE.) );
#443 = ( NAMED_UNIT(*) PLANE_ANGLE_UNIT() SI_UNIT($,.RADIAN.) );
#444 = ( NAMED_UNIT(*) SI_UNIT($,.STERADIAN.) SOLID_ANGLE_UNIT() );
#445 = UNCERTAINTY_MEASURE_WITH_UNIT(LENGTH_MEASURE(1.E-07),#442,
  'distance_accuracy_value','confusion accuracy');
#446 = PRODUCT_RELATED_PRODUCT_CATEGORY('part',$,(#7));
ENDSEC;
END-ISO-10303-21;
