M48
; DRILL file {KiCad 9.0.9.1-unknown-202605141413~ce707d0a6c~ubuntu24.04.1} date 2026-09-02T19:41:56+0000
; FORMAT={-:-/ absolute / metric / decimal}
; #@! TF.CreationDate,2026-09-02T19:41:56+00:00
; #@! TF.GenerationSoftware,Kicad,Pcbnew,9.0.9.1-unknown-202605141413~ce707d0a6c~ubuntu24.04.1
; #@! TF.FileFunction,Plated,1,2,PTH
FMAT,2
METRIC
; #@! TA.AperFunction,Plated,PTH,ViaDrill
T1C0.300
; #@! TA.AperFunction,Plated,PTH,ComponentDrill
T2C0.600
; #@! TA.AperFunction,Plated,PTH,ComponentDrill
T3C0.750
; #@! TA.AperFunction,Plated,PTH,ComponentDrill
T4C1.000
%
G90
G05
T1
X39.0Y-28.0
X45.68Y-20.015
X47.6Y-1.12
X51.665Y-33.86
X52.4Y-1.12
X58.6Y-13.5
X63.596Y-25.404
T3
X66.0Y-33.0
X66.0Y-35.0
T4
X8.57Y-20.85
X8.57Y-23.39
X8.57Y-25.93
X8.57Y-28.47
X8.57Y-31.01
X8.57Y-33.55
X8.57Y-36.09
X8.57Y-38.63
X8.57Y-41.17
X8.57Y-43.71
X31.43Y-20.85
X31.43Y-23.39
X31.43Y-25.93
X31.43Y-28.47
X31.43Y-31.01
X31.43Y-33.55
X31.43Y-36.09
X31.43Y-38.63
X31.43Y-41.17
X31.43Y-43.71
T2
X45.68Y-1.145G85X45.68Y-2.245
G05
X45.68Y-5.475G85X45.68Y-6.275
G05
X54.32Y-1.145G85X54.32Y-2.245
G05
X54.32Y-5.475G85X54.32Y-6.275
G05
M30
