%TF.GenerationSoftware,KiCad,Pcbnew,9.0.9.1-unknown-202605141413~ce707d0a6c~ubuntu24.04.1*%
%TF.CreationDate,2026-09-02T19:41:56+00:00*%
%TF.ProjectId,agentping-carrier,6167656e-7470-4696-9e67-2d6361727269,rev?*%
%TF.SameCoordinates,Original*%
%TF.FileFunction,Paste,Top*%
%TF.FilePolarity,Positive*%
%FSLAX46Y46*%
G04 Gerber Fmt 4.6, Leading zero omitted, Abs format (unit mm)*
G04 Created by KiCad (PCBNEW 9.0.9.1-unknown-202605141413~ce707d0a6c~ubuntu24.04.1) date 2026-09-02 19:41:56*
%MOMM*%
%LPD*%
G01*
G04 APERTURE LIST*
G04 Aperture macros list*
%AMRoundRect*
0 Rectangle with rounded corners*
0 $1 Rounding radius*
0 $2 $3 $4 $5 $6 $7 $8 $9 X,Y pos of 4 corners*
0 Add a 4 corners polygon primitive as box body*
4,1,4,$2,$3,$4,$5,$6,$7,$8,$9,$2,$3,0*
0 Add four circle primitives for the rounded corners*
1,1,$1+$1,$2,$3*
1,1,$1+$1,$4,$5*
1,1,$1+$1,$6,$7*
1,1,$1+$1,$8,$9*
0 Add four rect primitives between the rounded corners*
20,1,$1+$1,$2,$3,$4,$5,0*
20,1,$1+$1,$4,$5,$6,$7,0*
20,1,$1+$1,$6,$7,$8,$9,0*
20,1,$1+$1,$8,$9,$2,$3,0*%
G04 Aperture macros list end*
%ADD10RoundRect,0.250000X-0.312500X-1.450000X0.312500X-1.450000X0.312500X1.450000X-0.312500X1.450000X0*%
%ADD11RoundRect,0.200000X0.275000X-0.200000X0.275000X0.200000X-0.275000X0.200000X-0.275000X-0.200000X0*%
%ADD12RoundRect,0.200000X-0.200000X-0.275000X0.200000X-0.275000X0.200000X0.275000X-0.200000X0.275000X0*%
%ADD13RoundRect,0.225000X0.250000X-0.225000X0.250000X0.225000X-0.250000X0.225000X-0.250000X-0.225000X0*%
%ADD14RoundRect,0.225000X0.375000X-0.225000X0.375000X0.225000X-0.375000X0.225000X-0.375000X-0.225000X0*%
%ADD15RoundRect,0.225000X-0.225000X-0.250000X0.225000X-0.250000X0.225000X0.250000X-0.225000X0.250000X0*%
%ADD16RoundRect,0.150000X-0.587500X-0.150000X0.587500X-0.150000X0.587500X0.150000X-0.587500X0.150000X0*%
%ADD17RoundRect,0.250000X-1.000000X-0.650000X1.000000X-0.650000X1.000000X0.650000X-1.000000X0.650000X0*%
%ADD18RoundRect,0.150000X-0.150000X-0.425000X0.150000X-0.425000X0.150000X0.425000X-0.150000X0.425000X0*%
%ADD19RoundRect,0.075000X-0.075000X-0.500000X0.075000X-0.500000X0.075000X0.500000X-0.075000X0.500000X0*%
%ADD20O,1.000000X2.100000*%
%ADD21O,1.000000X1.800000*%
%ADD22RoundRect,0.250000X-0.300000X-0.300000X0.300000X-0.300000X0.300000X0.300000X-0.300000X0.300000X0*%
G04 APERTURE END LIST*
D10*
%TO.C,F1*%
X59862500Y-19500000D03*
X64137500Y-19500000D03*
%TD*%
D11*
%TO.C,R4*%
X47000000Y-35825000D03*
X47000000Y-34175000D03*
%TD*%
D12*
%TO.C,R3*%
X41175000Y-31000000D03*
X42825000Y-31000000D03*
%TD*%
D13*
%TO.C,C2*%
X59000000Y-38775000D03*
X59000000Y-37225000D03*
%TD*%
D14*
%TO.C,D3*%
X58000000Y-33650000D03*
X58000000Y-30350000D03*
%TD*%
D15*
%TO.C,C1*%
X47225000Y-21000000D03*
X48775000Y-21000000D03*
%TD*%
D12*
%TO.C,R1*%
X42175000Y-11500000D03*
X43825000Y-11500000D03*
%TD*%
%TO.C,R2*%
X48175000Y-11500000D03*
X49825000Y-11500000D03*
%TD*%
D16*
%TO.C,Q1*%
X51062500Y-33050000D03*
X51062500Y-34950000D03*
X52937500Y-34000000D03*
%TD*%
D17*
%TO.C,D2*%
X54000000Y-24000000D03*
X58000000Y-24000000D03*
%TD*%
D18*
%TO.C,J3*%
X46800000Y-1120000D03*
X47600000Y-1120000D03*
D19*
X48750000Y-1120000D03*
X49750000Y-1120000D03*
X50250000Y-1120000D03*
X51250000Y-1120000D03*
D18*
X52400000Y-1120000D03*
X53200000Y-1120000D03*
X53200000Y-1120000D03*
X52400000Y-1120000D03*
D19*
X51750000Y-1120000D03*
X50750000Y-1120000D03*
X49250000Y-1120000D03*
X48250000Y-1120000D03*
D18*
X47600000Y-1120000D03*
X46800000Y-1120000D03*
D20*
X45680000Y-1695000D03*
D21*
X45680000Y-5875000D03*
D20*
X54320000Y-1695000D03*
D21*
X54320000Y-5875000D03*
%TD*%
D22*
%TO.C,D1*%
X58600000Y-13500000D03*
X61400000Y-13500000D03*
%TD*%
M02*
