%TF.GenerationSoftware,KiCad,Pcbnew,9.0.9.1-unknown-202605141413~ce707d0a6c~ubuntu24.04.1*%
%TF.CreationDate,2026-09-02T19:41:56+00:00*%
%TF.ProjectId,agentping-carrier,6167656e-7470-4696-9e67-2d6361727269,rev?*%
%TF.SameCoordinates,Original*%
%TF.FileFunction,Copper,L1,Top*%
%TF.FilePolarity,Positive*%
%FSLAX46Y46*%
G04 Gerber Fmt 4.6, Leading zero omitted, Abs format (unit mm)*
G04 Created by KiCad (PCBNEW 9.0.9.1-unknown-202605141413~ce707d0a6c~ubuntu24.04.1) date 2026-09-02 19:41:56*
%MOMM*%
%LPD*%
G01*
G04 APERTURE LIST*
G04 Aperture macros list*
%AMRoundRect*
0 Rectangle with rounded corners*
0 $1 Rounding radius*
0 $2 $3 $4 $5 $6 $7 $8 $9 X,Y pos of 4 corners*
0 Add a 4 corners polygon primitive as box body*
4,1,4,$2,$3,$4,$5,$6,$7,$8,$9,$2,$3,0*
0 Add four circle primitives for the rounded corners*
1,1,$1+$1,$2,$3*
1,1,$1+$1,$4,$5*
1,1,$1+$1,$6,$7*
1,1,$1+$1,$8,$9*
0 Add four rect primitives between the rounded corners*
20,1,$1+$1,$2,$3,$4,$5,0*
20,1,$1+$1,$4,$5,$6,$7,0*
20,1,$1+$1,$6,$7,$8,$9,0*
20,1,$1+$1,$8,$9,$2,$3,0*%
G04 Aperture macros list end*
%TA.AperFunction,SMDPad,CuDef*%
%ADD10C,1.500000*%
%TD*%
%TA.AperFunction,SMDPad,CuDef*%
%ADD11RoundRect,0.250000X-0.312500X-1.450000X0.312500X-1.450000X0.312500X1.450000X-0.312500X1.450000X0*%
%TD*%
%TA.AperFunction,SMDPad,CuDef*%
%ADD12RoundRect,0.200000X0.275000X-0.200000X0.275000X0.200000X-0.275000X0.200000X-0.275000X-0.200000X0*%
%TD*%
%TA.AperFunction,SMDPad,CuDef*%
%ADD13RoundRect,0.200000X-0.200000X-0.275000X0.200000X-0.275000X0.200000X0.275000X-0.200000X0.275000X0*%
%TD*%
%TA.AperFunction,SMDPad,CuDef*%
%ADD14RoundRect,0.225000X0.250000X-0.225000X0.250000X0.225000X-0.250000X0.225000X-0.250000X-0.225000X0*%
%TD*%
%TA.AperFunction,ComponentPad*%
%ADD15R,1.700000X1.700000*%
%TD*%
%TA.AperFunction,ComponentPad*%
%ADD16O,1.700000X1.700000*%
%TD*%
%TA.AperFunction,SMDPad,CuDef*%
%ADD17RoundRect,0.225000X0.375000X-0.225000X0.375000X0.225000X-0.375000X0.225000X-0.375000X-0.225000X0*%
%TD*%
%TA.AperFunction,SMDPad,CuDef*%
%ADD18RoundRect,0.225000X-0.225000X-0.250000X0.225000X-0.250000X0.225000X0.250000X-0.225000X0.250000X0*%
%TD*%
%TA.AperFunction,ComponentPad*%
%ADD19RoundRect,0.250000X0.625000X-0.350000X0.625000X0.350000X-0.625000X0.350000X-0.625000X-0.350000X0*%
%TD*%
%TA.AperFunction,ComponentPad*%
%ADD20O,1.750000X1.200000*%
%TD*%
%TA.AperFunction,SMDPad,CuDef*%
%ADD21RoundRect,0.150000X-0.587500X-0.150000X0.587500X-0.150000X0.587500X0.150000X-0.587500X0.150000X0*%
%TD*%
%TA.AperFunction,SMDPad,CuDef*%
%ADD22RoundRect,0.250000X-1.000000X-0.650000X1.000000X-0.650000X1.000000X0.650000X-1.000000X0.650000X0*%
%TD*%
%TA.AperFunction,SMDPad,CuDef*%
%ADD23RoundRect,0.150000X-0.150000X-0.425000X0.150000X-0.425000X0.150000X0.425000X-0.150000X0.425000X0*%
%TD*%
%TA.AperFunction,SMDPad,CuDef*%
%ADD24RoundRect,0.075000X-0.075000X-0.500000X0.075000X-0.500000X0.075000X0.500000X-0.075000X0.500000X0*%
%TD*%
%TA.AperFunction,ComponentPad*%
%ADD25O,1.000000X2.100000*%
%TD*%
%TA.AperFunction,ComponentPad*%
%ADD26O,1.000000X1.800000*%
%TD*%
%TA.AperFunction,SMDPad,CuDef*%
%ADD27RoundRect,0.250000X-0.300000X-0.300000X0.300000X-0.300000X0.300000X0.300000X-0.300000X0.300000X0*%
%TD*%
%TA.AperFunction,ViaPad*%
%ADD28C,0.600000*%
%TD*%
%TA.AperFunction,Conductor*%
%ADD29C,0.200000*%
%TD*%
G04 APERTURE END LIST*
D10*
%TO.P,TP5,1*%
%TO.N,/HAPTIC_GATE*%
X47000000Y-30000000D03*
%TD*%
D11*
%TO.P,F1,1*%
%TO.N,/VBUS*%
X59862500Y-19500000D03*
%TO.P,F1,2*%
%TO.N,/VBUS_FUSED*%
X64137500Y-19500000D03*
%TD*%
D12*
%TO.P,R4,1*%
%TO.N,/HAPTIC_GATE*%
X47000000Y-35825000D03*
%TO.P,R4,2*%
%TO.N,/GND*%
X47000000Y-34175000D03*
%TD*%
D10*
%TO.P,TP2,1*%
%TO.N,/+5V_MODULE*%
X42000000Y-22000000D03*
%TD*%
D13*
%TO.P,R3,1*%
%TO.N,/GPIO6_HAPTIC*%
X41175000Y-31000000D03*
%TO.P,R3,2*%
%TO.N,/HAPTIC_GATE*%
X42825000Y-31000000D03*
%TD*%
D14*
%TO.P,C2,1*%
%TO.N,/+5V_MODULE*%
X59000000Y-38775000D03*
%TO.P,C2,2*%
%TO.N,/HAPTIC_LOW*%
X59000000Y-37225000D03*
%TD*%
D15*
%TO.P,J1,1*%
%TO.N,unconnected-(J1-Pin_1-Pad1)*%
X8570000Y-20850000D03*
D16*
%TO.P,J1,2*%
%TO.N,unconnected-(J1-Pin_2-Pad2)*%
X8570000Y-23390000D03*
%TO.P,J1,3*%
%TO.N,/GND*%
X8570000Y-25930000D03*
%TO.P,J1,4*%
%TO.N,unconnected-(J1-Pin_4-Pad4)*%
X8570000Y-28470000D03*
%TO.P,J1,5*%
%TO.N,unconnected-(J1-Pin_5-Pad5)*%
X8570000Y-31010000D03*
%TO.P,J1,6*%
%TO.N,unconnected-(J1-Pin_6-Pad6)*%
X8570000Y-33550000D03*
%TO.P,J1,7*%
%TO.N,unconnected-(J1-Pin_7-Pad7)*%
X8570000Y-36090000D03*
%TO.P,J1,8*%
%TO.N,/GPIO6_HAPTIC*%
X8570000Y-38630000D03*
%TO.P,J1,9*%
%TO.N,/GND*%
X8570000Y-41170000D03*
%TO.P,J1,10*%
%TO.N,unconnected-(J1-Pin_10-Pad10)*%
X8570000Y-43710000D03*
%TD*%
D10*
%TO.P,TP4,1*%
%TO.N,/GPIO6_HAPTIC*%
X39000000Y-28000000D03*
%TD*%
D15*
%TO.P,J2,1*%
%TO.N,unconnected-(J2-Pin_1-Pad1)*%
X31430000Y-20850000D03*
D16*
%TO.P,J2,2*%
%TO.N,unconnected-(J2-Pin_2-Pad2)*%
X31430000Y-23390000D03*
%TO.P,J2,3*%
%TO.N,/GND*%
X31430000Y-25930000D03*
%TO.P,J2,4*%
%TO.N,unconnected-(J2-Pin_4-Pad4)*%
X31430000Y-28470000D03*
%TO.P,J2,5*%
%TO.N,unconnected-(J2-Pin_5-Pad5)*%
X31430000Y-31010000D03*
%TO.P,J2,6*%
%TO.N,unconnected-(J2-Pin_6-Pad6)*%
X31430000Y-33550000D03*
%TO.P,J2,7*%
%TO.N,unconnected-(J2-Pin_7-Pad7)*%
X31430000Y-36090000D03*
%TO.P,J2,8*%
%TO.N,unconnected-(J2-Pin_8-Pad8)*%
X31430000Y-38630000D03*
%TO.P,J2,9*%
%TO.N,/GND*%
X31430000Y-41170000D03*
%TO.P,J2,10*%
%TO.N,/+5V_MODULE*%
X31430000Y-43710000D03*
%TD*%
D17*
%TO.P,D3,1*%
%TO.N,/+5V_MODULE*%
X58000000Y-33650000D03*
%TO.P,D3,2*%
%TO.N,/HAPTIC_LOW*%
X58000000Y-30350000D03*
%TD*%
D18*
%TO.P,C1,1*%
%TO.N,/+5V_MODULE*%
X47225000Y-21000000D03*
%TO.P,C1,2*%
%TO.N,/GND*%
X48775000Y-21000000D03*
%TD*%
D19*
%TO.P,J4,1*%
%TO.N,/+5V_MODULE*%
X66000000Y-35000000D03*
D20*
%TO.P,J4,2*%
%TO.N,/HAPTIC_LOW*%
X66000000Y-33000000D03*
%TD*%
D10*
%TO.P,TP1,1*%
%TO.N,/VBUS*%
X40000000Y-16000000D03*
%TD*%
D13*
%TO.P,R1,1*%
%TO.N,/CC1*%
X42175000Y-11500000D03*
%TO.P,R1,2*%
%TO.N,/GND*%
X43825000Y-11500000D03*
%TD*%
%TO.P,R2,1*%
%TO.N,/CC2*%
X48175000Y-11500000D03*
%TO.P,R2,2*%
%TO.N,/GND*%
X49825000Y-11500000D03*
%TD*%
D21*
%TO.P,Q1,1*%
%TO.N,/HAPTIC_GATE*%
X51062500Y-33050000D03*
%TO.P,Q1,2*%
%TO.N,/GND*%
X51062500Y-34950000D03*
%TO.P,Q1,3*%
%TO.N,/HAPTIC_LOW*%
X52937500Y-34000000D03*
%TD*%
D22*
%TO.P,D2,1*%
%TO.N,/+5V_MODULE*%
X54000000Y-24000000D03*
%TO.P,D2,2*%
%TO.N,/VBUS_FUSED*%
X58000000Y-24000000D03*
%TD*%
D23*
%TO.P,J3,A1*%
%TO.N,/GND*%
X46800000Y-1120000D03*
%TO.P,J3,A4*%
%TO.N,/VBUS*%
X47600000Y-1120000D03*
D24*
%TO.P,J3,A5*%
%TO.N,/CC1*%
X48750000Y-1120000D03*
%TO.P,J3,A6*%
%TO.N,unconnected-(J3-D+-PadA6)*%
X49750000Y-1120000D03*
%TO.P,J3,A7*%
%TO.N,unconnected-(J3-D--PadA7)*%
X50250000Y-1120000D03*
%TO.P,J3,A8*%
%TO.N,unconnected-(J3-SBU1-PadA8)*%
X51250000Y-1120000D03*
D23*
%TO.P,J3,A9*%
%TO.N,/VBUS*%
X52400000Y-1120000D03*
%TO.P,J3,A12*%
%TO.N,/GND*%
X53200000Y-1120000D03*
%TO.P,J3,B1*%
X53200000Y-1120000D03*
%TO.P,J3,B4*%
%TO.N,/VBUS*%
X52400000Y-1120000D03*
D24*
%TO.P,J3,B5*%
%TO.N,/CC2*%
X51750000Y-1120000D03*
%TO.P,J3,B6*%
%TO.N,unconnected-(J3-D+-PadB6)*%
X50750000Y-1120000D03*
%TO.P,J3,B7*%
%TO.N,unconnected-(J3-D--PadB7)*%
X49250000Y-1120000D03*
%TO.P,J3,B8*%
%TO.N,unconnected-(J3-SBU2-PadB8)*%
X48250000Y-1120000D03*
D23*
%TO.P,J3,B9*%
%TO.N,/VBUS*%
X47600000Y-1120000D03*
%TO.P,J3,B12*%
%TO.N,/GND*%
X46800000Y-1120000D03*
D25*
%TO.P,J3,S1*%
X45680000Y-1695000D03*
D26*
X45680000Y-5875000D03*
D25*
X54320000Y-1695000D03*
D26*
X54320000Y-5875000D03*
%TD*%
D10*
%TO.P,TP3,1*%
%TO.N,/GND*%
X41000000Y-43000000D03*
%TD*%
%TO.P,TP6,1*%
%TO.N,/HAPTIC_LOW*%
X58000000Y-43000000D03*
%TD*%
D27*
%TO.P,D1,1*%
%TO.N,/VBUS*%
X58600000Y-13500000D03*
%TO.P,D1,2*%
%TO.N,/GND*%
X61400000Y-13500000D03*
%TD*%
D28*
%TO.N,/+5V_MODULE*%
X63596400Y-25403600D03*
%TO.N,/GND*%
X45680000Y-20014700D03*
X51665500Y-33859600D03*
%TO.N,/GPIO6_HAPTIC*%
X39000000Y-28000000D03*
%TO.N,/VBUS*%
X52400000Y-1120000D03*
X58600000Y-13500000D03*
X47600000Y-1120000D03*
%TD*%
D29*
%TO.N,/+5V_MODULE*%
X54000000Y-24000000D02*
X55403600Y-25403600D01*
X46225000Y-22000000D02*
X47225000Y-21000000D01*
X59825800Y-37949200D02*
X59000000Y-38775000D01*
X59825800Y-35000000D02*
X59825800Y-37949200D01*
X59825800Y-35000000D02*
X59350000Y-35000000D01*
X59000000Y-38775000D02*
X59089900Y-38864900D01*
X42000000Y-22000000D02*
X46225000Y-22000000D01*
X59089900Y-38864900D02*
X59089900Y-43409500D01*
X32956000Y-44084300D02*
X32581700Y-43710000D01*
X66000000Y-35000000D02*
X59825800Y-35000000D01*
X50225000Y-24000000D02*
X47225000Y-21000000D01*
X31430000Y-43710000D02*
X32581700Y-43710000D01*
X55403600Y-25403600D02*
X63596400Y-25403600D01*
X58415100Y-44084300D02*
X32956000Y-44084300D01*
X59089900Y-43409500D02*
X58415100Y-44084300D01*
X54000000Y-24000000D02*
X50225000Y-24000000D01*
X59350000Y-35000000D02*
X58000000Y-33650000D01*
%TO.N,/CC1*%
X42175000Y-7533800D02*
X42175000Y-11500000D01*
X46687900Y-3860000D02*
X45848800Y-3860000D01*
X48750000Y-1120000D02*
X48750000Y-1797900D01*
X45848800Y-3860000D02*
X42175000Y-7533800D01*
X48750000Y-1797900D02*
X46687900Y-3860000D01*
%TO.N,/CC2*%
X51324900Y-2203300D02*
X51750000Y-1778200D01*
X48175000Y-11500000D02*
X47432700Y-10757700D01*
X51750000Y-1778200D02*
X51750000Y-1120000D01*
X51324900Y-2203300D02*
X47432700Y-10757700D01*
%TO.N,/GND*%
X47789700Y-20014700D02*
X45680000Y-20014700D01*
X52150000Y-32419000D02*
X52150000Y-33375000D01*
X52150000Y-33375000D02*
X51963600Y-33561400D01*
X47000000Y-34175000D02*
X48756000Y-32419000D01*
X51665500Y-33859500D02*
X51963600Y-33561400D01*
X45680000Y-1695000D02*
X46255000Y-1120000D01*
X48756000Y-32419000D02*
X52150000Y-32419000D01*
X45680000Y-5875000D02*
X45680000Y-9645000D01*
X49825000Y-11500000D02*
X59400000Y-11500000D01*
X45680000Y-9645000D02*
X43825000Y-11500000D01*
X53745000Y-1120000D02*
X53200000Y-1120000D01*
X59400000Y-11500000D02*
X61400000Y-13500000D01*
X51665500Y-33859600D02*
X51062500Y-34462600D01*
X48775000Y-21000000D02*
X47789700Y-20014700D01*
X39170000Y-41170000D02*
X41000000Y-43000000D01*
X51665500Y-33859600D02*
X51665500Y-33859500D01*
X46255000Y-1120000D02*
X46800000Y-1120000D01*
X31430000Y-41170000D02*
X39170000Y-41170000D01*
X51062500Y-34462600D02*
X51062500Y-34950000D01*
X54320000Y-5875000D02*
X54320000Y-4673300D01*
X51062500Y-34950000D02*
X43012500Y-43000000D01*
X54320000Y-1695000D02*
X53745000Y-1120000D01*
X45680000Y-5875000D02*
X45680000Y-4673300D01*
X43012500Y-43000000D02*
X41000000Y-43000000D01*
%TO.N,/GPIO6_HAPTIC*%
X39000000Y-28000000D02*
X41175000Y-30175000D01*
X41175000Y-30175000D02*
X41175000Y-31000000D01*
%TO.N,/HAPTIC_GATE*%
X46011500Y-34836500D02*
X47000000Y-35825000D01*
X48287500Y-35825000D02*
X51062500Y-33050000D01*
X47000000Y-30000000D02*
X46224000Y-30776000D01*
X46224000Y-33874400D02*
X46011500Y-34086900D01*
X46224000Y-30776000D02*
X46224000Y-31000000D01*
X46224000Y-33674200D02*
X46224000Y-33874400D01*
X46224000Y-31000000D02*
X46224000Y-33674200D01*
X46011500Y-34086900D02*
X46011500Y-34836500D01*
X46224000Y-31000000D02*
X42825000Y-31000000D01*
X47000000Y-35825000D02*
X48287500Y-35825000D01*
%TO.N,/HAPTIC_LOW*%
X56587500Y-30350000D02*
X58000000Y-30350000D01*
X58000000Y-37225000D02*
X59000000Y-37225000D01*
X58000000Y-30350000D02*
X64251700Y-30350000D01*
X66000000Y-33000000D02*
X66000000Y-32098300D01*
X56162500Y-37225000D02*
X58000000Y-37225000D01*
X52937500Y-34000000D02*
X56162500Y-37225000D01*
X58000000Y-37225000D02*
X58000000Y-43000000D01*
X64251700Y-30350000D02*
X66000000Y-32098300D01*
X52937500Y-34000000D02*
X56587500Y-30350000D01*
%TO.N,/VBUS*%
X59862500Y-19500000D02*
X58600000Y-18237500D01*
X58600000Y-16000000D02*
X58600000Y-13500000D01*
X58600000Y-18237500D02*
X58600000Y-16000000D01*
X58600000Y-16000000D02*
X40000000Y-16000000D01*
%TO.N,/VBUS_FUSED*%
X59637500Y-24000000D02*
X58000000Y-24000000D01*
X64137500Y-19500000D02*
X59637500Y-24000000D01*
%TD*%
%TA.AperFunction,Conductor*%
%TO.N,/GND*%
G36*
X46962124Y-519407D02*
G01*
X46998088Y-568907D01*
X47002500Y-608746D01*
X46999500Y-640727D01*
X46999500Y-1552840D01*
X46980593Y-1611031D01*
X46931093Y-1646995D01*
X46926126Y-1648466D01*
X46887862Y-1658719D01*
X46887861Y-1658720D01*
X46756639Y-1734481D01*
X46649481Y-1841639D01*
X46573720Y-1972860D01*
X46554709Y-2043813D01*
X46534500Y-2119234D01*
X46534500Y-2270766D01*
X46543739Y-2305246D01*
X46573720Y-2417139D01*
X46649481Y-2548360D01*
X46649483Y-2548362D01*
X46649485Y-2548365D01*
X46756635Y-2655515D01*
X46756637Y-2655516D01*
X46756639Y-2655518D01*
X46887861Y-2731279D01*
X46887859Y-2731279D01*
X46887863Y-2731280D01*
X46887865Y-2731281D01*
X47008021Y-2763476D01*
X47059333Y-2796799D01*
X47081260Y-2853920D01*
X47065425Y-2913021D01*
X47052400Y-2929106D01*
X46551003Y-3430504D01*
X46496486Y-3458281D01*
X46480999Y-3459500D01*
X45901527Y-3459500D01*
X45796073Y-3459500D01*
X45706240Y-3483570D01*
X45694208Y-3486794D01*
X45648550Y-3513156D01*
X45619600Y-3529870D01*
X45602886Y-3539520D01*
X45528319Y-3614086D01*
X45528320Y-3614087D01*
X41854516Y-7287891D01*
X41801793Y-7379211D01*
X41801792Y-7379211D01*
X41801793Y-7379212D01*
X41774500Y-7481073D01*
X41774500Y-10700333D01*
X41755593Y-10758524D01*
X41734829Y-10779586D01*
X41617458Y-10867450D01*
X41617450Y-10867458D01*
X41531202Y-10982670D01*
X41480910Y-11117511D01*
X41480908Y-11117522D01*
X41474500Y-11177129D01*
X41474500Y-11822866D01*
X41474501Y-11822870D01*
X41480908Y-11882480D01*
X41480909Y-11882485D01*
X41531202Y-12017329D01*
X41617450Y-12132541D01*
X41617454Y-12132546D01*
X41617457Y-12132548D01*
X41617458Y-12132549D01*
X41732670Y-12218797D01*
X41867511Y-12269089D01*
X41867512Y-12269089D01*
X41867517Y-12269091D01*
X41927127Y-12275500D01*
X42422872Y-12275499D01*
X42482483Y-12269091D01*
X42549907Y-12243943D01*
X42617329Y-12218797D01*
X42617329Y-12218796D01*
X42617331Y-12218796D01*
X42732546Y-12132546D01*
X42818796Y-12017331D01*
X42869091Y-11882483D01*
X42875500Y-11822873D01*
X42875499Y-11177128D01*
X42869091Y-11117517D01*
X42837709Y-11033377D01*
X42818797Y-10982670D01*
X42732549Y-10867458D01*
X42732548Y-10867457D01*
X42732546Y-10867454D01*
X42707640Y-10848809D01*
X42615171Y-10779586D01*
X42579918Y-10729577D01*
X42575500Y-10700333D01*
X42575500Y-7740700D01*
X42594407Y-7682509D01*
X42604496Y-7670696D01*
X45985696Y-4289496D01*
X46040213Y-4261719D01*
X46055700Y-4260500D01*
X46740625Y-4260500D01*
X46740627Y-4260500D01*
X46842488Y-4233207D01*
X46842490Y-4233205D01*
X46842492Y-4233205D01*
X46933808Y-4180483D01*
X46933808Y-4180482D01*
X46933813Y-4180480D01*
X48995910Y-2118381D01*
X48995913Y-2118380D01*
X49070480Y-2043813D01*
X49075774Y-2034642D01*
X49084049Y-2026007D01*
X49100983Y-2016918D01*
X49115267Y-2004058D01*
X49131288Y-2000652D01*
X49137960Y-1997072D01*
X49144154Y-1997917D01*
X49155531Y-1995500D01*
X49360632Y-1995500D01*
X49360636Y-1995500D01*
X49433625Y-1984866D01*
X49456520Y-1973672D01*
X49517102Y-1965102D01*
X49543478Y-1973672D01*
X49566375Y-1984866D01*
X49639364Y-1995500D01*
X49639367Y-1995500D01*
X49860632Y-1995500D01*
X49860636Y-1995500D01*
X49933625Y-1984866D01*
X49956520Y-1973672D01*
X50017102Y-1965102D01*
X50043478Y-1973672D01*
X50066375Y-1984866D01*
X50139364Y-1995500D01*
X50139367Y-1995500D01*
X50360632Y-1995500D01*
X50360636Y-1995500D01*
X50433625Y-1984866D01*
X50456520Y-1973672D01*
X50517102Y-1965102D01*
X50543478Y-1973672D01*
X50566375Y-1984866D01*
X50639364Y-1995500D01*
X50639367Y-1995500D01*
X50825630Y-1995500D01*
X50883821Y-2014407D01*
X50919785Y-2063907D01*
X50919785Y-2125093D01*
X50915741Y-2135500D01*
X47078159Y-10569855D01*
X47076172Y-10574219D01*
X47059493Y-10603112D01*
X47054428Y-10622011D01*
X47051032Y-10629476D01*
X47051030Y-10629477D01*
X47046323Y-10639825D01*
X47041621Y-10668027D01*
X47041620Y-10668026D01*
X47040830Y-10672761D01*
X47032200Y-10704973D01*
X47032200Y-10724535D01*
X47030852Y-10732622D01*
X47030852Y-10732624D01*
X47028981Y-10743842D01*
X47028981Y-10743847D01*
X47032200Y-10777066D01*
X47032200Y-10810427D01*
X47037264Y-10829327D01*
X47038055Y-10837485D01*
X47038055Y-10837486D01*
X47039152Y-10848808D01*
X47039151Y-10848808D01*
X47049178Y-10875577D01*
X47049177Y-10875577D01*
X47050858Y-10880064D01*
X47059493Y-10912288D01*
X47069276Y-10929231D01*
X47072150Y-10936904D01*
X47072152Y-10936908D01*
X47076142Y-10947561D01*
X47076143Y-10947562D01*
X47083466Y-10957816D01*
X47092756Y-10970824D01*
X47097927Y-10978859D01*
X47112217Y-11003609D01*
X47112218Y-11003610D01*
X47112220Y-11003613D01*
X47126059Y-11017452D01*
X47137433Y-11033377D01*
X47163191Y-11054584D01*
X47166574Y-11057967D01*
X47166575Y-11057968D01*
X47445503Y-11336895D01*
X47473281Y-11391412D01*
X47474500Y-11406899D01*
X47474500Y-11822866D01*
X47474501Y-11822870D01*
X47480908Y-11882480D01*
X47480909Y-11882485D01*
X47531202Y-12017329D01*
X47617450Y-12132541D01*
X47617454Y-12132546D01*
X47617457Y-12132548D01*
X47617458Y-12132549D01*
X47732670Y-12218797D01*
X47867511Y-12269089D01*
X47867512Y-12269089D01*
X47867517Y-12269091D01*
X47927127Y-12275500D01*
X48422872Y-12275499D01*
X48482483Y-12269091D01*
X48549907Y-12243943D01*
X48617329Y-12218797D01*
X48617329Y-12218796D01*
X48617331Y-12218796D01*
X48732546Y-12132546D01*
X48818796Y-12017331D01*
X48869091Y-11882483D01*
X48875500Y-11822873D01*
X48875499Y-11177128D01*
X48869091Y-11117517D01*
X48837709Y-11033377D01*
X48818797Y-10982670D01*
X48732549Y-10867458D01*
X48732548Y-10867457D01*
X48732546Y-10867454D01*
X48707640Y-10848809D01*
X48617329Y-10781202D01*
X48482488Y-10730910D01*
X48482483Y-10730909D01*
X48482481Y-10730908D01*
X48482477Y-10730908D01*
X48451249Y-10727550D01*
X48422873Y-10724500D01*
X48422870Y-10724500D01*
X48041622Y-10724500D01*
X47983431Y-10705593D01*
X47947467Y-10656093D01*
X47947467Y-10594907D01*
X47951511Y-10584500D01*
X47956192Y-10574213D01*
X51002604Y-3878710D01*
X64149500Y-3878710D01*
X64149500Y-4121289D01*
X64181161Y-4361781D01*
X64181161Y-4361786D01*
X64243944Y-4596092D01*
X64243948Y-4596105D01*
X64336772Y-4820204D01*
X64336774Y-4820208D01*
X64336776Y-4820212D01*
X64458064Y-5030289D01*
X64458066Y-5030292D01*
X64605729Y-5222731D01*
X64605731Y-5222733D01*
X64605735Y-5222738D01*
X64777262Y-5394265D01*
X64777266Y-5394268D01*
X64777268Y-5394270D01*
X64969707Y-5541933D01*
X64969711Y-5541936D01*
X65179788Y-5663224D01*
X65403900Y-5756054D01*
X65638211Y-5818838D01*
X65878712Y-5850500D01*
X65878713Y-5850500D01*
X66121287Y-5850500D01*
X66121288Y-5850500D01*
X66361789Y-5818838D01*
X66596100Y-5756054D01*
X66820212Y-5663224D01*
X67030289Y-5541936D01*
X67222738Y-5394265D01*
X67394265Y-5222738D01*
X67541936Y-5030289D01*
X67663224Y-4820212D01*
X67756054Y-4596100D01*
X67818838Y-4361789D01*
X67850500Y-4121288D01*
X67850500Y-3878712D01*
X67818838Y-3638211D01*
X67756054Y-3403900D01*
X67663224Y-3179788D01*
X67541936Y-2969711D01*
X67453087Y-2853920D01*
X67394270Y-2777268D01*
X67394268Y-2777266D01*
X67394265Y-2777262D01*
X67222738Y-2605735D01*
X67222733Y-2605731D01*
X67222731Y-2605729D01*
X67030292Y-2458066D01*
X67018956Y-2451521D01*
X66820212Y-2336776D01*
X66820208Y-2336774D01*
X66820204Y-2336772D01*
X66596105Y-2243948D01*
X66596104Y-2243947D01*
X66596100Y-2243946D01*
X66361789Y-2181162D01*
X66361786Y-2181161D01*
X66361784Y-2181161D01*
X66121289Y-2149500D01*
X66121288Y-2149500D01*
X65878712Y-2149500D01*
X65878710Y-2149500D01*
X65638218Y-2181161D01*
X65638213Y-2181161D01*
X65403907Y-2243944D01*
X65403894Y-2243948D01*
X65179795Y-2336772D01*
X64969707Y-2458066D01*
X64777268Y-2605729D01*
X64605729Y-2777268D01*
X64458066Y-2969707D01*
X64336772Y-3179795D01*
X64243948Y-3403894D01*
X64243944Y-3403907D01*
X64181161Y-3638213D01*
X64181161Y-3638218D01*
X64149500Y-3878710D01*
X51002604Y-3878710D01*
X51651967Y-2451518D01*
X51672071Y-2422520D01*
X52070480Y-2024113D01*
X52070481Y-2024110D01*
X52075041Y-2019551D01*
X52129557Y-1991774D01*
X52151681Y-1990778D01*
X52161930Y-1991466D01*
X52165301Y-1992646D01*
X52195734Y-1995500D01*
X52221953Y-1995500D01*
X52225272Y-1995723D01*
X52250730Y-2005928D01*
X52276826Y-2014407D01*
X52278857Y-2017203D01*
X52282065Y-2018489D01*
X52296662Y-2041709D01*
X52312790Y-2063907D01*
X52312884Y-2067514D01*
X52314629Y-2070289D01*
X52313426Y-2088188D01*
X52314066Y-2112633D01*
X52315347Y-2112802D01*
X52314500Y-2119233D01*
X52314500Y-2119234D01*
X52314500Y-2270766D01*
X52323739Y-2305246D01*
X52353720Y-2417139D01*
X52429481Y-2548360D01*
X52429483Y-2548362D01*
X52429485Y-2548365D01*
X52536635Y-2655515D01*
X52536637Y-2655516D01*
X52536639Y-2655518D01*
X52667861Y-2731279D01*
X52667859Y-2731279D01*
X52667863Y-2731280D01*
X52667865Y-2731281D01*
X52814234Y-2770500D01*
X52814236Y-2770500D01*
X52965764Y-2770500D01*
X52965766Y-2770500D01*
X53112135Y-2731281D01*
X53112137Y-2731279D01*
X53112139Y-2731279D01*
X53243360Y-2655518D01*
X53243360Y-2655517D01*
X53243365Y-2655515D01*
X53350515Y-2548365D01*
X53350518Y-2548360D01*
X53426279Y-2417139D01*
X53426279Y-2417137D01*
X53426281Y-2417135D01*
X53465500Y-2270766D01*
X53465500Y-2119234D01*
X53426281Y-1972865D01*
X53426279Y-1972862D01*
X53426279Y-1972860D01*
X53350518Y-1841639D01*
X53350516Y-1841637D01*
X53350515Y-1841635D01*
X53243365Y-1734485D01*
X53243362Y-1734483D01*
X53243360Y-1734481D01*
X53112138Y-1658720D01*
X53112134Y-1658718D01*
X53073876Y-1648467D01*
X53022562Y-1615143D01*
X53000636Y-1558022D01*
X53000500Y-1552841D01*
X53000500Y-640727D01*
X52997500Y-608746D01*
X53010890Y-549044D01*
X53056815Y-508614D01*
X53096067Y-500500D01*
X69400500Y-500500D01*
X69458691Y-519407D01*
X69494655Y-568907D01*
X69499500Y-599500D01*
X69499500Y-59400500D01*
X69480593Y-59458691D01*
X69431093Y-59494655D01*
X69400500Y-59499500D01*
X599500Y-59499500D01*
X541309Y-59480593D01*
X505345Y-59431093D01*
X500500Y-59400500D01*
X500500Y-55878710D01*
X2149500Y-55878710D01*
X2149500Y-56121289D01*
X2181161Y-56361781D01*
X2181161Y-56361786D01*
X2243944Y-56596092D01*
X2243948Y-56596105D01*
X2336772Y-56820204D01*
X2336774Y-56820208D01*
X2336776Y-56820212D01*
X2458064Y-57030289D01*
X2458066Y-57030292D01*
X2605729Y-57222731D01*
X2605731Y-57222733D01*
X2605735Y-57222738D01*
X2777262Y-57394265D01*
X2777266Y-57394268D01*
X2777268Y-57394270D01*
X2969707Y-57541933D01*
X2969711Y-57541936D01*
X3179788Y-57663224D01*
X3403900Y-57756054D01*
X3638211Y-57818838D01*
X3878712Y-57850500D01*
X3878713Y-57850500D01*
X4121287Y-57850500D01*
X4121288Y-57850500D01*
X4361789Y-57818838D01*
X4596100Y-57756054D01*
X4820212Y-57663224D01*
X5030289Y-57541936D01*
X5222738Y-57394265D01*
X5394265Y-57222738D01*
X5541936Y-57030289D01*
X5663224Y-56820212D01*
X5756054Y-56596100D01*
X5818838Y-56361789D01*
X5850500Y-56121288D01*
X5850500Y-55878712D01*
X5850500Y-55878710D01*
X64149500Y-55878710D01*
X64149500Y-56121289D01*
X64181161Y-56361781D01*
X64181161Y-56361786D01*
X64243944Y-56596092D01*
X64243948Y-56596105D01*
X64336772Y-56820204D01*
X64336774Y-56820208D01*
X64336776Y-56820212D01*
X64458064Y-57030289D01*
X64458066Y-57030292D01*
X64605729Y-57222731D01*
X64605731Y-57222733D01*
X64605735Y-57222738D01*
X64777262Y-57394265D01*
X64777266Y-57394268D01*
X64777268Y-57394270D01*
X64969707Y-57541933D01*
X64969711Y-57541936D01*
X65179788Y-57663224D01*
X65403900Y-57756054D01*
X65638211Y-57818838D01*
X65878712Y-57850500D01*
X65878713Y-57850500D01*
X66121287Y-57850500D01*
X66121288Y-57850500D01*
X66361789Y-57818838D01*
X66596100Y-57756054D01*
X66820212Y-57663224D01*
X67030289Y-57541936D01*
X67222738Y-57394265D01*
X67394265Y-57222738D01*
X67541936Y-57030289D01*
X67663224Y-56820212D01*
X67756054Y-56596100D01*
X67818838Y-56361789D01*
X67850500Y-56121288D01*
X67850500Y-55878712D01*
X67818838Y-55638211D01*
X67756054Y-55403900D01*
X67663224Y-55179788D01*
X67541936Y-54969711D01*
X67394265Y-54777262D01*
X67222738Y-54605735D01*
X67222733Y-54605731D01*
X67222731Y-54605729D01*
X67030292Y-54458066D01*
X67030289Y-54458064D01*
X66820212Y-54336776D01*
X66820208Y-54336774D01*
X66820204Y-54336772D01*
X66596105Y-54243948D01*
X66596104Y-54243947D01*
X66596100Y-54243946D01*
X66361789Y-54181162D01*
X66361786Y-54181161D01*
X66361784Y-54181161D01*
X66121289Y-54149500D01*
X66121288Y-54149500D01*
X65878712Y-54149500D01*
X65878710Y-54149500D01*
X65638218Y-54181161D01*
X65638213Y-54181161D01*
X65403907Y-54243944D01*
X65403894Y-54243948D01*
X65179795Y-54336772D01*
X64969707Y-54458066D01*
X64777268Y-54605729D01*
X64605729Y-54777268D01*
X64458066Y-54969707D01*
X64336772Y-55179795D01*
X64243948Y-55403894D01*
X64243944Y-55403907D01*
X64181161Y-55638213D01*
X64181161Y-55638218D01*
X64149500Y-55878710D01*
X5850500Y-55878710D01*
X5818838Y-55638211D01*
X5756054Y-55403900D01*
X5663224Y-55179788D01*
X5541936Y-54969711D01*
X5394265Y-54777262D01*
X5222738Y-54605735D01*
X5222733Y-54605731D01*
X5222731Y-54605729D01*
X5030292Y-54458066D01*
X5030289Y-54458064D01*
X4820212Y-54336776D01*
X4820208Y-54336774D01*
X4820204Y-54336772D01*
X4596105Y-54243948D01*
X4596104Y-54243947D01*
X4596100Y-54243946D01*
X4361789Y-54181162D01*
X4361786Y-54181161D01*
X4361784Y-54181161D01*
X4121289Y-54149500D01*
X4121288Y-54149500D01*
X3878712Y-54149500D01*
X3878710Y-54149500D01*
X3638218Y-54181161D01*
X3638213Y-54181161D01*
X3403907Y-54243944D01*
X3403894Y-54243948D01*
X3179795Y-54336772D01*
X2969707Y-54458066D01*
X2777268Y-54605729D01*
X2605729Y-54777268D01*
X2458066Y-54969707D01*
X2336772Y-55179795D01*
X2243948Y-55403894D01*
X2243944Y-55403907D01*
X2181161Y-55638213D01*
X2181161Y-55638218D01*
X2149500Y-55878710D01*
X500500Y-55878710D01*
X500500Y-52500000D01*
X11500000Y-52500000D01*
X11500001Y-52500000D01*
X28499999Y-52500000D01*
X28500000Y-52500000D01*
X28500000Y-48643709D01*
X29649500Y-48643709D01*
X29649500Y-48856290D01*
X29682752Y-49066238D01*
X29748443Y-49268412D01*
X29844948Y-49457815D01*
X29844950Y-49457819D01*
X29969891Y-49629786D01*
X29969893Y-49629788D01*
X29969896Y-49629792D01*
X30120208Y-49780104D01*
X30120211Y-49780106D01*
X30120213Y-49780108D01*
X30292180Y-49905049D01*
X30292184Y-49905051D01*
X30481588Y-50001557D01*
X30683757Y-50067246D01*
X30683758Y-50067246D01*
X30683761Y-50067247D01*
X30893710Y-50100500D01*
X30893713Y-50100500D01*
X31106290Y-50100500D01*
X31316238Y-50067247D01*
X31316239Y-50067246D01*
X31316243Y-50067246D01*
X31518412Y-50001557D01*
X31707816Y-49905051D01*
X31879792Y-49780104D01*
X32030104Y-49629792D01*
X32155051Y-49457816D01*
X32251557Y-49268412D01*
X32317246Y-49066243D01*
X32350500Y-48856287D01*
X32350500Y-48643713D01*
X32350500Y-48643709D01*
X32317247Y-48433761D01*
X32317246Y-48433757D01*
X32251557Y-48231588D01*
X32155051Y-48042184D01*
X32155049Y-48042180D01*
X32030108Y-47870213D01*
X32030106Y-47870211D01*
X32030104Y-47870208D01*
X31879792Y-47719896D01*
X31879788Y-47719893D01*
X31879786Y-47719891D01*
X31707819Y-47594950D01*
X31707815Y-47594948D01*
X31518412Y-47498443D01*
X31316238Y-47432752D01*
X31106290Y-47399500D01*
X31106287Y-47399500D01*
X30893713Y-47399500D01*
X30893710Y-47399500D01*
X30683761Y-47432752D01*
X30481587Y-47498443D01*
X30292184Y-47594948D01*
X30292180Y-47594950D01*
X30120213Y-47719891D01*
X29969891Y-47870213D01*
X29844950Y-48042180D01*
X29844948Y-48042184D01*
X29748443Y-48231587D01*
X29682752Y-48433761D01*
X29649500Y-48643709D01*
X28500000Y-48643709D01*
X28500000Y-43619450D01*
X30279500Y-43619450D01*
X30279500Y-43800549D01*
X30307828Y-43979406D01*
X30363788Y-44151637D01*
X30446001Y-44312990D01*
X30446004Y-44312994D01*
X30552447Y-44459501D01*
X30680499Y-44587553D01*
X30827006Y-44693996D01*
X30988361Y-44776211D01*
X31160591Y-44832171D01*
X31232136Y-44843502D01*
X31339451Y-44860500D01*
X31339454Y-44860500D01*
X31520549Y-44860500D01*
X31609977Y-44846335D01*
X31699409Y-44832171D01*
X31871639Y-44776211D01*
X32032994Y-44693996D01*
X32179501Y-44587553D01*
X32307553Y-44459501D01*
X32413996Y-44312994D01*
X32421094Y-44299062D01*
X32464357Y-44255797D01*
X32524789Y-44246223D01*
X32579306Y-44273999D01*
X32710087Y-44404780D01*
X32710089Y-44404781D01*
X32710091Y-44404783D01*
X32801408Y-44457505D01*
X32801406Y-44457505D01*
X32801410Y-44457506D01*
X32801412Y-44457507D01*
X32903273Y-44484800D01*
X32903275Y-44484800D01*
X58467825Y-44484800D01*
X58467827Y-44484800D01*
X58569688Y-44457507D01*
X58569690Y-44457505D01*
X58569692Y-44457505D01*
X58661008Y-44404783D01*
X58661008Y-44404782D01*
X58661013Y-44404780D01*
X59410380Y-43655413D01*
X59463107Y-43564087D01*
X59490400Y-43462227D01*
X59490400Y-39526380D01*
X59509307Y-39468189D01*
X59529576Y-39447499D01*
X59625078Y-39375078D01*
X59712364Y-39259975D01*
X59765359Y-39125590D01*
X59775500Y-39041144D01*
X59775500Y-38606898D01*
X59794407Y-38548707D01*
X59804490Y-38536901D01*
X60071710Y-38269681D01*
X60071713Y-38269680D01*
X60146280Y-38195113D01*
X60199007Y-38103787D01*
X60203335Y-38087636D01*
X60226301Y-38001927D01*
X60226301Y-37896473D01*
X60226301Y-37890411D01*
X60226300Y-37890393D01*
X60226300Y-35499500D01*
X60245207Y-35441309D01*
X60294707Y-35405345D01*
X60325300Y-35400500D01*
X64737566Y-35400500D01*
X64795757Y-35419407D01*
X64831721Y-35468907D01*
X64833167Y-35475511D01*
X64833567Y-35475410D01*
X64835122Y-35481562D01*
X64890637Y-35622339D01*
X64890638Y-35622341D01*
X64890639Y-35622342D01*
X64982078Y-35742922D01*
X65102658Y-35834361D01*
X65102659Y-35834361D01*
X65102660Y-35834362D01*
X65173047Y-35862119D01*
X65243436Y-35889877D01*
X65331898Y-35900500D01*
X65331900Y-35900500D01*
X66668100Y-35900500D01*
X66668102Y-35900500D01*
X66756564Y-35889877D01*
X66897342Y-35834361D01*
X67017922Y-35742922D01*
X67109361Y-35622342D01*
X67164877Y-35481564D01*
X67175500Y-35393102D01*
X67175500Y-34606898D01*
X67164877Y-34518436D01*
X67118369Y-34400500D01*
X67109362Y-34377660D01*
X67109361Y-34377659D01*
X67109361Y-34377658D01*
X67017922Y-34257078D01*
X66897342Y-34165639D01*
X66897341Y-34165638D01*
X66897339Y-34165637D01*
X66756565Y-34110123D01*
X66668106Y-34099500D01*
X66668102Y-34099500D01*
X65331898Y-34099500D01*
X65331893Y-34099500D01*
X65243434Y-34110123D01*
X65102660Y-34165637D01*
X65102656Y-34165640D01*
X64982081Y-34257075D01*
X64982075Y-34257081D01*
X64890640Y-34377656D01*
X64890637Y-34377660D01*
X64835122Y-34518437D01*
X64833567Y-34524590D01*
X64830484Y-34523810D01*
X64810311Y-34567650D01*
X64756948Y-34597584D01*
X64737566Y-34599500D01*
X59556901Y-34599500D01*
X59498710Y-34580593D01*
X59486897Y-34570504D01*
X58927241Y-34010848D01*
X58899464Y-33956331D01*
X58898952Y-33929036D01*
X58900499Y-33916155D01*
X58900500Y-33916143D01*
X58900500Y-33383857D01*
X58900499Y-33383851D01*
X58890359Y-33299410D01*
X58837364Y-33165025D01*
X58750078Y-33049922D01*
X58634975Y-32962636D01*
X58634974Y-32962635D01*
X58634972Y-32962634D01*
X58500591Y-32909641D01*
X58416148Y-32899500D01*
X58416144Y-32899500D01*
X57583856Y-32899500D01*
X57583851Y-32899500D01*
X57499408Y-32909641D01*
X57365027Y-32962634D01*
X57249922Y-33049922D01*
X57162634Y-33165027D01*
X57109641Y-33299408D01*
X57099500Y-33383851D01*
X57099500Y-33916148D01*
X57109641Y-34000591D01*
X57162634Y-34134972D01*
X57162635Y-34134974D01*
X57162636Y-34134975D01*
X57249922Y-34250078D01*
X57365025Y-34337364D01*
X57365026Y-34337364D01*
X57365027Y-34337365D01*
X57395462Y-34349367D01*
X57499410Y-34390359D01*
X57583856Y-34400500D01*
X58143099Y-34400500D01*
X58201290Y-34419407D01*
X58213103Y-34429496D01*
X59029520Y-35245913D01*
X59029519Y-35245913D01*
X59104087Y-35320480D01*
X59195413Y-35373207D01*
X59297273Y-35400500D01*
X59326300Y-35400500D01*
X59384491Y-35419407D01*
X59420455Y-35468907D01*
X59425300Y-35499500D01*
X59425300Y-36379010D01*
X59406393Y-36437201D01*
X59356893Y-36473165D01*
X59314497Y-36477304D01*
X59291151Y-36474500D01*
X59291144Y-36474500D01*
X58708856Y-36474500D01*
X58708851Y-36474500D01*
X58624408Y-36484641D01*
X58490027Y-36537634D01*
X58374922Y-36624922D01*
X58287634Y-36740028D01*
X58279041Y-36761819D01*
X58240105Y-36809016D01*
X58186944Y-36824500D01*
X56369400Y-36824500D01*
X56311209Y-36805593D01*
X56299396Y-36795504D01*
X53955962Y-34452069D01*
X53928185Y-34397552D01*
X53932522Y-34349367D01*
X53936722Y-34337364D01*
X53972646Y-34234699D01*
X53975499Y-34204273D01*
X53975500Y-34204273D01*
X53975500Y-33795722D01*
X53972646Y-33765305D01*
X53972646Y-33765301D01*
X53932520Y-33650629D01*
X53931147Y-33589462D01*
X53955959Y-33547932D01*
X56724396Y-30779496D01*
X56778913Y-30751719D01*
X56794400Y-30750500D01*
X57061944Y-30750500D01*
X57120135Y-30769407D01*
X57154041Y-30813181D01*
X57162634Y-30834971D01*
X57162636Y-30834975D01*
X57249922Y-30950078D01*
X57365025Y-31037364D01*
X57365026Y-31037364D01*
X57365027Y-31037365D01*
X57432217Y-31063861D01*
X57499410Y-31090359D01*
X57583856Y-31100500D01*
X57583858Y-31100500D01*
X58416142Y-31100500D01*
X58416144Y-31100500D01*
X58500590Y-31090359D01*
X58634975Y-31037364D01*
X58750078Y-30950078D01*
X58837364Y-30834975D01*
X58845959Y-30813181D01*
X58884895Y-30765984D01*
X58938056Y-30750500D01*
X64044799Y-30750500D01*
X64102990Y-30769407D01*
X64114803Y-30779496D01*
X64754714Y-31419407D01*
X65362571Y-32027263D01*
X65390348Y-32081780D01*
X65380777Y-32142212D01*
X65337512Y-32185477D01*
X65330455Y-32188730D01*
X65298454Y-32201985D01*
X65150965Y-32300535D01*
X65025535Y-32425965D01*
X64926985Y-32573454D01*
X64926985Y-32573455D01*
X64859106Y-32737332D01*
X64859106Y-32737334D01*
X64824500Y-32911306D01*
X64824500Y-33088693D01*
X64859106Y-33262665D01*
X64859106Y-33262667D01*
X64926985Y-33426544D01*
X64926985Y-33426545D01*
X64990867Y-33522150D01*
X65025536Y-33574035D01*
X65150965Y-33699464D01*
X65298453Y-33798013D01*
X65462334Y-33865894D01*
X65636309Y-33900500D01*
X65636310Y-33900500D01*
X66363690Y-33900500D01*
X66363691Y-33900500D01*
X66537666Y-33865894D01*
X66701547Y-33798013D01*
X66849035Y-33699464D01*
X66974464Y-33574035D01*
X67073013Y-33426547D01*
X67140894Y-33262666D01*
X67175500Y-33088691D01*
X67175500Y-32911309D01*
X67140894Y-32737334D01*
X67106953Y-32655393D01*
X67073014Y-32573455D01*
X67073014Y-32573454D01*
X66974464Y-32425965D01*
X66849034Y-32300535D01*
X66701544Y-32201985D01*
X66537667Y-32134106D01*
X66478214Y-32122280D01*
X66424830Y-32092383D01*
X66401902Y-32050805D01*
X66400501Y-32045576D01*
X66400501Y-32045573D01*
X66373207Y-31943713D01*
X66340783Y-31887553D01*
X66340783Y-31887552D01*
X66330631Y-31869970D01*
X66320480Y-31852387D01*
X66245913Y-31777820D01*
X66245910Y-31777818D01*
X64497613Y-30029520D01*
X64497610Y-30029518D01*
X64497608Y-30029516D01*
X64406291Y-29976794D01*
X64406293Y-29976794D01*
X64366770Y-29966204D01*
X64304427Y-29949500D01*
X64304425Y-29949500D01*
X58938056Y-29949500D01*
X58879865Y-29930593D01*
X58845959Y-29886819D01*
X58837365Y-29865028D01*
X58837364Y-29865025D01*
X58750078Y-29749922D01*
X58634975Y-29662636D01*
X58634974Y-29662635D01*
X58634972Y-29662634D01*
X58500591Y-29609641D01*
X58416148Y-29599500D01*
X58416144Y-29599500D01*
X57583856Y-29599500D01*
X57583851Y-29599500D01*
X57499408Y-29609641D01*
X57365027Y-29662634D01*
X57324218Y-29693581D01*
X57249922Y-29749922D01*
X57170603Y-29854520D01*
X57162634Y-29865028D01*
X57154041Y-29886819D01*
X57115105Y-29934016D01*
X57061944Y-29949500D01*
X56646306Y-29949500D01*
X56646290Y-29949499D01*
X56640227Y-29949499D01*
X56534774Y-29949499D01*
X56432913Y-29976793D01*
X56432911Y-29976793D01*
X56432907Y-29976795D01*
X56341587Y-30029519D01*
X56267019Y-30104086D01*
X56267020Y-30104087D01*
X53000603Y-33370504D01*
X52946086Y-33398281D01*
X52930599Y-33399500D01*
X52295725Y-33399500D01*
X52265305Y-33402353D01*
X52265301Y-33402354D01*
X52221379Y-33417723D01*
X52160209Y-33419095D01*
X52109915Y-33384251D01*
X52089707Y-33326499D01*
X52095238Y-33291579D01*
X52097646Y-33284699D01*
X52100499Y-33254273D01*
X52100500Y-33254273D01*
X52100500Y-32845727D01*
X52100499Y-32845725D01*
X52097646Y-32815305D01*
X52097646Y-32815301D01*
X52052793Y-32687118D01*
X52041965Y-32672447D01*
X51972154Y-32577855D01*
X51972152Y-32577853D01*
X51972150Y-32577850D01*
X51972146Y-32577847D01*
X51972144Y-32577845D01*
X51862883Y-32497207D01*
X51734703Y-32452355D01*
X51734694Y-32452353D01*
X51704274Y-32449500D01*
X51704266Y-32449500D01*
X50420734Y-32449500D01*
X50420725Y-32449500D01*
X50390305Y-32452353D01*
X50390296Y-32452355D01*
X50262116Y-32497207D01*
X50152855Y-32577845D01*
X50152845Y-32577855D01*
X50072207Y-32687116D01*
X50027355Y-32815296D01*
X50027353Y-32815305D01*
X50024500Y-32845725D01*
X50024500Y-33254274D01*
X50027353Y-33284694D01*
X50027353Y-33284697D01*
X50027354Y-33284699D01*
X50050187Y-33349953D01*
X50067478Y-33399368D01*
X50068850Y-33460538D01*
X50044037Y-33502069D01*
X48150603Y-35395504D01*
X48096086Y-35423281D01*
X48080599Y-35424500D01*
X47799666Y-35424500D01*
X47741475Y-35405593D01*
X47720413Y-35384829D01*
X47632549Y-35267458D01*
X47632548Y-35267457D01*
X47632546Y-35267454D01*
X47559069Y-35212449D01*
X47517329Y-35181202D01*
X47382488Y-35130910D01*
X47382483Y-35130909D01*
X47382481Y-35130908D01*
X47382477Y-35130908D01*
X47351249Y-35127550D01*
X47322873Y-35124500D01*
X47322870Y-35124500D01*
X46906901Y-35124500D01*
X46848710Y-35105593D01*
X46836897Y-35095504D01*
X46440996Y-34699603D01*
X46413219Y-34645086D01*
X46412000Y-34629599D01*
X46412000Y-34293800D01*
X46413707Y-34288543D01*
X46412576Y-34283133D01*
X46421561Y-34264373D01*
X46430907Y-34235609D01*
X46437644Y-34227318D01*
X46439278Y-34225514D01*
X46544480Y-34120313D01*
X46556496Y-34099500D01*
X46597207Y-34028987D01*
X46624500Y-33927127D01*
X46624500Y-33621473D01*
X46624500Y-31117021D01*
X46643407Y-31058830D01*
X46692907Y-31022866D01*
X46742813Y-31019923D01*
X46896535Y-31050500D01*
X46896536Y-31050500D01*
X47103464Y-31050500D01*
X47103465Y-31050500D01*
X47306420Y-31010130D01*
X47497598Y-30930941D01*
X47669655Y-30815977D01*
X47815977Y-30669655D01*
X47930941Y-30497598D01*
X48010130Y-30306420D01*
X48050500Y-30103465D01*
X48050500Y-29896535D01*
X48010130Y-29693580D01*
X47930941Y-29502402D01*
X47815977Y-29330345D01*
X47669655Y-29184023D01*
X47669651Y-29184020D01*
X47497597Y-29069058D01*
X47306418Y-28989869D01*
X47103467Y-28949500D01*
X47103465Y-28949500D01*
X46896535Y-28949500D01*
X46896532Y-28949500D01*
X46693581Y-28989869D01*
X46502402Y-29069058D01*
X46330348Y-29184020D01*
X46184020Y-29330348D01*
X46069058Y-29502402D01*
X45989869Y-29693581D01*
X45949500Y-29896532D01*
X45949500Y-30103467D01*
X45989869Y-30306418D01*
X46004775Y-30342404D01*
X46006669Y-30366486D01*
X46011824Y-30390083D01*
X46008996Y-30396055D01*
X46009574Y-30403401D01*
X45987252Y-30446118D01*
X45985334Y-30448272D01*
X45903520Y-30530087D01*
X45886959Y-30558769D01*
X45880229Y-30566330D01*
X45862132Y-30576913D01*
X45846555Y-30590940D01*
X45833350Y-30593746D01*
X45827414Y-30597219D01*
X45820330Y-30596514D01*
X45806287Y-30599500D01*
X43581108Y-30599500D01*
X43522917Y-30580593D01*
X43488350Y-30535098D01*
X43468796Y-30482669D01*
X43382546Y-30367454D01*
X43323177Y-30323010D01*
X43267329Y-30281202D01*
X43132488Y-30230910D01*
X43132483Y-30230909D01*
X43132481Y-30230908D01*
X43132477Y-30230908D01*
X43101249Y-30227550D01*
X43072873Y-30224500D01*
X43072870Y-30224500D01*
X42577133Y-30224500D01*
X42577129Y-30224500D01*
X42577128Y-30224501D01*
X42569949Y-30225272D01*
X42517519Y-30230908D01*
X42517514Y-30230909D01*
X42382670Y-30281202D01*
X42267458Y-30367450D01*
X42267450Y-30367458D01*
X42181202Y-30482670D01*
X42130910Y-30617511D01*
X42130908Y-30617522D01*
X42124500Y-30677129D01*
X42124500Y-31322866D01*
X42124501Y-31322870D01*
X42130908Y-31382480D01*
X42130909Y-31382485D01*
X42181202Y-31517329D01*
X42252815Y-31612991D01*
X42267454Y-31632546D01*
X42267457Y-31632548D01*
X42267458Y-31632549D01*
X42382670Y-31718797D01*
X42517511Y-31769089D01*
X42517512Y-31769089D01*
X42517517Y-31769091D01*
X42577127Y-31775500D01*
X43072872Y-31775499D01*
X43132483Y-31769091D01*
X43199907Y-31743943D01*
X43267329Y-31718797D01*
X43267329Y-31718796D01*
X43267331Y-31718796D01*
X43382546Y-31632546D01*
X43468796Y-31517331D01*
X43488350Y-31464901D01*
X43526400Y-31416989D01*
X43581108Y-31400500D01*
X45724500Y-31400500D01*
X45782691Y-31419407D01*
X45818655Y-31468907D01*
X45823500Y-31499500D01*
X45823500Y-33667499D01*
X45804593Y-33725690D01*
X45794504Y-33737502D01*
X45691020Y-33840986D01*
X45691016Y-33840991D01*
X45638295Y-33932306D01*
X45638293Y-33932310D01*
X45638293Y-33932312D01*
X45622397Y-33991639D01*
X45611000Y-34034173D01*
X45611000Y-34783773D01*
X45611000Y-34889227D01*
X45632061Y-34967828D01*
X45638294Y-34991092D01*
X45691016Y-35082408D01*
X45691017Y-35082409D01*
X45691018Y-35082410D01*
X45691020Y-35082413D01*
X45949104Y-35340497D01*
X46195504Y-35586897D01*
X46223281Y-35641414D01*
X46224500Y-35656901D01*
X46224500Y-36072866D01*
X46224501Y-36072870D01*
X46230908Y-36132480D01*
X46230909Y-36132485D01*
X46281202Y-36267329D01*
X46364807Y-36379010D01*
X46367454Y-36382546D01*
X46367457Y-36382548D01*
X46367458Y-36382549D01*
X46482670Y-36468797D01*
X46617511Y-36519089D01*
X46617512Y-36519089D01*
X46617517Y-36519091D01*
X46677127Y-36525500D01*
X47322872Y-36525499D01*
X47382483Y-36519091D01*
X47449907Y-36493943D01*
X47517329Y-36468797D01*
X47517329Y-36468796D01*
X47517331Y-36468796D01*
X47632546Y-36382546D01*
X47718796Y-36267331D01*
X47718795Y-36267331D01*
X47720413Y-36265171D01*
X47770421Y-36229918D01*
X47799666Y-36225500D01*
X48340225Y-36225500D01*
X48340227Y-36225500D01*
X48442088Y-36198207D01*
X48442090Y-36198205D01*
X48442092Y-36198205D01*
X48533408Y-36145483D01*
X48533408Y-36145482D01*
X48533413Y-36145480D01*
X50999396Y-33679495D01*
X51053913Y-33651719D01*
X51069400Y-33650500D01*
X51704273Y-33650500D01*
X51704273Y-33650499D01*
X51734699Y-33647646D01*
X51778621Y-33632276D01*
X51839787Y-33630903D01*
X51890083Y-33665746D01*
X51910292Y-33723498D01*
X51904763Y-33758414D01*
X51902355Y-33765296D01*
X51902353Y-33765305D01*
X51899500Y-33795722D01*
X51899500Y-34204274D01*
X51902353Y-34234694D01*
X51902355Y-34234703D01*
X51947207Y-34362883D01*
X52027845Y-34472144D01*
X52027847Y-34472146D01*
X52027850Y-34472150D01*
X52027853Y-34472152D01*
X52027855Y-34472154D01*
X52137116Y-34552792D01*
X52137117Y-34552792D01*
X52137118Y-34552793D01*
X52265301Y-34597646D01*
X52295725Y-34600499D01*
X52295727Y-34600500D01*
X52295734Y-34600500D01*
X52930599Y-34600500D01*
X52988790Y-34619407D01*
X53000603Y-34629496D01*
X55842018Y-37470910D01*
X55842020Y-37470913D01*
X55916587Y-37545480D01*
X55916589Y-37545481D01*
X56007909Y-37598205D01*
X56007913Y-37598207D01*
X56109770Y-37625500D01*
X56109772Y-37625501D01*
X56109773Y-37625501D01*
X56221290Y-37625501D01*
X56221306Y-37625500D01*
X57500500Y-37625500D01*
X57558691Y-37644407D01*
X57594655Y-37693907D01*
X57599500Y-37724500D01*
X57599500Y-41962689D01*
X57580593Y-42020880D01*
X57538387Y-42054152D01*
X57502405Y-42069056D01*
X57330348Y-42184020D01*
X57184020Y-42330348D01*
X57069058Y-42502402D01*
X56989869Y-42693581D01*
X56949500Y-42896532D01*
X56949500Y-43103467D01*
X56989869Y-43306418D01*
X57069058Y-43497597D01*
X57090575Y-43529799D01*
X57107183Y-43588687D01*
X57086005Y-43646091D01*
X57035131Y-43680083D01*
X57008259Y-43683800D01*
X33162901Y-43683800D01*
X33104710Y-43664893D01*
X33092898Y-43654804D01*
X32827613Y-43389520D01*
X32827608Y-43389516D01*
X32736291Y-43336794D01*
X32736293Y-43336794D01*
X32696770Y-43326204D01*
X32634427Y-43309500D01*
X32634425Y-43309500D01*
X32577839Y-43309500D01*
X32519648Y-43290593D01*
X32489631Y-43255447D01*
X32413996Y-43107006D01*
X32307553Y-42960499D01*
X32179501Y-42832447D01*
X32032994Y-42726004D01*
X32032993Y-42726003D01*
X32032991Y-42726002D01*
X31871637Y-42643788D01*
X31699406Y-42587828D01*
X31520549Y-42559500D01*
X31520546Y-42559500D01*
X31339454Y-42559500D01*
X31339451Y-42559500D01*
X31160593Y-42587828D01*
X30988362Y-42643788D01*
X30827008Y-42726002D01*
X30753752Y-42779225D01*
X30680499Y-42832447D01*
X30552447Y-42960499D01*
X30499225Y-43033752D01*
X30446002Y-43107008D01*
X30363788Y-43268362D01*
X30307828Y-43440593D01*
X30279500Y-43619450D01*
X28500000Y-43619450D01*
X28500000Y-38539450D01*
X30279500Y-38539450D01*
X30279500Y-38720549D01*
X30307828Y-38899406D01*
X30363788Y-39071637D01*
X30391278Y-39125590D01*
X30446004Y-39232994D01*
X30552447Y-39379501D01*
X30680499Y-39507553D01*
X30827006Y-39613996D01*
X30988361Y-39696211D01*
X31160591Y-39752171D01*
X31232136Y-39763502D01*
X31339451Y-39780500D01*
X31339454Y-39780500D01*
X31520549Y-39780500D01*
X31609977Y-39766335D01*
X31699409Y-39752171D01*
X31871639Y-39696211D01*
X32032994Y-39613996D01*
X32179501Y-39507553D01*
X32307553Y-39379501D01*
X32413996Y-39232994D01*
X32496211Y-39071639D01*
X32552171Y-38899409D01*
X32580500Y-38720546D01*
X32580500Y-38539454D01*
X32580500Y-38539450D01*
X32552171Y-38360593D01*
X32552171Y-38360591D01*
X32496211Y-38188361D01*
X32413996Y-38027006D01*
X32307553Y-37880499D01*
X32179501Y-37752447D01*
X32032994Y-37646004D01*
X32032993Y-37646003D01*
X32032991Y-37646002D01*
X31871637Y-37563788D01*
X31699406Y-37507828D01*
X31520549Y-37479500D01*
X31520546Y-37479500D01*
X31339454Y-37479500D01*
X31339451Y-37479500D01*
X31160593Y-37507828D01*
X30988362Y-37563788D01*
X30827008Y-37646002D01*
X30761073Y-37693907D01*
X30680499Y-37752447D01*
X30552447Y-37880499D01*
X30529296Y-37912364D01*
X30446002Y-38027008D01*
X30363788Y-38188362D01*
X30307828Y-38360593D01*
X30279500Y-38539450D01*
X28500000Y-38539450D01*
X28500000Y-35999450D01*
X30279500Y-35999450D01*
X30279500Y-36180549D01*
X30307828Y-36359406D01*
X30361793Y-36525498D01*
X30363789Y-36531639D01*
X30446004Y-36692994D01*
X30552447Y-36839501D01*
X30680499Y-36967553D01*
X30827006Y-37073996D01*
X30988361Y-37156211D01*
X31160591Y-37212171D01*
X31232136Y-37223502D01*
X31339451Y-37240500D01*
X31339454Y-37240500D01*
X31520549Y-37240500D01*
X31609977Y-37226335D01*
X31699409Y-37212171D01*
X31871639Y-37156211D01*
X32032994Y-37073996D01*
X32179501Y-36967553D01*
X32307553Y-36839501D01*
X32413996Y-36692994D01*
X32496211Y-36531639D01*
X32552171Y-36359409D01*
X32580500Y-36180546D01*
X32580500Y-35999454D01*
X32580500Y-35999450D01*
X32554352Y-35834361D01*
X32552171Y-35820591D01*
X32496211Y-35648361D01*
X32413996Y-35487006D01*
X32307553Y-35340499D01*
X32179501Y-35212447D01*
X32032994Y-35106004D01*
X32032993Y-35106003D01*
X32032991Y-35106002D01*
X31871637Y-35023788D01*
X31699406Y-34967828D01*
X31520549Y-34939500D01*
X31520546Y-34939500D01*
X31339454Y-34939500D01*
X31339451Y-34939500D01*
X31160593Y-34967828D01*
X30988362Y-35023788D01*
X30827008Y-35106002D01*
X30753752Y-35159225D01*
X30680499Y-35212447D01*
X30552447Y-35340499D01*
X30521809Y-35382669D01*
X30446002Y-35487008D01*
X30363788Y-35648362D01*
X30307828Y-35820593D01*
X30279500Y-35999450D01*
X28500000Y-35999450D01*
X28500000Y-33459450D01*
X30279500Y-33459450D01*
X30279500Y-33640549D01*
X30307828Y-33819406D01*
X30363788Y-33991637D01*
X30436822Y-34134975D01*
X30446004Y-34152994D01*
X30552447Y-34299501D01*
X30680499Y-34427553D01*
X30827006Y-34533996D01*
X30988361Y-34616211D01*
X31160591Y-34672171D01*
X31232136Y-34683502D01*
X31339451Y-34700500D01*
X31339454Y-34700500D01*
X31520549Y-34700500D01*
X31609977Y-34686335D01*
X31699409Y-34672171D01*
X31871639Y-34616211D01*
X32032994Y-34533996D01*
X32179501Y-34427553D01*
X32307553Y-34299501D01*
X32413996Y-34152994D01*
X32496211Y-33991639D01*
X32552171Y-33819409D01*
X32569736Y-33708507D01*
X32580500Y-33640549D01*
X32580500Y-33459450D01*
X32559442Y-33326499D01*
X32552171Y-33280591D01*
X32496211Y-33108361D01*
X32413996Y-32947006D01*
X32307553Y-32800499D01*
X32179501Y-32672447D01*
X32032994Y-32566004D01*
X32032993Y-32566003D01*
X32032991Y-32566002D01*
X31871637Y-32483788D01*
X31699406Y-32427828D01*
X31520549Y-32399500D01*
X31520546Y-32399500D01*
X31339454Y-32399500D01*
X31339451Y-32399500D01*
X31160593Y-32427828D01*
X30988362Y-32483788D01*
X30827008Y-32566002D01*
X30810708Y-32577845D01*
X30680499Y-32672447D01*
X30552447Y-32800499D01*
X30541693Y-32815301D01*
X30446002Y-32947008D01*
X30363788Y-33108362D01*
X30307828Y-33280593D01*
X30279500Y-33459450D01*
X28500000Y-33459450D01*
X28500000Y-30919450D01*
X30279500Y-30919450D01*
X30279500Y-31100549D01*
X30307828Y-31279406D01*
X30363788Y-31451637D01*
X30388175Y-31499500D01*
X30446004Y-31612994D01*
X30552447Y-31759501D01*
X30680499Y-31887553D01*
X30827006Y-31993996D01*
X30988361Y-32076211D01*
X31160591Y-32132171D01*
X31223988Y-32142212D01*
X31339451Y-32160500D01*
X31339454Y-32160500D01*
X31520549Y-32160500D01*
X31609977Y-32146335D01*
X31699409Y-32132171D01*
X31871639Y-32076211D01*
X32032994Y-31993996D01*
X32179501Y-31887553D01*
X32307553Y-31759501D01*
X32413996Y-31612994D01*
X32496211Y-31451639D01*
X32552171Y-31279409D01*
X32580500Y-31100546D01*
X32580500Y-30919454D01*
X32580500Y-30919450D01*
X32552171Y-30740593D01*
X32552171Y-30740591D01*
X32496211Y-30568361D01*
X32413996Y-30407006D01*
X32307553Y-30260499D01*
X32179501Y-30132447D01*
X32032994Y-30026004D01*
X32032993Y-30026003D01*
X32032991Y-30026002D01*
X31871637Y-29943788D01*
X31699406Y-29887828D01*
X31520549Y-29859500D01*
X31520546Y-29859500D01*
X31339454Y-29859500D01*
X31339451Y-29859500D01*
X31160593Y-29887828D01*
X30988362Y-29943788D01*
X30827008Y-30026002D01*
X30753752Y-30079225D01*
X30680499Y-30132447D01*
X30552447Y-30260499D01*
X30537404Y-30281204D01*
X30446002Y-30407008D01*
X30363788Y-30568362D01*
X30307828Y-30740593D01*
X30279500Y-30919450D01*
X28500000Y-30919450D01*
X28500000Y-28379450D01*
X30279500Y-28379450D01*
X30279500Y-28560549D01*
X30307828Y-28739406D01*
X30363788Y-28911637D01*
X30434542Y-29050500D01*
X30446004Y-29072994D01*
X30552447Y-29219501D01*
X30680499Y-29347553D01*
X30827006Y-29453996D01*
X30988361Y-29536211D01*
X31160591Y-29592171D01*
X31206865Y-29599500D01*
X31339451Y-29620500D01*
X31339454Y-29620500D01*
X31520549Y-29620500D01*
X31609977Y-29606335D01*
X31699409Y-29592171D01*
X31871639Y-29536211D01*
X32032994Y-29453996D01*
X32179501Y-29347553D01*
X32307553Y-29219501D01*
X32413996Y-29072994D01*
X32496211Y-28911639D01*
X32552171Y-28739409D01*
X32580500Y-28560546D01*
X32580500Y-28379454D01*
X32580500Y-28379450D01*
X32552171Y-28200593D01*
X32552171Y-28200591D01*
X32496211Y-28028361D01*
X32496210Y-28028359D01*
X32496208Y-28028353D01*
X32449466Y-27936618D01*
X32449464Y-27936616D01*
X32429040Y-27896532D01*
X37949500Y-27896532D01*
X37949500Y-28103467D01*
X37989869Y-28306418D01*
X38069058Y-28497597D01*
X38069059Y-28497598D01*
X38184023Y-28669655D01*
X38330345Y-28815977D01*
X38502402Y-28930941D01*
X38693580Y-29010130D01*
X38896535Y-29050500D01*
X38896536Y-29050500D01*
X39103464Y-29050500D01*
X39103465Y-29050500D01*
X39306420Y-29010130D01*
X39342403Y-28995224D01*
X39403398Y-28990424D01*
X39450292Y-29016685D01*
X40641668Y-30208061D01*
X40669445Y-30262578D01*
X40659874Y-30323010D01*
X40630995Y-30357317D01*
X40617457Y-30367451D01*
X40617450Y-30367458D01*
X40531202Y-30482670D01*
X40480910Y-30617511D01*
X40480908Y-30617522D01*
X40474500Y-30677129D01*
X40474500Y-31322866D01*
X40474501Y-31322870D01*
X40480908Y-31382480D01*
X40480909Y-31382485D01*
X40531202Y-31517329D01*
X40602815Y-31612991D01*
X40617454Y-31632546D01*
X40617457Y-31632548D01*
X40617458Y-31632549D01*
X40732670Y-31718797D01*
X40867511Y-31769089D01*
X40867512Y-31769089D01*
X40867517Y-31769091D01*
X40927127Y-31775500D01*
X41422872Y-31775499D01*
X41482483Y-31769091D01*
X41549907Y-31743943D01*
X41617329Y-31718797D01*
X41617329Y-31718796D01*
X41617331Y-31718796D01*
X41732546Y-31632546D01*
X41818796Y-31517331D01*
X41869091Y-31382483D01*
X41875500Y-31322873D01*
X41875499Y-30677128D01*
X41869091Y-30617517D01*
X41862371Y-30599500D01*
X41818797Y-30482670D01*
X41732549Y-30367458D01*
X41732548Y-30367457D01*
X41732546Y-30367454D01*
X41673177Y-30323010D01*
X41615171Y-30279586D01*
X41579918Y-30229577D01*
X41575500Y-30200333D01*
X41575500Y-30122274D01*
X41575500Y-30122273D01*
X41548207Y-30020413D01*
X41495480Y-29929087D01*
X41462925Y-29896532D01*
X41420913Y-29854519D01*
X41420913Y-29854520D01*
X40016685Y-28450292D01*
X39988908Y-28395775D01*
X39995224Y-28342403D01*
X40010130Y-28306420D01*
X40050500Y-28103465D01*
X40050500Y-27896535D01*
X40010130Y-27693580D01*
X39930941Y-27502402D01*
X39815977Y-27330345D01*
X39669655Y-27184023D01*
X39497598Y-27069059D01*
X39497599Y-27069059D01*
X39497597Y-27069058D01*
X39306418Y-26989869D01*
X39103467Y-26949500D01*
X39103465Y-26949500D01*
X38896535Y-26949500D01*
X38896532Y-26949500D01*
X38693581Y-26989869D01*
X38502402Y-27069058D01*
X38330348Y-27184020D01*
X38184020Y-27330348D01*
X38069058Y-27502402D01*
X37989869Y-27693581D01*
X37949500Y-27896532D01*
X32429040Y-27896532D01*
X32413997Y-27867008D01*
X32413996Y-27867006D01*
X32307553Y-27720499D01*
X32179501Y-27592447D01*
X32032994Y-27486004D01*
X32032993Y-27486003D01*
X32032991Y-27486002D01*
X31871637Y-27403788D01*
X31699406Y-27347828D01*
X31520549Y-27319500D01*
X31520546Y-27319500D01*
X31339454Y-27319500D01*
X31339451Y-27319500D01*
X31160593Y-27347828D01*
X30988362Y-27403788D01*
X30827008Y-27486002D01*
X30753752Y-27539225D01*
X30680499Y-27592447D01*
X30552447Y-27720499D01*
X30499225Y-27793752D01*
X30446002Y-27867008D01*
X30363788Y-28028362D01*
X30307828Y-28200593D01*
X30279500Y-28379450D01*
X28500000Y-28379450D01*
X28500000Y-23299450D01*
X30279500Y-23299450D01*
X30279500Y-23480549D01*
X30307828Y-23659406D01*
X30307829Y-23659409D01*
X30363789Y-23831639D01*
X30446004Y-23992994D01*
X30552447Y-24139501D01*
X30680499Y-24267553D01*
X30827006Y-24373996D01*
X30988361Y-24456211D01*
X31160591Y-24512171D01*
X31232136Y-24523502D01*
X31339451Y-24540500D01*
X31339454Y-24540500D01*
X31520549Y-24540500D01*
X31609977Y-24526335D01*
X31699409Y-24512171D01*
X31871639Y-24456211D01*
X32032994Y-24373996D01*
X32179501Y-24267553D01*
X32307553Y-24139501D01*
X32413996Y-23992994D01*
X32496211Y-23831639D01*
X32552171Y-23659409D01*
X32580500Y-23480546D01*
X32580500Y-23299454D01*
X32580500Y-23299450D01*
X32552171Y-23120593D01*
X32552171Y-23120591D01*
X32496211Y-22948361D01*
X32413996Y-22787006D01*
X32307553Y-22640499D01*
X32179501Y-22512447D01*
X32032994Y-22406004D01*
X32032993Y-22406003D01*
X32032991Y-22406002D01*
X31871637Y-22323788D01*
X31699406Y-22267828D01*
X31520549Y-22239500D01*
X31520546Y-22239500D01*
X31339454Y-22239500D01*
X31339451Y-22239500D01*
X31160593Y-22267828D01*
X30988362Y-22323788D01*
X30827008Y-22406002D01*
X30753752Y-22459225D01*
X30680499Y-22512447D01*
X30552447Y-22640499D01*
X30531267Y-22669651D01*
X30446002Y-22787008D01*
X30363788Y-22948362D01*
X30307828Y-23120593D01*
X30279500Y-23299450D01*
X28500000Y-23299450D01*
X28500000Y-19955130D01*
X30279500Y-19955130D01*
X30279500Y-21744860D01*
X30279501Y-21744863D01*
X30282414Y-21769990D01*
X30297650Y-21804496D01*
X30327794Y-21872765D01*
X30407235Y-21952206D01*
X30510009Y-21997585D01*
X30535135Y-22000500D01*
X32324864Y-22000499D01*
X32349991Y-21997585D01*
X32452765Y-21952206D01*
X32508439Y-21896532D01*
X40949500Y-21896532D01*
X40949500Y-22103467D01*
X40989869Y-22306418D01*
X41069058Y-22497597D01*
X41184020Y-22669651D01*
X41184023Y-22669655D01*
X41330345Y-22815977D01*
X41502402Y-22930941D01*
X41693580Y-23010130D01*
X41896535Y-23050500D01*
X41896536Y-23050500D01*
X42103464Y-23050500D01*
X42103465Y-23050500D01*
X42306420Y-23010130D01*
X42497598Y-22930941D01*
X42669655Y-22815977D01*
X42815977Y-22669655D01*
X42930941Y-22497598D01*
X42945846Y-22461615D01*
X42985582Y-22415089D01*
X43037310Y-22400500D01*
X46277725Y-22400500D01*
X46277727Y-22400500D01*
X46379588Y-22373207D01*
X46379590Y-22373205D01*
X46379592Y-22373205D01*
X46470908Y-22320483D01*
X46470908Y-22320482D01*
X46470913Y-22320480D01*
X46986896Y-21804495D01*
X47041413Y-21776719D01*
X47056900Y-21775500D01*
X47393099Y-21775500D01*
X47451290Y-21794407D01*
X47463103Y-21804496D01*
X49904518Y-24245910D01*
X49904520Y-24245913D01*
X49979087Y-24320480D01*
X49979092Y-24320483D01*
X50070409Y-24373205D01*
X50070413Y-24373207D01*
X50172270Y-24400500D01*
X50172272Y-24400501D01*
X50172273Y-24400501D01*
X50283790Y-24400501D01*
X50283806Y-24400500D01*
X52350500Y-24400500D01*
X52408691Y-24419407D01*
X52444655Y-24468907D01*
X52449500Y-24499500D01*
X52449500Y-24693106D01*
X52460123Y-24781565D01*
X52515637Y-24922339D01*
X52515638Y-24922341D01*
X52515639Y-24922342D01*
X52607078Y-25042922D01*
X52727658Y-25134361D01*
X52727659Y-25134361D01*
X52727660Y-25134362D01*
X52798047Y-25162119D01*
X52868436Y-25189877D01*
X52956898Y-25200500D01*
X54593099Y-25200500D01*
X54651290Y-25219407D01*
X54663103Y-25229496D01*
X55157687Y-25724080D01*
X55157689Y-25724081D01*
X55157690Y-25724082D01*
X55157691Y-25724083D01*
X55249008Y-25776805D01*
X55249006Y-25776805D01*
X55249010Y-25776806D01*
X55249012Y-25776807D01*
X55350873Y-25804100D01*
X63106656Y-25804100D01*
X63164847Y-25823007D01*
X63176659Y-25833096D01*
X63227681Y-25884117D01*
X63227684Y-25884120D01*
X63364616Y-25963177D01*
X63517343Y-26004100D01*
X63517345Y-26004100D01*
X63675455Y-26004100D01*
X63675457Y-26004100D01*
X63828184Y-25963177D01*
X63965116Y-25884120D01*
X64076920Y-25772316D01*
X64155977Y-25635384D01*
X64196900Y-25482657D01*
X64196900Y-25324543D01*
X64155977Y-25171816D01*
X64076920Y-25034884D01*
X63965116Y-24923080D01*
X63828184Y-24844023D01*
X63675457Y-24803100D01*
X63517343Y-24803100D01*
X63364616Y-24844023D01*
X63228963Y-24922342D01*
X63227681Y-24923082D01*
X63176659Y-24974104D01*
X63122142Y-25001881D01*
X63106656Y-25003100D01*
X59597974Y-25003100D01*
X59539783Y-24984193D01*
X59503819Y-24934693D01*
X59503819Y-24873507D01*
X59505877Y-24867781D01*
X59531384Y-24803100D01*
X59539877Y-24781564D01*
X59550500Y-24693102D01*
X59550500Y-24499500D01*
X59569407Y-24441309D01*
X59618907Y-24405345D01*
X59649500Y-24400500D01*
X59690225Y-24400500D01*
X59690227Y-24400500D01*
X59792088Y-24373207D01*
X59792090Y-24373205D01*
X59792092Y-24373205D01*
X59883408Y-24320483D01*
X59883408Y-24320482D01*
X59883413Y-24320480D01*
X63132354Y-21071538D01*
X63186869Y-21043763D01*
X63247301Y-21053334D01*
X63290566Y-21096599D01*
X63294453Y-21105225D01*
X63340637Y-21222339D01*
X63340638Y-21222341D01*
X63340639Y-21222342D01*
X63432078Y-21342922D01*
X63552658Y-21434361D01*
X63552659Y-21434361D01*
X63552660Y-21434362D01*
X63623047Y-21462119D01*
X63693436Y-21489877D01*
X63781898Y-21500500D01*
X63781900Y-21500500D01*
X64493100Y-21500500D01*
X64493102Y-21500500D01*
X64581564Y-21489877D01*
X64722342Y-21434361D01*
X64842922Y-21342922D01*
X64934361Y-21222342D01*
X64989877Y-21081564D01*
X65000500Y-20993102D01*
X65000500Y-18006898D01*
X64989877Y-17918436D01*
X64934361Y-17777658D01*
X64842922Y-17657078D01*
X64722342Y-17565639D01*
X64722341Y-17565638D01*
X64722339Y-17565637D01*
X64581565Y-17510123D01*
X64493106Y-17499500D01*
X64493102Y-17499500D01*
X63781898Y-17499500D01*
X63781893Y-17499500D01*
X63693434Y-17510123D01*
X63552660Y-17565637D01*
X63552656Y-17565640D01*
X63432081Y-17657075D01*
X63432075Y-17657081D01*
X63340640Y-17777656D01*
X63340637Y-17777660D01*
X63285123Y-17918434D01*
X63274500Y-18006893D01*
X63274500Y-19755599D01*
X63255593Y-19813790D01*
X63245504Y-19825603D01*
X59717426Y-23353680D01*
X59662909Y-23381457D01*
X59602477Y-23371886D01*
X59559212Y-23328621D01*
X59549129Y-23295483D01*
X59539877Y-23218436D01*
X59512119Y-23148047D01*
X59484362Y-23077660D01*
X59484361Y-23077659D01*
X59484361Y-23077658D01*
X59392922Y-22957078D01*
X59272342Y-22865639D01*
X59272341Y-22865638D01*
X59272339Y-22865637D01*
X59131565Y-22810123D01*
X59043106Y-22799500D01*
X59043102Y-22799500D01*
X56956898Y-22799500D01*
X56956893Y-22799500D01*
X56868434Y-22810123D01*
X56727660Y-22865637D01*
X56727656Y-22865640D01*
X56607081Y-22957075D01*
X56607075Y-22957081D01*
X56515640Y-23077656D01*
X56515637Y-23077660D01*
X56460123Y-23218434D01*
X56449500Y-23306893D01*
X56449500Y-24693106D01*
X56460123Y-24781565D01*
X56494123Y-24867781D01*
X56497882Y-24928851D01*
X56465027Y-24980466D01*
X56408108Y-25002913D01*
X56402026Y-25003100D01*
X55610501Y-25003100D01*
X55602903Y-25000631D01*
X55595014Y-25001881D01*
X55574358Y-24991356D01*
X55552310Y-24984193D01*
X55540497Y-24974104D01*
X55531513Y-24965120D01*
X55503736Y-24910603D01*
X55509420Y-24858797D01*
X55531384Y-24803100D01*
X55539877Y-24781564D01*
X55550500Y-24693102D01*
X55550500Y-23306898D01*
X55539877Y-23218436D01*
X55512119Y-23148047D01*
X55484362Y-23077660D01*
X55484361Y-23077659D01*
X55484361Y-23077658D01*
X55392922Y-22957078D01*
X55272342Y-22865639D01*
X55272341Y-22865638D01*
X55272339Y-22865637D01*
X55131565Y-22810123D01*
X55043106Y-22799500D01*
X55043102Y-22799500D01*
X52956898Y-22799500D01*
X52956893Y-22799500D01*
X52868434Y-22810123D01*
X52727660Y-22865637D01*
X52727656Y-22865640D01*
X52607081Y-22957075D01*
X52607075Y-22957081D01*
X52515640Y-23077656D01*
X52515637Y-23077660D01*
X52460123Y-23218434D01*
X52449500Y-23306893D01*
X52449500Y-23500500D01*
X52430593Y-23558691D01*
X52381093Y-23594655D01*
X52350500Y-23599500D01*
X50431900Y-23599500D01*
X50373709Y-23580593D01*
X50361896Y-23570504D01*
X48004496Y-21213103D01*
X47976719Y-21158586D01*
X47975500Y-21143099D01*
X47975500Y-20708857D01*
X47975499Y-20708851D01*
X47965359Y-20624410D01*
X47912364Y-20490025D01*
X47825078Y-20374922D01*
X47709975Y-20287636D01*
X47709974Y-20287635D01*
X47709972Y-20287634D01*
X47575591Y-20234641D01*
X47491148Y-20224500D01*
X47491144Y-20224500D01*
X46958856Y-20224500D01*
X46958851Y-20224500D01*
X46874408Y-20234641D01*
X46740027Y-20287634D01*
X46624922Y-20374922D01*
X46537634Y-20490027D01*
X46484641Y-20624408D01*
X46474500Y-20708851D01*
X46474500Y-21143099D01*
X46455593Y-21201290D01*
X46445504Y-21213103D01*
X46088103Y-21570504D01*
X46033586Y-21598281D01*
X46018099Y-21599500D01*
X43037310Y-21599500D01*
X42979119Y-21580593D01*
X42945846Y-21538385D01*
X42930942Y-21502404D01*
X42815979Y-21330348D01*
X42815977Y-21330345D01*
X42669655Y-21184023D01*
X42631586Y-21158586D01*
X42497597Y-21069058D01*
X42306418Y-20989869D01*
X42103467Y-20949500D01*
X42103465Y-20949500D01*
X41896535Y-20949500D01*
X41896532Y-20949500D01*
X41693581Y-20989869D01*
X41502402Y-21069058D01*
X41330348Y-21184020D01*
X41184020Y-21330348D01*
X41069058Y-21502402D01*
X40989869Y-21693581D01*
X40949500Y-21896532D01*
X32508439Y-21896532D01*
X32532206Y-21872765D01*
X32577585Y-21769991D01*
X32580500Y-21744865D01*
X32580499Y-19955136D01*
X32577585Y-19930009D01*
X32532206Y-19827235D01*
X32452765Y-19747794D01*
X32349991Y-19702415D01*
X32349990Y-19702414D01*
X32349988Y-19702414D01*
X32324868Y-19699500D01*
X30535139Y-19699500D01*
X30535136Y-19699501D01*
X30510009Y-19702414D01*
X30407235Y-19747794D01*
X30327794Y-19827235D01*
X30282414Y-19930011D01*
X30279500Y-19955130D01*
X28500000Y-19955130D01*
X28500000Y-15896532D01*
X38949500Y-15896532D01*
X38949500Y-16103467D01*
X38989869Y-16306418D01*
X39069058Y-16497597D01*
X39069059Y-16497598D01*
X39184023Y-16669655D01*
X39330345Y-16815977D01*
X39502402Y-16930941D01*
X39693580Y-17010130D01*
X39896535Y-17050500D01*
X39896536Y-17050500D01*
X40103464Y-17050500D01*
X40103465Y-17050500D01*
X40306420Y-17010130D01*
X40497598Y-16930941D01*
X40669655Y-16815977D01*
X40815977Y-16669655D01*
X40930941Y-16497598D01*
X40945846Y-16461615D01*
X40985582Y-16415089D01*
X41037310Y-16400500D01*
X58100500Y-16400500D01*
X58158691Y-16419407D01*
X58194655Y-16468907D01*
X58199500Y-16499500D01*
X58199500Y-18184773D01*
X58199500Y-18290227D01*
X58223570Y-18380059D01*
X58226794Y-18392092D01*
X58279516Y-18483408D01*
X58279518Y-18483410D01*
X58279520Y-18483413D01*
X58970504Y-19174396D01*
X58998281Y-19228913D01*
X58999500Y-19244400D01*
X58999500Y-20993106D01*
X59010123Y-21081565D01*
X59065637Y-21222339D01*
X59065638Y-21222341D01*
X59065639Y-21222342D01*
X59157078Y-21342922D01*
X59277658Y-21434361D01*
X59277659Y-21434361D01*
X59277660Y-21434362D01*
X59348047Y-21462119D01*
X59418436Y-21489877D01*
X59506898Y-21500500D01*
X59506900Y-21500500D01*
X60218100Y-21500500D01*
X60218102Y-21500500D01*
X60306564Y-21489877D01*
X60447342Y-21434361D01*
X60567922Y-21342922D01*
X60659361Y-21222342D01*
X60714877Y-21081564D01*
X60725500Y-20993102D01*
X60725500Y-18006898D01*
X60714877Y-17918436D01*
X60659361Y-17777658D01*
X60567922Y-17657078D01*
X60447342Y-17565639D01*
X60447341Y-17565638D01*
X60447339Y-17565637D01*
X60306565Y-17510123D01*
X60218106Y-17499500D01*
X60218102Y-17499500D01*
X59506898Y-17499500D01*
X59506893Y-17499500D01*
X59418434Y-17510123D01*
X59277660Y-17565637D01*
X59277656Y-17565640D01*
X59159319Y-17655378D01*
X59101528Y-17675473D01*
X59042962Y-17657762D01*
X59005992Y-17609009D01*
X59000500Y-17576494D01*
X59000500Y-14419506D01*
X59019407Y-14361315D01*
X59063181Y-14327409D01*
X59172339Y-14284362D01*
X59172338Y-14284362D01*
X59172342Y-14284361D01*
X59292922Y-14192922D01*
X59384361Y-14072342D01*
X59439877Y-13931564D01*
X59450500Y-13843102D01*
X59450500Y-13156898D01*
X59439877Y-13068436D01*
X59384361Y-12927658D01*
X59292922Y-12807078D01*
X59172342Y-12715639D01*
X59172341Y-12715638D01*
X59172339Y-12715637D01*
X59031565Y-12660123D01*
X58943106Y-12649500D01*
X58943102Y-12649500D01*
X58256898Y-12649500D01*
X58256893Y-12649500D01*
X58168434Y-12660123D01*
X58027660Y-12715637D01*
X58027656Y-12715640D01*
X57907081Y-12807075D01*
X57907075Y-12807081D01*
X57815640Y-12927656D01*
X57815637Y-12927660D01*
X57760123Y-13068434D01*
X57749500Y-13156893D01*
X57749500Y-13843106D01*
X57760123Y-13931565D01*
X57815637Y-14072339D01*
X57815638Y-14072341D01*
X57815639Y-14072342D01*
X57907078Y-14192922D01*
X58027658Y-14284361D01*
X58027659Y-14284361D01*
X58027660Y-14284362D01*
X58136819Y-14327409D01*
X58184016Y-14366345D01*
X58199500Y-14419506D01*
X58199500Y-15500500D01*
X58180593Y-15558691D01*
X58131093Y-15594655D01*
X58100500Y-15599500D01*
X41037310Y-15599500D01*
X40979119Y-15580593D01*
X40945846Y-15538385D01*
X40930942Y-15502404D01*
X40815979Y-15330348D01*
X40815977Y-15330345D01*
X40669655Y-15184023D01*
X40497598Y-15069059D01*
X40497599Y-15069059D01*
X40497597Y-15069058D01*
X40306418Y-14989869D01*
X40103467Y-14949500D01*
X40103465Y-14949500D01*
X39896535Y-14949500D01*
X39896532Y-14949500D01*
X39693581Y-14989869D01*
X39502402Y-15069058D01*
X39330348Y-15184020D01*
X39184020Y-15330348D01*
X39069058Y-15502402D01*
X38989869Y-15693581D01*
X38949500Y-15896532D01*
X28500000Y-15896532D01*
X28500000Y-10143709D01*
X29649500Y-10143709D01*
X29649500Y-10356290D01*
X29682752Y-10566238D01*
X29748443Y-10768412D01*
X29844948Y-10957815D01*
X29844950Y-10957819D01*
X29969891Y-11129786D01*
X29969893Y-11129788D01*
X29969896Y-11129792D01*
X30120208Y-11280104D01*
X30120211Y-11280106D01*
X30120213Y-11280108D01*
X30292180Y-11405049D01*
X30292184Y-11405051D01*
X30481588Y-11501557D01*
X30683757Y-11567246D01*
X30683758Y-11567246D01*
X30683761Y-11567247D01*
X30893710Y-11600500D01*
X30893713Y-11600500D01*
X31106290Y-11600500D01*
X31316238Y-11567247D01*
X31316239Y-11567246D01*
X31316243Y-11567246D01*
X31518412Y-11501557D01*
X31707816Y-11405051D01*
X31879792Y-11280104D01*
X32030104Y-11129792D01*
X32136994Y-10982669D01*
X32155049Y-10957819D01*
X32155051Y-10957816D01*
X32251557Y-10768412D01*
X32317246Y-10566243D01*
X32350500Y-10356287D01*
X32350500Y-10143713D01*
X32350500Y-10143709D01*
X32317247Y-9933761D01*
X32317246Y-9933757D01*
X32251557Y-9731588D01*
X32155051Y-9542184D01*
X32155049Y-9542180D01*
X32030108Y-9370213D01*
X32030106Y-9370211D01*
X32030104Y-9370208D01*
X31879792Y-9219896D01*
X31879788Y-9219893D01*
X31879786Y-9219891D01*
X31707819Y-9094950D01*
X31707815Y-9094948D01*
X31518412Y-8998443D01*
X31316238Y-8932752D01*
X31106290Y-8899500D01*
X31106287Y-8899500D01*
X30893713Y-8899500D01*
X30893710Y-8899500D01*
X30683761Y-8932752D01*
X30481587Y-8998443D01*
X30292184Y-9094948D01*
X30292180Y-9094950D01*
X30120213Y-9219891D01*
X29969891Y-9370213D01*
X29844950Y-9542180D01*
X29844948Y-9542184D01*
X29748443Y-9731587D01*
X29682752Y-9933761D01*
X29649500Y-10143709D01*
X28500000Y-10143709D01*
X28500000Y-7500000D01*
X11500000Y-7500000D01*
X11500000Y-52500000D01*
X500500Y-52500000D01*
X500500Y-48643709D01*
X7649500Y-48643709D01*
X7649500Y-48856290D01*
X7682752Y-49066238D01*
X7748443Y-49268412D01*
X7844948Y-49457815D01*
X7844950Y-49457819D01*
X7969891Y-49629786D01*
X7969893Y-49629788D01*
X7969896Y-49629792D01*
X8120208Y-49780104D01*
X8120211Y-49780106D01*
X8120213Y-49780108D01*
X8292180Y-49905049D01*
X8292184Y-49905051D01*
X8481588Y-50001557D01*
X8683757Y-50067246D01*
X8683758Y-50067246D01*
X8683761Y-50067247D01*
X8893710Y-50100500D01*
X8893713Y-50100500D01*
X9106290Y-50100500D01*
X9316238Y-50067247D01*
X9316239Y-50067246D01*
X9316243Y-50067246D01*
X9518412Y-50001557D01*
X9707816Y-49905051D01*
X9879792Y-49780104D01*
X10030104Y-49629792D01*
X10155051Y-49457816D01*
X10251557Y-49268412D01*
X10317246Y-49066243D01*
X10350500Y-48856287D01*
X10350500Y-48643713D01*
X10350500Y-48643709D01*
X10317247Y-48433761D01*
X10317246Y-48433757D01*
X10251557Y-48231588D01*
X10155051Y-48042184D01*
X10155049Y-48042180D01*
X10030108Y-47870213D01*
X10030106Y-47870211D01*
X10030104Y-47870208D01*
X9879792Y-47719896D01*
X9879788Y-47719893D01*
X9879786Y-47719891D01*
X9707819Y-47594950D01*
X9707815Y-47594948D01*
X9518412Y-47498443D01*
X9316238Y-47432752D01*
X9106290Y-47399500D01*
X9106287Y-47399500D01*
X8893713Y-47399500D01*
X8893710Y-47399500D01*
X8683761Y-47432752D01*
X8481587Y-47498443D01*
X8292184Y-47594948D01*
X8292180Y-47594950D01*
X8120213Y-47719891D01*
X7969891Y-47870213D01*
X7844950Y-48042180D01*
X7844948Y-48042184D01*
X7748443Y-48231587D01*
X7682752Y-48433761D01*
X7649500Y-48643709D01*
X500500Y-48643709D01*
X500500Y-43619450D01*
X7419500Y-43619450D01*
X7419500Y-43800549D01*
X7447828Y-43979406D01*
X7503788Y-44151637D01*
X7586001Y-44312990D01*
X7586004Y-44312994D01*
X7692447Y-44459501D01*
X7820499Y-44587553D01*
X7967006Y-44693996D01*
X8128361Y-44776211D01*
X8300591Y-44832171D01*
X8372136Y-44843502D01*
X8479451Y-44860500D01*
X8479454Y-44860500D01*
X8660549Y-44860500D01*
X8749977Y-44846335D01*
X8839409Y-44832171D01*
X9011639Y-44776211D01*
X9172994Y-44693996D01*
X9319501Y-44587553D01*
X9447553Y-44459501D01*
X9553996Y-44312994D01*
X9636211Y-44151639D01*
X9692171Y-43979409D01*
X9720500Y-43800546D01*
X9720500Y-43619454D01*
X9720500Y-43619450D01*
X9692171Y-43440593D01*
X9692171Y-43440591D01*
X9636211Y-43268361D01*
X9553996Y-43107006D01*
X9447553Y-42960499D01*
X9319501Y-42832447D01*
X9172994Y-42726004D01*
X9172993Y-42726003D01*
X9172991Y-42726002D01*
X9011637Y-42643788D01*
X8839406Y-42587828D01*
X8660549Y-42559500D01*
X8660546Y-42559500D01*
X8479454Y-42559500D01*
X8479451Y-42559500D01*
X8300593Y-42587828D01*
X8128362Y-42643788D01*
X7967008Y-42726002D01*
X7893752Y-42779225D01*
X7820499Y-42832447D01*
X7692447Y-42960499D01*
X7639225Y-43033752D01*
X7586002Y-43107008D01*
X7503788Y-43268362D01*
X7447828Y-43440593D01*
X7419500Y-43619450D01*
X500500Y-43619450D01*
X500500Y-38539450D01*
X7419500Y-38539450D01*
X7419500Y-38720549D01*
X7447828Y-38899406D01*
X7503788Y-39071637D01*
X7531278Y-39125590D01*
X7586004Y-39232994D01*
X7692447Y-39379501D01*
X7820499Y-39507553D01*
X7967006Y-39613996D01*
X8128361Y-39696211D01*
X8300591Y-39752171D01*
X8372136Y-39763502D01*
X8479451Y-39780500D01*
X8479454Y-39780500D01*
X8660549Y-39780500D01*
X8749977Y-39766335D01*
X8839409Y-39752171D01*
X9011639Y-39696211D01*
X9172994Y-39613996D01*
X9319501Y-39507553D01*
X9447553Y-39379501D01*
X9553996Y-39232994D01*
X9636211Y-39071639D01*
X9692171Y-38899409D01*
X9720500Y-38720546D01*
X9720500Y-38539454D01*
X9720500Y-38539450D01*
X9692171Y-38360593D01*
X9692171Y-38360591D01*
X9636211Y-38188361D01*
X9553996Y-38027006D01*
X9447553Y-37880499D01*
X9319501Y-37752447D01*
X9172994Y-37646004D01*
X9172993Y-37646003D01*
X9172991Y-37646002D01*
X9011637Y-37563788D01*
X8839406Y-37507828D01*
X8660549Y-37479500D01*
X8660546Y-37479500D01*
X8479454Y-37479500D01*
X8479451Y-37479500D01*
X8300593Y-37507828D01*
X8128362Y-37563788D01*
X7967008Y-37646002D01*
X7901073Y-37693907D01*
X7820499Y-37752447D01*
X7692447Y-37880499D01*
X7669296Y-37912364D01*
X7586002Y-38027008D01*
X7503788Y-38188362D01*
X7447828Y-38360593D01*
X7419500Y-38539450D01*
X500500Y-38539450D01*
X500500Y-35999450D01*
X7419500Y-35999450D01*
X7419500Y-36180549D01*
X7447828Y-36359406D01*
X7501793Y-36525498D01*
X7503789Y-36531639D01*
X7586004Y-36692994D01*
X7692447Y-36839501D01*
X7820499Y-36967553D01*
X7967006Y-37073996D01*
X8128361Y-37156211D01*
X8300591Y-37212171D01*
X8372136Y-37223502D01*
X8479451Y-37240500D01*
X8479454Y-37240500D01*
X8660549Y-37240500D01*
X8749977Y-37226335D01*
X8839409Y-37212171D01*
X9011639Y-37156211D01*
X9172994Y-37073996D01*
X9319501Y-36967553D01*
X9447553Y-36839501D01*
X9553996Y-36692994D01*
X9636211Y-36531639D01*
X9692171Y-36359409D01*
X9720500Y-36180546D01*
X9720500Y-35999454D01*
X9720500Y-35999450D01*
X9694352Y-35834361D01*
X9692171Y-35820591D01*
X9636211Y-35648361D01*
X9553996Y-35487006D01*
X9447553Y-35340499D01*
X9319501Y-35212447D01*
X9172994Y-35106004D01*
X9172993Y-35106003D01*
X9172991Y-35106002D01*
X9011637Y-35023788D01*
X8839406Y-34967828D01*
X8660549Y-34939500D01*
X8660546Y-34939500D01*
X8479454Y-34939500D01*
X8479451Y-34939500D01*
X8300593Y-34967828D01*
X8128362Y-35023788D01*
X7967008Y-35106002D01*
X7893752Y-35159225D01*
X7820499Y-35212447D01*
X7692447Y-35340499D01*
X7661809Y-35382669D01*
X7586002Y-35487008D01*
X7503788Y-35648362D01*
X7447828Y-35820593D01*
X7419500Y-35999450D01*
X500500Y-35999450D01*
X500500Y-33459450D01*
X7419500Y-33459450D01*
X7419500Y-33640549D01*
X7447828Y-33819406D01*
X7503788Y-33991637D01*
X7576822Y-34134975D01*
X7586004Y-34152994D01*
X7692447Y-34299501D01*
X7820499Y-34427553D01*
X7967006Y-34533996D01*
X8128361Y-34616211D01*
X8300591Y-34672171D01*
X8372136Y-34683502D01*
X8479451Y-34700500D01*
X8479454Y-34700500D01*
X8660549Y-34700500D01*
X8749977Y-34686335D01*
X8839409Y-34672171D01*
X9011639Y-34616211D01*
X9172994Y-34533996D01*
X9319501Y-34427553D01*
X9447553Y-34299501D01*
X9553996Y-34152994D01*
X9636211Y-33991639D01*
X9692171Y-33819409D01*
X9709736Y-33708507D01*
X9720500Y-33640549D01*
X9720500Y-33459450D01*
X9699442Y-33326499D01*
X9692171Y-33280591D01*
X9636211Y-33108361D01*
X9553996Y-32947006D01*
X9447553Y-32800499D01*
X9319501Y-32672447D01*
X9172994Y-32566004D01*
X9172993Y-32566003D01*
X9172991Y-32566002D01*
X9011637Y-32483788D01*
X8839406Y-32427828D01*
X8660549Y-32399500D01*
X8660546Y-32399500D01*
X8479454Y-32399500D01*
X8479451Y-32399500D01*
X8300593Y-32427828D01*
X8128362Y-32483788D01*
X7967008Y-32566002D01*
X7950708Y-32577845D01*
X7820499Y-32672447D01*
X7692447Y-32800499D01*
X7681693Y-32815301D01*
X7586002Y-32947008D01*
X7503788Y-33108362D01*
X7447828Y-33280593D01*
X7419500Y-33459450D01*
X500500Y-33459450D01*
X500500Y-30919450D01*
X7419500Y-30919450D01*
X7419500Y-31100549D01*
X7447828Y-31279406D01*
X7503788Y-31451637D01*
X7528175Y-31499500D01*
X7586004Y-31612994D01*
X7692447Y-31759501D01*
X7820499Y-31887553D01*
X7967006Y-31993996D01*
X8128361Y-32076211D01*
X8300591Y-32132171D01*
X8363988Y-32142212D01*
X8479451Y-32160500D01*
X8479454Y-32160500D01*
X8660549Y-32160500D01*
X8749977Y-32146335D01*
X8839409Y-32132171D01*
X9011639Y-32076211D01*
X9172994Y-31993996D01*
X9319501Y-31887553D01*
X9447553Y-31759501D01*
X9553996Y-31612994D01*
X9636211Y-31451639D01*
X9692171Y-31279409D01*
X9720500Y-31100546D01*
X9720500Y-30919454D01*
X9720500Y-30919450D01*
X9692171Y-30740593D01*
X9692171Y-30740591D01*
X9636211Y-30568361D01*
X9553996Y-30407006D01*
X9447553Y-30260499D01*
X9319501Y-30132447D01*
X9172994Y-30026004D01*
X9172993Y-30026003D01*
X9172991Y-30026002D01*
X9011637Y-29943788D01*
X8839406Y-29887828D01*
X8660549Y-29859500D01*
X8660546Y-29859500D01*
X8479454Y-29859500D01*
X8479451Y-29859500D01*
X8300593Y-29887828D01*
X8128362Y-29943788D01*
X7967008Y-30026002D01*
X7893752Y-30079225D01*
X7820499Y-30132447D01*
X7692447Y-30260499D01*
X7677404Y-30281204D01*
X7586002Y-30407008D01*
X7503788Y-30568362D01*
X7447828Y-30740593D01*
X7419500Y-30919450D01*
X500500Y-30919450D01*
X500500Y-28379450D01*
X7419500Y-28379450D01*
X7419500Y-28560549D01*
X7447828Y-28739406D01*
X7503788Y-28911637D01*
X7574542Y-29050500D01*
X7586004Y-29072994D01*
X7692447Y-29219501D01*
X7820499Y-29347553D01*
X7967006Y-29453996D01*
X8128361Y-29536211D01*
X8300591Y-29592171D01*
X8346865Y-29599500D01*
X8479451Y-29620500D01*
X8479454Y-29620500D01*
X8660549Y-29620500D01*
X8749977Y-29606335D01*
X8839409Y-29592171D01*
X9011639Y-29536211D01*
X9172994Y-29453996D01*
X9319501Y-29347553D01*
X9447553Y-29219501D01*
X9553996Y-29072994D01*
X9636211Y-28911639D01*
X9692171Y-28739409D01*
X9720500Y-28560546D01*
X9720500Y-28379454D01*
X9720500Y-28379450D01*
X9692171Y-28200593D01*
X9692171Y-28200591D01*
X9636211Y-28028361D01*
X9553996Y-27867006D01*
X9447553Y-27720499D01*
X9319501Y-27592447D01*
X9172994Y-27486004D01*
X9172993Y-27486003D01*
X9172991Y-27486002D01*
X9011637Y-27403788D01*
X8839406Y-27347828D01*
X8660549Y-27319500D01*
X8660546Y-27319500D01*
X8479454Y-27319500D01*
X8479451Y-27319500D01*
X8300593Y-27347828D01*
X8128362Y-27403788D01*
X7967008Y-27486002D01*
X7893752Y-27539225D01*
X7820499Y-27592447D01*
X7692447Y-27720499D01*
X7639225Y-27793752D01*
X7586002Y-27867008D01*
X7503788Y-28028362D01*
X7447828Y-28200593D01*
X7419500Y-28379450D01*
X500500Y-28379450D01*
X500500Y-23299450D01*
X7419500Y-23299450D01*
X7419500Y-23480549D01*
X7447828Y-23659406D01*
X7447829Y-23659409D01*
X7503789Y-23831639D01*
X7586004Y-23992994D01*
X7692447Y-24139501D01*
X7820499Y-24267553D01*
X7967006Y-24373996D01*
X8128361Y-24456211D01*
X8300591Y-24512171D01*
X8372136Y-24523502D01*
X8479451Y-24540500D01*
X8479454Y-24540500D01*
X8660549Y-24540500D01*
X8749977Y-24526335D01*
X8839409Y-24512171D01*
X9011639Y-24456211D01*
X9172994Y-24373996D01*
X9319501Y-24267553D01*
X9447553Y-24139501D01*
X9553996Y-23992994D01*
X9636211Y-23831639D01*
X9692171Y-23659409D01*
X9720500Y-23480546D01*
X9720500Y-23299454D01*
X9720500Y-23299450D01*
X9692171Y-23120593D01*
X9692171Y-23120591D01*
X9636211Y-22948361D01*
X9553996Y-22787006D01*
X9447553Y-22640499D01*
X9319501Y-22512447D01*
X9172994Y-22406004D01*
X9172993Y-22406003D01*
X9172991Y-22406002D01*
X9011637Y-22323788D01*
X8839406Y-22267828D01*
X8660549Y-22239500D01*
X8660546Y-22239500D01*
X8479454Y-22239500D01*
X8479451Y-22239500D01*
X8300593Y-22267828D01*
X8128362Y-22323788D01*
X7967008Y-22406002D01*
X7893752Y-22459225D01*
X7820499Y-22512447D01*
X7692447Y-22640499D01*
X7671267Y-22669651D01*
X7586002Y-22787008D01*
X7503788Y-22948362D01*
X7447828Y-23120593D01*
X7419500Y-23299450D01*
X500500Y-23299450D01*
X500500Y-19955130D01*
X7419500Y-19955130D01*
X7419500Y-21744860D01*
X7419501Y-21744863D01*
X7422414Y-21769990D01*
X7437650Y-21804496D01*
X7467794Y-21872765D01*
X7547235Y-21952206D01*
X7650009Y-21997585D01*
X7675135Y-22000500D01*
X9464864Y-22000499D01*
X9489991Y-21997585D01*
X9592765Y-21952206D01*
X9672206Y-21872765D01*
X9717585Y-21769991D01*
X9720500Y-21744865D01*
X9720499Y-19955136D01*
X9717585Y-19930009D01*
X9672206Y-19827235D01*
X9592765Y-19747794D01*
X9489991Y-19702415D01*
X9489990Y-19702414D01*
X9489988Y-19702414D01*
X9464868Y-19699500D01*
X7675139Y-19699500D01*
X7675136Y-19699501D01*
X7650009Y-19702414D01*
X7547235Y-19747794D01*
X7467794Y-19827235D01*
X7422414Y-19930011D01*
X7419500Y-19955130D01*
X500500Y-19955130D01*
X500500Y-10143709D01*
X7649500Y-10143709D01*
X7649500Y-10356290D01*
X7682752Y-10566238D01*
X7748443Y-10768412D01*
X7844948Y-10957815D01*
X7844950Y-10957819D01*
X7969891Y-11129786D01*
X7969893Y-11129788D01*
X7969896Y-11129792D01*
X8120208Y-11280104D01*
X8120211Y-11280106D01*
X8120213Y-11280108D01*
X8292180Y-11405049D01*
X8292184Y-11405051D01*
X8481588Y-11501557D01*
X8683757Y-11567246D01*
X8683758Y-11567246D01*
X8683761Y-11567247D01*
X8893710Y-11600500D01*
X8893713Y-11600500D01*
X9106290Y-11600500D01*
X9316238Y-11567247D01*
X9316239Y-11567246D01*
X9316243Y-11567246D01*
X9518412Y-11501557D01*
X9707816Y-11405051D01*
X9879792Y-11280104D01*
X10030104Y-11129792D01*
X10136994Y-10982669D01*
X10155049Y-10957819D01*
X10155051Y-10957816D01*
X10251557Y-10768412D01*
X10317246Y-10566243D01*
X10350500Y-10356287D01*
X10350500Y-10143713D01*
X10350500Y-10143709D01*
X10317247Y-9933761D01*
X10317246Y-9933757D01*
X10251557Y-9731588D01*
X10155051Y-9542184D01*
X10155049Y-9542180D01*
X10030108Y-9370213D01*
X10030106Y-9370211D01*
X10030104Y-9370208D01*
X9879792Y-9219896D01*
X9879788Y-9219893D01*
X9879786Y-9219891D01*
X9707819Y-9094950D01*
X9707815Y-9094948D01*
X9518412Y-8998443D01*
X9316238Y-8932752D01*
X9106290Y-8899500D01*
X9106287Y-8899500D01*
X8893713Y-8899500D01*
X8893710Y-8899500D01*
X8683761Y-8932752D01*
X8481587Y-8998443D01*
X8292184Y-9094948D01*
X8292180Y-9094950D01*
X8120213Y-9219891D01*
X7969891Y-9370213D01*
X7844950Y-9542180D01*
X7844948Y-9542184D01*
X7748443Y-9731587D01*
X7682752Y-9933761D01*
X7649500Y-10143709D01*
X500500Y-10143709D01*
X500500Y-3878710D01*
X2149500Y-3878710D01*
X2149500Y-4121289D01*
X2181161Y-4361781D01*
X2181161Y-4361786D01*
X2243944Y-4596092D01*
X2243948Y-4596105D01*
X2336772Y-4820204D01*
X2336774Y-4820208D01*
X2336776Y-4820212D01*
X2458064Y-5030289D01*
X2458066Y-5030292D01*
X2605729Y-5222731D01*
X2605731Y-5222733D01*
X2605735Y-5222738D01*
X2777262Y-5394265D01*
X2777266Y-5394268D01*
X2777268Y-5394270D01*
X2969707Y-5541933D01*
X2969711Y-5541936D01*
X3179788Y-5663224D01*
X3403900Y-5756054D01*
X3638211Y-5818838D01*
X3878712Y-5850500D01*
X3878713Y-5850500D01*
X4121287Y-5850500D01*
X4121288Y-5850500D01*
X4361789Y-5818838D01*
X4596100Y-5756054D01*
X4820212Y-5663224D01*
X5030289Y-5541936D01*
X5222738Y-5394265D01*
X5394265Y-5222738D01*
X5541936Y-5030289D01*
X5663224Y-4820212D01*
X5756054Y-4596100D01*
X5818838Y-4361789D01*
X5850500Y-4121288D01*
X5850500Y-3878712D01*
X5818838Y-3638211D01*
X5756054Y-3403900D01*
X5663224Y-3179788D01*
X5541936Y-2969711D01*
X5453087Y-2853920D01*
X5394270Y-2777268D01*
X5394268Y-2777266D01*
X5394265Y-2777262D01*
X5222738Y-2605735D01*
X5222733Y-2605731D01*
X5222731Y-2605729D01*
X5030292Y-2458066D01*
X5018956Y-2451521D01*
X4820212Y-2336776D01*
X4820208Y-2336774D01*
X4820204Y-2336772D01*
X4596105Y-2243948D01*
X4596104Y-2243947D01*
X4596100Y-2243946D01*
X4361789Y-2181162D01*
X4361786Y-2181161D01*
X4361784Y-2181161D01*
X4121289Y-2149500D01*
X4121288Y-2149500D01*
X3878712Y-2149500D01*
X3878710Y-2149500D01*
X3638218Y-2181161D01*
X3638213Y-2181161D01*
X3403907Y-2243944D01*
X3403894Y-2243948D01*
X3179795Y-2336772D01*
X2969707Y-2458066D01*
X2777268Y-2605729D01*
X2605729Y-2777268D01*
X2458066Y-2969707D01*
X2336772Y-3179795D01*
X2243948Y-3403894D01*
X2243944Y-3403907D01*
X2181161Y-3638213D01*
X2181161Y-3638218D01*
X2149500Y-3878710D01*
X500500Y-3878710D01*
X500500Y-599500D01*
X519407Y-541309D01*
X568907Y-505345D01*
X599500Y-500500D01*
X46903933Y-500500D01*
X46962124Y-519407D01*
G37*
%TD.AperFunction*%
%TD*%
M02*
