%TF.GenerationSoftware,KiCad,Pcbnew,9.0.9.1-unknown-202605141413~ce707d0a6c~ubuntu24.04.1*%
%TF.CreationDate,2026-09-02T19:41:56+00:00*%
%TF.ProjectId,agentping-carrier,6167656e-7470-4696-9e67-2d6361727269,rev?*%
%TF.SameCoordinates,Original*%
%TF.FileFunction,Copper,L2,Bot*%
%TF.FilePolarity,Positive*%
%FSLAX46Y46*%
G04 Gerber Fmt 4.6, Leading zero omitted, Abs format (unit mm)*
G04 Created by KiCad (PCBNEW 9.0.9.1-unknown-202605141413~ce707d0a6c~ubuntu24.04.1) date 2026-09-02 19:41:56*
%MOMM*%
%LPD*%
G01*
G04 APERTURE LIST*
G04 Aperture macros list*
%AMRoundRect*
0 Rectangle with rounded corners*
0 $1 Rounding radius*
0 $2 $3 $4 $5 $6 $7 $8 $9 X,Y pos of 4 corners*
0 Add a 4 corners polygon primitive as box body*
4,1,4,$2,$3,$4,$5,$6,$7,$8,$9,$2,$3,0*
0 Add four circle primitives for the rounded corners*
1,1,$1+$1,$2,$3*
1,1,$1+$1,$4,$5*
1,1,$1+$1,$6,$7*
1,1,$1+$1,$8,$9*
0 Add four rect primitives between the rounded corners*
20,1,$1+$1,$2,$3,$4,$5,0*
20,1,$1+$1,$4,$5,$6,$7,0*
20,1,$1+$1,$6,$7,$8,$9,0*
20,1,$1+$1,$8,$9,$2,$3,0*%
G04 Aperture macros list end*
%TA.AperFunction,ComponentPad*%
%ADD10R,1.700000X1.700000*%
%TD*%
%TA.AperFunction,ComponentPad*%
%ADD11O,1.700000X1.700000*%
%TD*%
%TA.AperFunction,ComponentPad*%
%ADD12RoundRect,0.250000X0.625000X-0.350000X0.625000X0.350000X-0.625000X0.350000X-0.625000X-0.350000X0*%
%TD*%
%TA.AperFunction,ComponentPad*%
%ADD13O,1.750000X1.200000*%
%TD*%
%TA.AperFunction,ComponentPad*%
%ADD14O,1.000000X2.100000*%
%TD*%
%TA.AperFunction,ComponentPad*%
%ADD15O,1.000000X1.800000*%
%TD*%
%TA.AperFunction,ViaPad*%
%ADD16C,0.600000*%
%TD*%
%TA.AperFunction,Conductor*%
%ADD17C,0.200000*%
%TD*%
%TA.AperFunction,Conductor*%
%ADD18C,0.250000*%
%TD*%
%TA.AperFunction,Conductor*%
%ADD19C,0.500000*%
%TD*%
G04 APERTURE END LIST*
D10*
%TO.P,J1,1*%
%TO.N,unconnected-(J1-Pin_1-Pad1)*%
X8570000Y-20850000D03*
D11*
%TO.P,J1,2*%
%TO.N,unconnected-(J1-Pin_2-Pad2)*%
X8570000Y-23390000D03*
%TO.P,J1,3*%
%TO.N,/GND*%
X8570000Y-25930000D03*
%TO.P,J1,4*%
%TO.N,unconnected-(J1-Pin_4-Pad4)*%
X8570000Y-28470000D03*
%TO.P,J1,5*%
%TO.N,unconnected-(J1-Pin_5-Pad5)*%
X8570000Y-31010000D03*
%TO.P,J1,6*%
%TO.N,unconnected-(J1-Pin_6-Pad6)*%
X8570000Y-33550000D03*
%TO.P,J1,7*%
%TO.N,unconnected-(J1-Pin_7-Pad7)*%
X8570000Y-36090000D03*
%TO.P,J1,8*%
%TO.N,/GPIO6_HAPTIC*%
X8570000Y-38630000D03*
%TO.P,J1,9*%
%TO.N,/GND*%
X8570000Y-41170000D03*
%TO.P,J1,10*%
%TO.N,unconnected-(J1-Pin_10-Pad10)*%
X8570000Y-43710000D03*
%TD*%
D10*
%TO.P,J2,1*%
%TO.N,unconnected-(J2-Pin_1-Pad1)*%
X31430000Y-20850000D03*
D11*
%TO.P,J2,2*%
%TO.N,unconnected-(J2-Pin_2-Pad2)*%
X31430000Y-23390000D03*
%TO.P,J2,3*%
%TO.N,/GND*%
X31430000Y-25930000D03*
%TO.P,J2,4*%
%TO.N,unconnected-(J2-Pin_4-Pad4)*%
X31430000Y-28470000D03*
%TO.P,J2,5*%
%TO.N,unconnected-(J2-Pin_5-Pad5)*%
X31430000Y-31010000D03*
%TO.P,J2,6*%
%TO.N,unconnected-(J2-Pin_6-Pad6)*%
X31430000Y-33550000D03*
%TO.P,J2,7*%
%TO.N,unconnected-(J2-Pin_7-Pad7)*%
X31430000Y-36090000D03*
%TO.P,J2,8*%
%TO.N,unconnected-(J2-Pin_8-Pad8)*%
X31430000Y-38630000D03*
%TO.P,J2,9*%
%TO.N,/GND*%
X31430000Y-41170000D03*
%TO.P,J2,10*%
%TO.N,/+5V_MODULE*%
X31430000Y-43710000D03*
%TD*%
D12*
%TO.P,J4,1*%
%TO.N,/+5V_MODULE*%
X66000000Y-35000000D03*
D13*
%TO.P,J4,2*%
%TO.N,/HAPTIC_LOW*%
X66000000Y-33000000D03*
%TD*%
D14*
%TO.P,J3,S1*%
%TO.N,/GND*%
X45680000Y-1695000D03*
D15*
X45680000Y-5875000D03*
D14*
X54320000Y-1695000D03*
D15*
X54320000Y-5875000D03*
%TD*%
D16*
%TO.N,/+5V_MODULE*%
X63596400Y-25403600D03*
%TO.N,/GND*%
X45680000Y-20014700D03*
X51665500Y-33859600D03*
%TO.N,/GPIO6_HAPTIC*%
X39000000Y-28000000D03*
%TO.N,/VBUS*%
X52400000Y-1120000D03*
X58600000Y-13500000D03*
X47600000Y-1120000D03*
%TD*%
D17*
%TO.N,/+5V_MODULE*%
X63596400Y-32596400D02*
X63596400Y-25403600D01*
X66000000Y-35000000D02*
X63596400Y-32596400D01*
%TO.N,/GND*%
X51665500Y-26000200D02*
X45680000Y-20014700D01*
X31142100Y-27081700D02*
X30271900Y-27951900D01*
X31161500Y-40018300D02*
X31430000Y-40018300D01*
X31430000Y-25930000D02*
X31430000Y-27081700D01*
X9728100Y-27971300D02*
X8838500Y-27081700D01*
X9728100Y-39148100D02*
X9728100Y-27971300D01*
X30271900Y-27951900D02*
X30271900Y-39128700D01*
X51665500Y-33859600D02*
X51665500Y-26000200D01*
X8857900Y-40018300D02*
X9728100Y-39148100D01*
X31430000Y-27081700D02*
X31142100Y-27081700D01*
X54320000Y-5875000D02*
X54320000Y-1695000D01*
X45680000Y-5875000D02*
X45680000Y-1695000D01*
X31430000Y-41170000D02*
X31430000Y-40018300D01*
X8570000Y-41170000D02*
X8570000Y-40018300D01*
X8570000Y-40018300D02*
X8857900Y-40018300D01*
X30271900Y-39128700D02*
X31161500Y-40018300D01*
X45680000Y-5875000D02*
X45680000Y-20014700D01*
X8570000Y-25930000D02*
X8570000Y-27081700D01*
X8838500Y-27081700D02*
X8570000Y-27081700D01*
D18*
%TO.N,/GPIO6_HAPTIC*%
X6000000Y-41200000D02*
X6000000Y-53500000D01*
X8570000Y-38630000D02*
X6000000Y-41200000D01*
X34000000Y-53500000D02*
X34000000Y-33000000D01*
X6000000Y-53500000D02*
X34000000Y-53500000D01*
X34000000Y-33000000D02*
X39000000Y-28000000D01*
D19*
%TO.N,/VBUS*%
X50000000Y-6800000D02*
X56000000Y-10400000D01*
X50000000Y-1120000D02*
X50000000Y-6800000D01*
X56000000Y-10400000D02*
X58600000Y-13500000D01*
X47600000Y-1120000D02*
X52400000Y-1120000D01*
%TD*%
%TA.AperFunction,Conductor*%
%TO.N,/GND*%
G36*
X47189448Y-519407D02*
G01*
X47225412Y-568907D01*
X47225412Y-630093D01*
X47201262Y-669501D01*
X47119480Y-751284D01*
X47040423Y-888216D01*
X46999500Y-1040943D01*
X46999500Y-1199057D01*
X47040423Y-1351784D01*
X47109551Y-1471519D01*
X47122272Y-1531366D01*
X47097385Y-1587261D01*
X47044397Y-1617854D01*
X47036743Y-1619169D01*
X47034241Y-1619498D01*
X46887860Y-1658720D01*
X46756639Y-1734481D01*
X46649481Y-1841639D01*
X46573720Y-1972860D01*
X46573719Y-1972865D01*
X46534500Y-2119234D01*
X46534500Y-2270766D01*
X46552186Y-2336772D01*
X46573720Y-2417139D01*
X46649481Y-2548360D01*
X46649483Y-2548362D01*
X46649485Y-2548365D01*
X46756635Y-2655515D01*
X46756637Y-2655516D01*
X46756639Y-2655518D01*
X46887861Y-2731279D01*
X46887859Y-2731279D01*
X46887863Y-2731280D01*
X46887865Y-2731281D01*
X47034234Y-2770500D01*
X47034236Y-2770500D01*
X47185764Y-2770500D01*
X47185766Y-2770500D01*
X47332135Y-2731281D01*
X47332137Y-2731279D01*
X47332139Y-2731279D01*
X47463360Y-2655518D01*
X47463360Y-2655517D01*
X47463365Y-2655515D01*
X47570515Y-2548365D01*
X47570518Y-2548360D01*
X47646279Y-2417139D01*
X47646279Y-2417137D01*
X47646281Y-2417135D01*
X47685500Y-2270766D01*
X47685500Y-2119234D01*
X47646281Y-1972865D01*
X47646279Y-1972862D01*
X47646279Y-1972860D01*
X47586315Y-1869000D01*
X47573593Y-1809152D01*
X47598479Y-1753256D01*
X47651467Y-1722663D01*
X47672051Y-1720500D01*
X47679055Y-1720500D01*
X47679057Y-1720500D01*
X47831784Y-1679577D01*
X47831786Y-1679575D01*
X47831789Y-1679575D01*
X47835505Y-1678036D01*
X47873390Y-1670500D01*
X49350500Y-1670500D01*
X49408691Y-1689407D01*
X49444655Y-1738907D01*
X49449500Y-1769500D01*
X49449500Y-6795377D01*
X49448359Y-6863205D01*
X49449500Y-6867768D01*
X49449500Y-6872475D01*
X49466852Y-6937236D01*
X49467075Y-6938070D01*
X49483515Y-7003826D01*
X49485797Y-7007937D01*
X49487016Y-7012485D01*
X49520947Y-7071256D01*
X49553868Y-7130558D01*
X49557138Y-7133940D01*
X49559491Y-7138015D01*
X49559492Y-7138016D01*
X49606889Y-7185414D01*
X49607472Y-7185997D01*
X49654623Y-7234762D01*
X49658660Y-7237184D01*
X49661985Y-7240509D01*
X49720041Y-7274026D01*
X49721334Y-7274788D01*
X55207084Y-10566238D01*
X55623322Y-10815981D01*
X55648240Y-10837254D01*
X58009666Y-13652801D01*
X58029439Y-13690795D01*
X58040422Y-13731781D01*
X58040421Y-13731781D01*
X58040423Y-13731784D01*
X58119480Y-13868716D01*
X58231284Y-13980520D01*
X58368216Y-14059577D01*
X58520943Y-14100500D01*
X58520945Y-14100500D01*
X58679055Y-14100500D01*
X58679057Y-14100500D01*
X58831784Y-14059577D01*
X58968716Y-13980520D01*
X59080520Y-13868716D01*
X59159577Y-13731784D01*
X59200500Y-13579057D01*
X59200500Y-13420943D01*
X59159577Y-13268216D01*
X59080520Y-13131284D01*
X58968716Y-13019480D01*
X58880612Y-12968614D01*
X58854259Y-12946496D01*
X56857914Y-10566238D01*
X56455695Y-10086669D01*
X56446132Y-10069442D01*
X56409285Y-10031334D01*
X56375215Y-9990712D01*
X56375214Y-9990711D01*
X56375213Y-9990710D01*
X56366844Y-9984847D01*
X56359073Y-9979403D01*
X56345376Y-9965238D01*
X56299919Y-9937964D01*
X56297052Y-9935955D01*
X56256501Y-9907547D01*
X56256497Y-9907545D01*
X56246901Y-9904050D01*
X56229846Y-9895920D01*
X50598565Y-6517151D01*
X50558395Y-6470999D01*
X50550500Y-6432259D01*
X50550500Y-3878710D01*
X64149500Y-3878710D01*
X64149500Y-4121289D01*
X64181161Y-4361781D01*
X64181161Y-4361786D01*
X64243944Y-4596092D01*
X64243948Y-4596105D01*
X64336772Y-4820204D01*
X64336774Y-4820208D01*
X64336776Y-4820212D01*
X64458064Y-5030289D01*
X64458066Y-5030292D01*
X64605729Y-5222731D01*
X64605731Y-5222733D01*
X64605735Y-5222738D01*
X64777262Y-5394265D01*
X64777266Y-5394268D01*
X64777268Y-5394270D01*
X64969707Y-5541933D01*
X64969711Y-5541936D01*
X65179788Y-5663224D01*
X65403900Y-5756054D01*
X65638211Y-5818838D01*
X65878712Y-5850500D01*
X65878713Y-5850500D01*
X66121287Y-5850500D01*
X66121288Y-5850500D01*
X66361789Y-5818838D01*
X66596100Y-5756054D01*
X66820212Y-5663224D01*
X67030289Y-5541936D01*
X67222738Y-5394265D01*
X67394265Y-5222738D01*
X67541936Y-5030289D01*
X67663224Y-4820212D01*
X67756054Y-4596100D01*
X67818838Y-4361789D01*
X67850500Y-4121288D01*
X67850500Y-3878712D01*
X67818838Y-3638211D01*
X67756054Y-3403900D01*
X67663224Y-3179788D01*
X67541936Y-2969711D01*
X67394265Y-2777262D01*
X67222738Y-2605735D01*
X67222733Y-2605731D01*
X67222731Y-2605729D01*
X67030292Y-2458066D01*
X67030289Y-2458064D01*
X66820212Y-2336776D01*
X66820208Y-2336774D01*
X66820204Y-2336772D01*
X66596105Y-2243948D01*
X66596104Y-2243947D01*
X66596100Y-2243946D01*
X66361789Y-2181162D01*
X66361786Y-2181161D01*
X66361784Y-2181161D01*
X66121289Y-2149500D01*
X66121288Y-2149500D01*
X65878712Y-2149500D01*
X65878710Y-2149500D01*
X65638218Y-2181161D01*
X65638213Y-2181161D01*
X65403907Y-2243944D01*
X65403894Y-2243948D01*
X65179795Y-2336772D01*
X64969707Y-2458066D01*
X64777268Y-2605729D01*
X64605729Y-2777268D01*
X64458066Y-2969707D01*
X64336772Y-3179795D01*
X64243948Y-3403894D01*
X64243944Y-3403907D01*
X64181161Y-3638213D01*
X64181161Y-3638218D01*
X64149500Y-3878710D01*
X50550500Y-3878710D01*
X50550500Y-1769500D01*
X50569407Y-1711309D01*
X50618907Y-1675345D01*
X50649500Y-1670500D01*
X52126610Y-1670500D01*
X52164495Y-1678036D01*
X52168210Y-1679575D01*
X52168214Y-1679576D01*
X52168216Y-1679577D01*
X52320943Y-1720500D01*
X52320945Y-1720500D01*
X52327949Y-1720500D01*
X52386140Y-1739407D01*
X52422104Y-1788907D01*
X52422104Y-1850093D01*
X52413685Y-1869000D01*
X52353720Y-1972860D01*
X52353719Y-1972865D01*
X52314500Y-2119234D01*
X52314500Y-2270766D01*
X52332186Y-2336772D01*
X52353720Y-2417139D01*
X52429481Y-2548360D01*
X52429483Y-2548362D01*
X52429485Y-2548365D01*
X52536635Y-2655515D01*
X52536637Y-2655516D01*
X52536639Y-2655518D01*
X52667861Y-2731279D01*
X52667859Y-2731279D01*
X52667863Y-2731280D01*
X52667865Y-2731281D01*
X52814234Y-2770500D01*
X52814236Y-2770500D01*
X52965764Y-2770500D01*
X52965766Y-2770500D01*
X53112135Y-2731281D01*
X53112137Y-2731279D01*
X53112139Y-2731279D01*
X53243360Y-2655518D01*
X53243360Y-2655517D01*
X53243365Y-2655515D01*
X53350515Y-2548365D01*
X53350518Y-2548360D01*
X53426279Y-2417139D01*
X53426279Y-2417137D01*
X53426281Y-2417135D01*
X53465500Y-2270766D01*
X53465500Y-2119234D01*
X53426281Y-1972865D01*
X53426279Y-1972862D01*
X53426279Y-1972860D01*
X53350518Y-1841639D01*
X53350516Y-1841637D01*
X53350515Y-1841635D01*
X53243365Y-1734485D01*
X53243362Y-1734483D01*
X53243360Y-1734481D01*
X53112138Y-1658720D01*
X53112140Y-1658720D01*
X53009242Y-1631149D01*
X52965766Y-1619500D01*
X52965765Y-1619500D01*
X52965758Y-1619498D01*
X52963257Y-1619169D01*
X52961627Y-1618391D01*
X52959498Y-1617821D01*
X52959603Y-1617426D01*
X52908034Y-1592825D01*
X52878842Y-1539052D01*
X52886832Y-1478391D01*
X52890441Y-1471531D01*
X52959577Y-1351784D01*
X53000500Y-1199057D01*
X53000500Y-1040943D01*
X52959577Y-888216D01*
X52880520Y-751284D01*
X52798737Y-669501D01*
X52770962Y-614987D01*
X52780533Y-554555D01*
X52823798Y-511290D01*
X52868743Y-500500D01*
X69400500Y-500500D01*
X69458691Y-519407D01*
X69494655Y-568907D01*
X69499500Y-599500D01*
X69499500Y-59400500D01*
X69480593Y-59458691D01*
X69431093Y-59494655D01*
X69400500Y-59499500D01*
X599500Y-59499500D01*
X541309Y-59480593D01*
X505345Y-59431093D01*
X500500Y-59400500D01*
X500500Y-55878710D01*
X2149500Y-55878710D01*
X2149500Y-56121289D01*
X2181161Y-56361781D01*
X2181161Y-56361786D01*
X2243944Y-56596092D01*
X2243948Y-56596105D01*
X2336772Y-56820204D01*
X2336774Y-56820208D01*
X2336776Y-56820212D01*
X2458064Y-57030289D01*
X2458066Y-57030292D01*
X2605729Y-57222731D01*
X2605731Y-57222733D01*
X2605735Y-57222738D01*
X2777262Y-57394265D01*
X2777266Y-57394268D01*
X2777268Y-57394270D01*
X2969707Y-57541933D01*
X2969711Y-57541936D01*
X3179788Y-57663224D01*
X3403900Y-57756054D01*
X3638211Y-57818838D01*
X3878712Y-57850500D01*
X3878713Y-57850500D01*
X4121287Y-57850500D01*
X4121288Y-57850500D01*
X4361789Y-57818838D01*
X4596100Y-57756054D01*
X4820212Y-57663224D01*
X5030289Y-57541936D01*
X5222738Y-57394265D01*
X5394265Y-57222738D01*
X5541936Y-57030289D01*
X5663224Y-56820212D01*
X5756054Y-56596100D01*
X5818838Y-56361789D01*
X5850500Y-56121288D01*
X5850500Y-55878712D01*
X5850500Y-55878710D01*
X64149500Y-55878710D01*
X64149500Y-56121289D01*
X64181161Y-56361781D01*
X64181161Y-56361786D01*
X64243944Y-56596092D01*
X64243948Y-56596105D01*
X64336772Y-56820204D01*
X64336774Y-56820208D01*
X64336776Y-56820212D01*
X64458064Y-57030289D01*
X64458066Y-57030292D01*
X64605729Y-57222731D01*
X64605731Y-57222733D01*
X64605735Y-57222738D01*
X64777262Y-57394265D01*
X64777266Y-57394268D01*
X64777268Y-57394270D01*
X64969707Y-57541933D01*
X64969711Y-57541936D01*
X65179788Y-57663224D01*
X65403900Y-57756054D01*
X65638211Y-57818838D01*
X65878712Y-57850500D01*
X65878713Y-57850500D01*
X66121287Y-57850500D01*
X66121288Y-57850500D01*
X66361789Y-57818838D01*
X66596100Y-57756054D01*
X66820212Y-57663224D01*
X67030289Y-57541936D01*
X67222738Y-57394265D01*
X67394265Y-57222738D01*
X67541936Y-57030289D01*
X67663224Y-56820212D01*
X67756054Y-56596100D01*
X67818838Y-56361789D01*
X67850500Y-56121288D01*
X67850500Y-55878712D01*
X67818838Y-55638211D01*
X67756054Y-55403900D01*
X67663224Y-55179788D01*
X67541936Y-54969711D01*
X67394265Y-54777262D01*
X67222738Y-54605735D01*
X67222733Y-54605731D01*
X67222731Y-54605729D01*
X67030292Y-54458066D01*
X67030289Y-54458064D01*
X66820212Y-54336776D01*
X66820208Y-54336774D01*
X66820204Y-54336772D01*
X66596105Y-54243948D01*
X66596104Y-54243947D01*
X66596100Y-54243946D01*
X66361789Y-54181162D01*
X66361786Y-54181161D01*
X66361784Y-54181161D01*
X66121289Y-54149500D01*
X66121288Y-54149500D01*
X65878712Y-54149500D01*
X65878710Y-54149500D01*
X65638218Y-54181161D01*
X65638213Y-54181161D01*
X65403907Y-54243944D01*
X65403894Y-54243948D01*
X65179795Y-54336772D01*
X64969707Y-54458066D01*
X64777268Y-54605729D01*
X64605729Y-54777268D01*
X64458066Y-54969707D01*
X64336772Y-55179795D01*
X64243948Y-55403894D01*
X64243944Y-55403907D01*
X64181161Y-55638213D01*
X64181161Y-55638218D01*
X64149500Y-55878710D01*
X5850500Y-55878710D01*
X5818838Y-55638211D01*
X5756054Y-55403900D01*
X5663224Y-55179788D01*
X5541936Y-54969711D01*
X5394265Y-54777262D01*
X5222738Y-54605735D01*
X5222733Y-54605731D01*
X5222731Y-54605729D01*
X5030292Y-54458066D01*
X5030289Y-54458064D01*
X4820212Y-54336776D01*
X4820208Y-54336774D01*
X4820204Y-54336772D01*
X4596105Y-54243948D01*
X4596104Y-54243947D01*
X4596100Y-54243946D01*
X4361789Y-54181162D01*
X4361786Y-54181161D01*
X4361784Y-54181161D01*
X4121289Y-54149500D01*
X4121288Y-54149500D01*
X3878712Y-54149500D01*
X3878710Y-54149500D01*
X3638218Y-54181161D01*
X3638213Y-54181161D01*
X3403907Y-54243944D01*
X3403894Y-54243948D01*
X3179795Y-54336772D01*
X2969707Y-54458066D01*
X2777268Y-54605729D01*
X2605729Y-54777268D01*
X2458066Y-54969707D01*
X2336772Y-55179795D01*
X2243948Y-55403894D01*
X2243944Y-55403907D01*
X2181161Y-55638213D01*
X2181161Y-55638218D01*
X2149500Y-55878710D01*
X500500Y-55878710D01*
X500500Y-41143982D01*
X5574500Y-41143982D01*
X5574500Y-53443982D01*
X5574500Y-53556018D01*
X5600072Y-53651455D01*
X5603498Y-53664241D01*
X5659513Y-53761260D01*
X5659515Y-53761263D01*
X5738737Y-53840485D01*
X5738739Y-53840486D01*
X5835759Y-53896501D01*
X5835757Y-53896501D01*
X5835761Y-53896502D01*
X5835763Y-53896503D01*
X5943982Y-53925500D01*
X5943984Y-53925500D01*
X34056016Y-53925500D01*
X34056018Y-53925500D01*
X34164237Y-53896503D01*
X34164239Y-53896501D01*
X34164241Y-53896501D01*
X34193064Y-53879859D01*
X34261263Y-53840485D01*
X34340485Y-53761263D01*
X34396503Y-53664237D01*
X34425500Y-53556018D01*
X34425500Y-33217256D01*
X34444407Y-33159065D01*
X34454496Y-33147252D01*
X38972252Y-28629496D01*
X39026769Y-28601719D01*
X39042256Y-28600500D01*
X39079055Y-28600500D01*
X39079057Y-28600500D01*
X39231784Y-28559577D01*
X39368716Y-28480520D01*
X39480520Y-28368716D01*
X39559577Y-28231784D01*
X39600500Y-28079057D01*
X39600500Y-27920943D01*
X39559577Y-27768216D01*
X39480520Y-27631284D01*
X39368716Y-27519480D01*
X39231784Y-27440423D01*
X39079057Y-27399500D01*
X38920943Y-27399500D01*
X38768216Y-27440423D01*
X38631284Y-27519480D01*
X38519480Y-27631284D01*
X38440423Y-27768216D01*
X38413953Y-27867006D01*
X38399500Y-27920944D01*
X38399500Y-27957744D01*
X38380593Y-28015935D01*
X38370504Y-28027748D01*
X33738737Y-32659515D01*
X33738736Y-32659514D01*
X33659514Y-32738737D01*
X33603498Y-32835758D01*
X33603497Y-32835763D01*
X33583256Y-32911306D01*
X33574500Y-32943983D01*
X33574500Y-52975500D01*
X33555593Y-53033691D01*
X33506093Y-53069655D01*
X33475500Y-53074500D01*
X6524500Y-53074500D01*
X6466309Y-53055593D01*
X6430345Y-53006093D01*
X6425500Y-52975500D01*
X6425500Y-52500000D01*
X11500000Y-52500000D01*
X11500001Y-52500000D01*
X28499999Y-52500000D01*
X28500000Y-52500000D01*
X28500000Y-48643709D01*
X29649500Y-48643709D01*
X29649500Y-48856290D01*
X29682752Y-49066238D01*
X29748443Y-49268412D01*
X29844948Y-49457815D01*
X29844950Y-49457819D01*
X29969891Y-49629786D01*
X29969893Y-49629788D01*
X29969896Y-49629792D01*
X30120208Y-49780104D01*
X30120211Y-49780106D01*
X30120213Y-49780108D01*
X30292180Y-49905049D01*
X30292184Y-49905051D01*
X30481588Y-50001557D01*
X30683757Y-50067246D01*
X30683758Y-50067246D01*
X30683761Y-50067247D01*
X30893710Y-50100500D01*
X30893713Y-50100500D01*
X31106290Y-50100500D01*
X31316238Y-50067247D01*
X31316239Y-50067246D01*
X31316243Y-50067246D01*
X31518412Y-50001557D01*
X31707816Y-49905051D01*
X31879792Y-49780104D01*
X32030104Y-49629792D01*
X32155051Y-49457816D01*
X32251557Y-49268412D01*
X32317246Y-49066243D01*
X32350500Y-48856287D01*
X32350500Y-48643713D01*
X32350500Y-48643709D01*
X32317247Y-48433761D01*
X32317246Y-48433757D01*
X32251557Y-48231588D01*
X32155051Y-48042184D01*
X32155049Y-48042180D01*
X32030108Y-47870213D01*
X32030106Y-47870211D01*
X32030104Y-47870208D01*
X31879792Y-47719896D01*
X31879788Y-47719893D01*
X31879786Y-47719891D01*
X31707819Y-47594950D01*
X31707815Y-47594948D01*
X31518412Y-47498443D01*
X31316238Y-47432752D01*
X31106290Y-47399500D01*
X31106287Y-47399500D01*
X30893713Y-47399500D01*
X30893710Y-47399500D01*
X30683761Y-47432752D01*
X30481587Y-47498443D01*
X30292184Y-47594948D01*
X30292180Y-47594950D01*
X30120213Y-47719891D01*
X29969891Y-47870213D01*
X29844950Y-48042180D01*
X29844948Y-48042184D01*
X29748443Y-48231587D01*
X29682752Y-48433761D01*
X29649500Y-48643709D01*
X28500000Y-48643709D01*
X28500000Y-43619450D01*
X30279500Y-43619450D01*
X30279500Y-43800549D01*
X30307828Y-43979406D01*
X30307829Y-43979409D01*
X30363789Y-44151639D01*
X30446004Y-44312994D01*
X30552447Y-44459501D01*
X30680499Y-44587553D01*
X30827006Y-44693996D01*
X30988361Y-44776211D01*
X31160591Y-44832171D01*
X31232136Y-44843502D01*
X31339451Y-44860500D01*
X31339454Y-44860500D01*
X31520549Y-44860500D01*
X31609977Y-44846335D01*
X31699409Y-44832171D01*
X31871639Y-44776211D01*
X32032994Y-44693996D01*
X32179501Y-44587553D01*
X32307553Y-44459501D01*
X32413996Y-44312994D01*
X32496211Y-44151639D01*
X32552171Y-43979409D01*
X32580500Y-43800546D01*
X32580500Y-43619454D01*
X32580500Y-43619450D01*
X32552171Y-43440593D01*
X32552171Y-43440591D01*
X32496211Y-43268361D01*
X32413996Y-43107006D01*
X32307553Y-42960499D01*
X32179501Y-42832447D01*
X32032994Y-42726004D01*
X32032993Y-42726003D01*
X32032991Y-42726002D01*
X31871637Y-42643788D01*
X31699406Y-42587828D01*
X31520549Y-42559500D01*
X31520546Y-42559500D01*
X31339454Y-42559500D01*
X31339451Y-42559500D01*
X31160593Y-42587828D01*
X30988362Y-42643788D01*
X30827008Y-42726002D01*
X30753752Y-42779225D01*
X30680499Y-42832447D01*
X30552447Y-42960499D01*
X30499225Y-43033752D01*
X30446002Y-43107008D01*
X30363788Y-43268362D01*
X30307828Y-43440593D01*
X30279500Y-43619450D01*
X28500000Y-43619450D01*
X28500000Y-38539450D01*
X30279500Y-38539450D01*
X30279500Y-38720549D01*
X30307828Y-38899406D01*
X30307829Y-38899409D01*
X30363789Y-39071639D01*
X30446004Y-39232994D01*
X30552447Y-39379501D01*
X30680499Y-39507553D01*
X30827006Y-39613996D01*
X30988361Y-39696211D01*
X31160591Y-39752171D01*
X31232136Y-39763502D01*
X31339451Y-39780500D01*
X31339454Y-39780500D01*
X31520549Y-39780500D01*
X31609977Y-39766335D01*
X31699409Y-39752171D01*
X31871639Y-39696211D01*
X32032994Y-39613996D01*
X32179501Y-39507553D01*
X32307553Y-39379501D01*
X32413996Y-39232994D01*
X32496211Y-39071639D01*
X32552171Y-38899409D01*
X32580500Y-38720546D01*
X32580500Y-38539454D01*
X32580500Y-38539450D01*
X32552171Y-38360593D01*
X32552171Y-38360591D01*
X32496211Y-38188361D01*
X32413996Y-38027006D01*
X32307553Y-37880499D01*
X32179501Y-37752447D01*
X32032994Y-37646004D01*
X32032993Y-37646003D01*
X32032991Y-37646002D01*
X31871637Y-37563788D01*
X31699406Y-37507828D01*
X31520549Y-37479500D01*
X31520546Y-37479500D01*
X31339454Y-37479500D01*
X31339451Y-37479500D01*
X31160593Y-37507828D01*
X30988362Y-37563788D01*
X30827008Y-37646002D01*
X30753752Y-37699225D01*
X30680499Y-37752447D01*
X30552447Y-37880499D01*
X30499225Y-37953752D01*
X30446002Y-38027008D01*
X30363788Y-38188362D01*
X30307828Y-38360593D01*
X30279500Y-38539450D01*
X28500000Y-38539450D01*
X28500000Y-35999450D01*
X30279500Y-35999450D01*
X30279500Y-36180549D01*
X30307828Y-36359406D01*
X30307829Y-36359409D01*
X30363789Y-36531639D01*
X30446004Y-36692994D01*
X30552447Y-36839501D01*
X30680499Y-36967553D01*
X30827006Y-37073996D01*
X30988361Y-37156211D01*
X31160591Y-37212171D01*
X31232136Y-37223502D01*
X31339451Y-37240500D01*
X31339454Y-37240500D01*
X31520549Y-37240500D01*
X31609977Y-37226335D01*
X31699409Y-37212171D01*
X31871639Y-37156211D01*
X32032994Y-37073996D01*
X32179501Y-36967553D01*
X32307553Y-36839501D01*
X32413996Y-36692994D01*
X32496211Y-36531639D01*
X32552171Y-36359409D01*
X32580500Y-36180546D01*
X32580500Y-35999454D01*
X32580500Y-35999450D01*
X32554352Y-35834361D01*
X32552171Y-35820591D01*
X32496211Y-35648361D01*
X32413996Y-35487006D01*
X32307553Y-35340499D01*
X32179501Y-35212447D01*
X32032994Y-35106004D01*
X32032993Y-35106003D01*
X32032991Y-35106002D01*
X31871637Y-35023788D01*
X31699406Y-34967828D01*
X31520549Y-34939500D01*
X31520546Y-34939500D01*
X31339454Y-34939500D01*
X31339451Y-34939500D01*
X31160593Y-34967828D01*
X30988362Y-35023788D01*
X30827008Y-35106002D01*
X30753752Y-35159225D01*
X30680499Y-35212447D01*
X30552447Y-35340499D01*
X30514230Y-35393100D01*
X30446002Y-35487008D01*
X30363788Y-35648362D01*
X30307828Y-35820593D01*
X30279500Y-35999450D01*
X28500000Y-35999450D01*
X28500000Y-33459450D01*
X30279500Y-33459450D01*
X30279500Y-33640549D01*
X30307828Y-33819406D01*
X30363788Y-33991637D01*
X30409113Y-34080593D01*
X30446004Y-34152994D01*
X30552447Y-34299501D01*
X30680499Y-34427553D01*
X30827006Y-34533996D01*
X30988361Y-34616211D01*
X31160591Y-34672171D01*
X31232136Y-34683502D01*
X31339451Y-34700500D01*
X31339454Y-34700500D01*
X31520549Y-34700500D01*
X31609977Y-34686335D01*
X31699409Y-34672171D01*
X31871639Y-34616211D01*
X32032994Y-34533996D01*
X32179501Y-34427553D01*
X32307553Y-34299501D01*
X32413996Y-34152994D01*
X32496211Y-33991639D01*
X32552171Y-33819409D01*
X32566335Y-33729977D01*
X32580500Y-33640549D01*
X32580500Y-33459450D01*
X32552171Y-33280593D01*
X32552171Y-33280591D01*
X32496211Y-33108361D01*
X32413996Y-32947006D01*
X32307553Y-32800499D01*
X32179501Y-32672447D01*
X32032994Y-32566004D01*
X32032993Y-32566003D01*
X32032991Y-32566002D01*
X31871637Y-32483788D01*
X31699406Y-32427828D01*
X31520549Y-32399500D01*
X31520546Y-32399500D01*
X31339454Y-32399500D01*
X31339451Y-32399500D01*
X31160593Y-32427828D01*
X30988362Y-32483788D01*
X30827008Y-32566002D01*
X30753752Y-32619225D01*
X30680499Y-32672447D01*
X30552447Y-32800499D01*
X30522071Y-32842308D01*
X30446002Y-32947008D01*
X30363788Y-33108362D01*
X30307828Y-33280593D01*
X30279500Y-33459450D01*
X28500000Y-33459450D01*
X28500000Y-30919450D01*
X30279500Y-30919450D01*
X30279500Y-31100549D01*
X30307828Y-31279406D01*
X30307829Y-31279409D01*
X30363789Y-31451639D01*
X30446004Y-31612994D01*
X30552447Y-31759501D01*
X30680499Y-31887553D01*
X30827006Y-31993996D01*
X30988361Y-32076211D01*
X31160591Y-32132171D01*
X31232136Y-32143502D01*
X31339451Y-32160500D01*
X31339454Y-32160500D01*
X31520549Y-32160500D01*
X31609977Y-32146335D01*
X31699409Y-32132171D01*
X31871639Y-32076211D01*
X32032994Y-31993996D01*
X32179501Y-31887553D01*
X32307553Y-31759501D01*
X32413996Y-31612994D01*
X32496211Y-31451639D01*
X32552171Y-31279409D01*
X32580500Y-31100546D01*
X32580500Y-30919454D01*
X32580500Y-30919450D01*
X32552171Y-30740593D01*
X32552171Y-30740591D01*
X32496211Y-30568361D01*
X32413996Y-30407006D01*
X32307553Y-30260499D01*
X32179501Y-30132447D01*
X32032994Y-30026004D01*
X32032993Y-30026003D01*
X32032991Y-30026002D01*
X31871637Y-29943788D01*
X31699406Y-29887828D01*
X31520549Y-29859500D01*
X31520546Y-29859500D01*
X31339454Y-29859500D01*
X31339451Y-29859500D01*
X31160593Y-29887828D01*
X30988362Y-29943788D01*
X30827008Y-30026002D01*
X30753752Y-30079225D01*
X30680499Y-30132447D01*
X30552447Y-30260499D01*
X30499225Y-30333752D01*
X30446002Y-30407008D01*
X30363788Y-30568362D01*
X30307828Y-30740593D01*
X30279500Y-30919450D01*
X28500000Y-30919450D01*
X28500000Y-28379450D01*
X30279500Y-28379450D01*
X30279500Y-28560549D01*
X30307828Y-28739406D01*
X30307829Y-28739409D01*
X30363789Y-28911639D01*
X30446004Y-29072994D01*
X30552447Y-29219501D01*
X30680499Y-29347553D01*
X30827006Y-29453996D01*
X30988361Y-29536211D01*
X31160591Y-29592171D01*
X31232136Y-29603502D01*
X31339451Y-29620500D01*
X31339454Y-29620500D01*
X31520549Y-29620500D01*
X31609977Y-29606335D01*
X31699409Y-29592171D01*
X31871639Y-29536211D01*
X32032994Y-29453996D01*
X32179501Y-29347553D01*
X32307553Y-29219501D01*
X32413996Y-29072994D01*
X32496211Y-28911639D01*
X32552171Y-28739409D01*
X32566335Y-28649977D01*
X32580500Y-28560549D01*
X32580500Y-28379450D01*
X32552171Y-28200593D01*
X32552171Y-28200591D01*
X32496211Y-28028361D01*
X32413996Y-27867006D01*
X32307553Y-27720499D01*
X32179501Y-27592447D01*
X32032994Y-27486004D01*
X32032993Y-27486003D01*
X32032991Y-27486002D01*
X31871637Y-27403788D01*
X31699406Y-27347828D01*
X31520549Y-27319500D01*
X31520546Y-27319500D01*
X31339454Y-27319500D01*
X31339451Y-27319500D01*
X31160593Y-27347828D01*
X30988362Y-27403788D01*
X30827008Y-27486002D01*
X30780930Y-27519480D01*
X30680499Y-27592447D01*
X30552447Y-27720499D01*
X30517779Y-27768216D01*
X30446002Y-27867008D01*
X30363788Y-28028362D01*
X30307828Y-28200593D01*
X30279500Y-28379450D01*
X28500000Y-28379450D01*
X28500000Y-25324543D01*
X62995900Y-25324543D01*
X62995900Y-25482657D01*
X63036823Y-25635384D01*
X63115880Y-25772316D01*
X63166905Y-25823341D01*
X63194681Y-25877856D01*
X63195900Y-25893343D01*
X63195900Y-32543673D01*
X63195900Y-32649127D01*
X63219910Y-32738737D01*
X63223194Y-32750992D01*
X63275916Y-32842308D01*
X63275918Y-32842310D01*
X63275920Y-32842313D01*
X64074154Y-33640546D01*
X64822275Y-34388667D01*
X64850052Y-34443184D01*
X64844370Y-34494987D01*
X64835122Y-34518437D01*
X64824500Y-34606893D01*
X64824500Y-35393106D01*
X64835123Y-35481565D01*
X64890637Y-35622339D01*
X64890638Y-35622341D01*
X64890639Y-35622342D01*
X64982078Y-35742922D01*
X65102658Y-35834361D01*
X65102659Y-35834361D01*
X65102660Y-35834362D01*
X65173047Y-35862119D01*
X65243436Y-35889877D01*
X65331898Y-35900500D01*
X65331900Y-35900500D01*
X66668100Y-35900500D01*
X66668102Y-35900500D01*
X66756564Y-35889877D01*
X66897342Y-35834361D01*
X67017922Y-35742922D01*
X67109361Y-35622342D01*
X67164877Y-35481564D01*
X67175500Y-35393102D01*
X67175500Y-34606898D01*
X67164877Y-34518436D01*
X67129036Y-34427550D01*
X67109362Y-34377660D01*
X67109361Y-34377659D01*
X67109361Y-34377658D01*
X67017922Y-34257078D01*
X66897342Y-34165639D01*
X66897341Y-34165638D01*
X66897339Y-34165637D01*
X66756565Y-34110123D01*
X66668106Y-34099500D01*
X66668102Y-34099500D01*
X65706900Y-34099500D01*
X65699302Y-34097031D01*
X65691413Y-34098281D01*
X65670757Y-34087756D01*
X65648709Y-34080593D01*
X65636896Y-34070504D01*
X65635896Y-34069504D01*
X65608119Y-34014987D01*
X65617690Y-33954555D01*
X65660955Y-33911290D01*
X65705900Y-33900500D01*
X66363690Y-33900500D01*
X66363691Y-33900500D01*
X66537666Y-33865894D01*
X66701547Y-33798013D01*
X66849035Y-33699464D01*
X66974464Y-33574035D01*
X67073013Y-33426547D01*
X67140894Y-33262666D01*
X67175500Y-33088691D01*
X67175500Y-32911309D01*
X67140894Y-32737334D01*
X67073014Y-32573455D01*
X67073014Y-32573454D01*
X66974464Y-32425965D01*
X66849034Y-32300535D01*
X66701544Y-32201985D01*
X66537666Y-32134106D01*
X66363693Y-32099500D01*
X66363691Y-32099500D01*
X65636309Y-32099500D01*
X65636306Y-32099500D01*
X65462334Y-32134106D01*
X65462332Y-32134106D01*
X65298455Y-32201985D01*
X65298454Y-32201985D01*
X65150965Y-32300535D01*
X65025535Y-32425965D01*
X64926985Y-32573454D01*
X64926985Y-32573455D01*
X64859106Y-32737332D01*
X64859106Y-32737334D01*
X64824500Y-32911306D01*
X64824500Y-33019099D01*
X64805593Y-33077290D01*
X64756093Y-33113254D01*
X64694907Y-33113254D01*
X64655496Y-33089103D01*
X64025896Y-32459503D01*
X63998119Y-32404986D01*
X63996900Y-32389499D01*
X63996900Y-25893343D01*
X64015807Y-25835152D01*
X64025890Y-25823345D01*
X64076920Y-25772316D01*
X64155977Y-25635384D01*
X64196900Y-25482657D01*
X64196900Y-25324543D01*
X64155977Y-25171816D01*
X64076920Y-25034884D01*
X63965116Y-24923080D01*
X63828184Y-24844023D01*
X63675457Y-24803100D01*
X63517343Y-24803100D01*
X63364616Y-24844023D01*
X63227684Y-24923080D01*
X63115880Y-25034884D01*
X63036823Y-25171816D01*
X62995900Y-25324543D01*
X28500000Y-25324543D01*
X28500000Y-23299450D01*
X30279500Y-23299450D01*
X30279500Y-23480549D01*
X30307828Y-23659406D01*
X30307829Y-23659409D01*
X30363789Y-23831639D01*
X30446004Y-23992994D01*
X30552447Y-24139501D01*
X30680499Y-24267553D01*
X30827006Y-24373996D01*
X30988361Y-24456211D01*
X31160591Y-24512171D01*
X31232136Y-24523502D01*
X31339451Y-24540500D01*
X31339454Y-24540500D01*
X31520549Y-24540500D01*
X31609977Y-24526335D01*
X31699409Y-24512171D01*
X31871639Y-24456211D01*
X32032994Y-24373996D01*
X32179501Y-24267553D01*
X32307553Y-24139501D01*
X32413996Y-23992994D01*
X32496211Y-23831639D01*
X32552171Y-23659409D01*
X32580500Y-23480546D01*
X32580500Y-23299454D01*
X32580500Y-23299450D01*
X32552171Y-23120593D01*
X32552171Y-23120591D01*
X32496211Y-22948361D01*
X32413996Y-22787006D01*
X32307553Y-22640499D01*
X32179501Y-22512447D01*
X32032994Y-22406004D01*
X32032993Y-22406003D01*
X32032991Y-22406002D01*
X31871637Y-22323788D01*
X31699406Y-22267828D01*
X31520549Y-22239500D01*
X31520546Y-22239500D01*
X31339454Y-22239500D01*
X31339451Y-22239500D01*
X31160593Y-22267828D01*
X30988362Y-22323788D01*
X30827008Y-22406002D01*
X30753752Y-22459225D01*
X30680499Y-22512447D01*
X30552447Y-22640499D01*
X30499225Y-22713752D01*
X30446002Y-22787008D01*
X30363788Y-22948362D01*
X30307828Y-23120593D01*
X30279500Y-23299450D01*
X28500000Y-23299450D01*
X28500000Y-19955130D01*
X30279500Y-19955130D01*
X30279500Y-21744860D01*
X30279501Y-21744863D01*
X30282414Y-21769990D01*
X30307756Y-21827385D01*
X30327794Y-21872765D01*
X30407235Y-21952206D01*
X30510009Y-21997585D01*
X30535135Y-22000500D01*
X32324864Y-22000499D01*
X32349991Y-21997585D01*
X32452765Y-21952206D01*
X32532206Y-21872765D01*
X32577585Y-21769991D01*
X32580500Y-21744865D01*
X32580499Y-19955136D01*
X32577585Y-19930009D01*
X32532206Y-19827235D01*
X32452765Y-19747794D01*
X32349991Y-19702415D01*
X32349990Y-19702414D01*
X32349988Y-19702414D01*
X32324868Y-19699500D01*
X30535139Y-19699500D01*
X30535136Y-19699501D01*
X30510009Y-19702414D01*
X30407235Y-19747794D01*
X30327794Y-19827235D01*
X30282414Y-19930011D01*
X30279500Y-19955130D01*
X28500000Y-19955130D01*
X28500000Y-10143709D01*
X29649500Y-10143709D01*
X29649500Y-10356290D01*
X29682752Y-10566238D01*
X29748443Y-10768412D01*
X29844948Y-10957815D01*
X29844950Y-10957819D01*
X29969891Y-11129786D01*
X29969893Y-11129788D01*
X29969896Y-11129792D01*
X30120208Y-11280104D01*
X30120211Y-11280106D01*
X30120213Y-11280108D01*
X30292180Y-11405049D01*
X30292184Y-11405051D01*
X30481588Y-11501557D01*
X30683757Y-11567246D01*
X30683758Y-11567246D01*
X30683761Y-11567247D01*
X30893710Y-11600500D01*
X30893713Y-11600500D01*
X31106290Y-11600500D01*
X31316238Y-11567247D01*
X31316239Y-11567246D01*
X31316243Y-11567246D01*
X31518412Y-11501557D01*
X31707816Y-11405051D01*
X31879792Y-11280104D01*
X32030104Y-11129792D01*
X32155051Y-10957816D01*
X32251557Y-10768412D01*
X32317246Y-10566243D01*
X32350500Y-10356287D01*
X32350500Y-10143713D01*
X32350500Y-10143709D01*
X32317247Y-9933761D01*
X32317246Y-9933757D01*
X32251557Y-9731588D01*
X32155051Y-9542184D01*
X32155049Y-9542180D01*
X32030108Y-9370213D01*
X32030106Y-9370211D01*
X32030104Y-9370208D01*
X31879792Y-9219896D01*
X31879788Y-9219893D01*
X31879786Y-9219891D01*
X31707819Y-9094950D01*
X31707815Y-9094948D01*
X31518412Y-8998443D01*
X31316238Y-8932752D01*
X31106290Y-8899500D01*
X31106287Y-8899500D01*
X30893713Y-8899500D01*
X30893710Y-8899500D01*
X30683761Y-8932752D01*
X30481587Y-8998443D01*
X30292184Y-9094948D01*
X30292180Y-9094950D01*
X30120213Y-9219891D01*
X29969891Y-9370213D01*
X29844950Y-9542180D01*
X29844948Y-9542184D01*
X29748443Y-9731587D01*
X29682752Y-9933761D01*
X29649500Y-10143709D01*
X28500000Y-10143709D01*
X28500000Y-7500000D01*
X11500000Y-7500000D01*
X11500000Y-52500000D01*
X6425500Y-52500000D01*
X6425500Y-48643709D01*
X7649500Y-48643709D01*
X7649500Y-48856290D01*
X7682752Y-49066238D01*
X7748443Y-49268412D01*
X7844948Y-49457815D01*
X7844950Y-49457819D01*
X7969891Y-49629786D01*
X7969893Y-49629788D01*
X7969896Y-49629792D01*
X8120208Y-49780104D01*
X8120211Y-49780106D01*
X8120213Y-49780108D01*
X8292180Y-49905049D01*
X8292184Y-49905051D01*
X8481588Y-50001557D01*
X8683757Y-50067246D01*
X8683758Y-50067246D01*
X8683761Y-50067247D01*
X8893710Y-50100500D01*
X8893713Y-50100500D01*
X9106290Y-50100500D01*
X9316238Y-50067247D01*
X9316239Y-50067246D01*
X9316243Y-50067246D01*
X9518412Y-50001557D01*
X9707816Y-49905051D01*
X9879792Y-49780104D01*
X10030104Y-49629792D01*
X10155051Y-49457816D01*
X10251557Y-49268412D01*
X10317246Y-49066243D01*
X10350500Y-48856287D01*
X10350500Y-48643713D01*
X10350500Y-48643709D01*
X10317247Y-48433761D01*
X10317246Y-48433757D01*
X10251557Y-48231588D01*
X10155051Y-48042184D01*
X10155049Y-48042180D01*
X10030108Y-47870213D01*
X10030106Y-47870211D01*
X10030104Y-47870208D01*
X9879792Y-47719896D01*
X9879788Y-47719893D01*
X9879786Y-47719891D01*
X9707819Y-47594950D01*
X9707815Y-47594948D01*
X9518412Y-47498443D01*
X9316238Y-47432752D01*
X9106290Y-47399500D01*
X9106287Y-47399500D01*
X8893713Y-47399500D01*
X8893710Y-47399500D01*
X8683761Y-47432752D01*
X8481587Y-47498443D01*
X8292184Y-47594948D01*
X8292180Y-47594950D01*
X8120213Y-47719891D01*
X7969891Y-47870213D01*
X7844950Y-48042180D01*
X7844948Y-48042184D01*
X7748443Y-48231587D01*
X7682752Y-48433761D01*
X7649500Y-48643709D01*
X6425500Y-48643709D01*
X6425500Y-43619450D01*
X7419500Y-43619450D01*
X7419500Y-43800549D01*
X7447828Y-43979406D01*
X7447829Y-43979409D01*
X7503789Y-44151639D01*
X7586004Y-44312994D01*
X7692447Y-44459501D01*
X7820499Y-44587553D01*
X7967006Y-44693996D01*
X8128361Y-44776211D01*
X8300591Y-44832171D01*
X8372136Y-44843502D01*
X8479451Y-44860500D01*
X8479454Y-44860500D01*
X8660549Y-44860500D01*
X8749977Y-44846335D01*
X8839409Y-44832171D01*
X9011639Y-44776211D01*
X9172994Y-44693996D01*
X9319501Y-44587553D01*
X9447553Y-44459501D01*
X9553996Y-44312994D01*
X9636211Y-44151639D01*
X9692171Y-43979409D01*
X9720500Y-43800546D01*
X9720500Y-43619454D01*
X9720500Y-43619450D01*
X9692171Y-43440593D01*
X9692171Y-43440591D01*
X9636211Y-43268361D01*
X9553996Y-43107006D01*
X9447553Y-42960499D01*
X9319501Y-42832447D01*
X9172994Y-42726004D01*
X9172993Y-42726003D01*
X9172991Y-42726002D01*
X9011637Y-42643788D01*
X8839406Y-42587828D01*
X8660549Y-42559500D01*
X8660546Y-42559500D01*
X8479454Y-42559500D01*
X8479451Y-42559500D01*
X8300593Y-42587828D01*
X8128362Y-42643788D01*
X7967008Y-42726002D01*
X7893752Y-42779225D01*
X7820499Y-42832447D01*
X7692447Y-42960499D01*
X7639225Y-43033752D01*
X7586002Y-43107008D01*
X7503788Y-43268362D01*
X7447828Y-43440593D01*
X7419500Y-43619450D01*
X6425500Y-43619450D01*
X6425500Y-41417255D01*
X6444407Y-41359064D01*
X6454490Y-41347257D01*
X8068237Y-39733509D01*
X8122752Y-39705734D01*
X8168829Y-39709359D01*
X8300591Y-39752171D01*
X8372136Y-39763502D01*
X8479451Y-39780500D01*
X8479454Y-39780500D01*
X8660549Y-39780500D01*
X8749977Y-39766335D01*
X8839409Y-39752171D01*
X9011639Y-39696211D01*
X9172994Y-39613996D01*
X9319501Y-39507553D01*
X9447553Y-39379501D01*
X9553996Y-39232994D01*
X9636211Y-39071639D01*
X9692171Y-38899409D01*
X9720500Y-38720546D01*
X9720500Y-38539454D01*
X9720500Y-38539450D01*
X9692171Y-38360593D01*
X9692171Y-38360591D01*
X9636211Y-38188361D01*
X9553996Y-38027006D01*
X9447553Y-37880499D01*
X9319501Y-37752447D01*
X9172994Y-37646004D01*
X9172993Y-37646003D01*
X9172991Y-37646002D01*
X9011637Y-37563788D01*
X8839406Y-37507828D01*
X8660549Y-37479500D01*
X8660546Y-37479500D01*
X8479454Y-37479500D01*
X8479451Y-37479500D01*
X8300593Y-37507828D01*
X8128362Y-37563788D01*
X7967008Y-37646002D01*
X7893752Y-37699225D01*
X7820499Y-37752447D01*
X7692447Y-37880499D01*
X7639225Y-37953752D01*
X7586002Y-38027008D01*
X7503788Y-38188362D01*
X7447828Y-38360593D01*
X7419500Y-38539450D01*
X7419500Y-38720549D01*
X7447828Y-38899406D01*
X7490638Y-39031167D01*
X7490637Y-39092353D01*
X7466487Y-39131763D01*
X5738737Y-40859515D01*
X5738736Y-40859514D01*
X5659514Y-40938737D01*
X5603498Y-41035758D01*
X5603497Y-41035763D01*
X5574500Y-41143982D01*
X500500Y-41143982D01*
X500500Y-35999450D01*
X7419500Y-35999450D01*
X7419500Y-36180549D01*
X7447828Y-36359406D01*
X7447829Y-36359409D01*
X7503789Y-36531639D01*
X7586004Y-36692994D01*
X7692447Y-36839501D01*
X7820499Y-36967553D01*
X7967006Y-37073996D01*
X8128361Y-37156211D01*
X8300591Y-37212171D01*
X8372136Y-37223502D01*
X8479451Y-37240500D01*
X8479454Y-37240500D01*
X8660549Y-37240500D01*
X8749977Y-37226335D01*
X8839409Y-37212171D01*
X9011639Y-37156211D01*
X9172994Y-37073996D01*
X9319501Y-36967553D01*
X9447553Y-36839501D01*
X9553996Y-36692994D01*
X9636211Y-36531639D01*
X9692171Y-36359409D01*
X9720500Y-36180546D01*
X9720500Y-35999454D01*
X9720500Y-35999450D01*
X9694352Y-35834361D01*
X9692171Y-35820591D01*
X9636211Y-35648361D01*
X9553996Y-35487006D01*
X9447553Y-35340499D01*
X9319501Y-35212447D01*
X9172994Y-35106004D01*
X9172993Y-35106003D01*
X9172991Y-35106002D01*
X9011637Y-35023788D01*
X8839406Y-34967828D01*
X8660549Y-34939500D01*
X8660546Y-34939500D01*
X8479454Y-34939500D01*
X8479451Y-34939500D01*
X8300593Y-34967828D01*
X8128362Y-35023788D01*
X7967008Y-35106002D01*
X7893752Y-35159225D01*
X7820499Y-35212447D01*
X7692447Y-35340499D01*
X7654230Y-35393100D01*
X7586002Y-35487008D01*
X7503788Y-35648362D01*
X7447828Y-35820593D01*
X7419500Y-35999450D01*
X500500Y-35999450D01*
X500500Y-33459450D01*
X7419500Y-33459450D01*
X7419500Y-33640549D01*
X7447828Y-33819406D01*
X7503788Y-33991637D01*
X7549113Y-34080593D01*
X7586004Y-34152994D01*
X7692447Y-34299501D01*
X7820499Y-34427553D01*
X7967006Y-34533996D01*
X8128361Y-34616211D01*
X8300591Y-34672171D01*
X8372136Y-34683502D01*
X8479451Y-34700500D01*
X8479454Y-34700500D01*
X8660549Y-34700500D01*
X8749977Y-34686335D01*
X8839409Y-34672171D01*
X9011639Y-34616211D01*
X9172994Y-34533996D01*
X9319501Y-34427553D01*
X9447553Y-34299501D01*
X9553996Y-34152994D01*
X9636211Y-33991639D01*
X9692171Y-33819409D01*
X9706335Y-33729977D01*
X9720500Y-33640549D01*
X9720500Y-33459450D01*
X9692171Y-33280593D01*
X9692171Y-33280591D01*
X9636211Y-33108361D01*
X9553996Y-32947006D01*
X9447553Y-32800499D01*
X9319501Y-32672447D01*
X9172994Y-32566004D01*
X9172993Y-32566003D01*
X9172991Y-32566002D01*
X9011637Y-32483788D01*
X8839406Y-32427828D01*
X8660549Y-32399500D01*
X8660546Y-32399500D01*
X8479454Y-32399500D01*
X8479451Y-32399500D01*
X8300593Y-32427828D01*
X8128362Y-32483788D01*
X7967008Y-32566002D01*
X7893752Y-32619225D01*
X7820499Y-32672447D01*
X7692447Y-32800499D01*
X7662071Y-32842308D01*
X7586002Y-32947008D01*
X7503788Y-33108362D01*
X7447828Y-33280593D01*
X7419500Y-33459450D01*
X500500Y-33459450D01*
X500500Y-30919450D01*
X7419500Y-30919450D01*
X7419500Y-31100549D01*
X7447828Y-31279406D01*
X7447829Y-31279409D01*
X7503789Y-31451639D01*
X7586004Y-31612994D01*
X7692447Y-31759501D01*
X7820499Y-31887553D01*
X7967006Y-31993996D01*
X8128361Y-32076211D01*
X8300591Y-32132171D01*
X8372136Y-32143502D01*
X8479451Y-32160500D01*
X8479454Y-32160500D01*
X8660549Y-32160500D01*
X8749977Y-32146335D01*
X8839409Y-32132171D01*
X9011639Y-32076211D01*
X9172994Y-31993996D01*
X9319501Y-31887553D01*
X9447553Y-31759501D01*
X9553996Y-31612994D01*
X9636211Y-31451639D01*
X9692171Y-31279409D01*
X9720500Y-31100546D01*
X9720500Y-30919454D01*
X9720500Y-30919450D01*
X9692171Y-30740593D01*
X9692171Y-30740591D01*
X9636211Y-30568361D01*
X9553996Y-30407006D01*
X9447553Y-30260499D01*
X9319501Y-30132447D01*
X9172994Y-30026004D01*
X9172993Y-30026003D01*
X9172991Y-30026002D01*
X9011637Y-29943788D01*
X8839406Y-29887828D01*
X8660549Y-29859500D01*
X8660546Y-29859500D01*
X8479454Y-29859500D01*
X8479451Y-29859500D01*
X8300593Y-29887828D01*
X8128362Y-29943788D01*
X7967008Y-30026002D01*
X7893752Y-30079225D01*
X7820499Y-30132447D01*
X7692447Y-30260499D01*
X7639225Y-30333752D01*
X7586002Y-30407008D01*
X7503788Y-30568362D01*
X7447828Y-30740593D01*
X7419500Y-30919450D01*
X500500Y-30919450D01*
X500500Y-28379450D01*
X7419500Y-28379450D01*
X7419500Y-28560549D01*
X7447828Y-28739406D01*
X7447829Y-28739409D01*
X7503789Y-28911639D01*
X7586004Y-29072994D01*
X7692447Y-29219501D01*
X7820499Y-29347553D01*
X7967006Y-29453996D01*
X8128361Y-29536211D01*
X8300591Y-29592171D01*
X8372136Y-29603502D01*
X8479451Y-29620500D01*
X8479454Y-29620500D01*
X8660549Y-29620500D01*
X8749977Y-29606335D01*
X8839409Y-29592171D01*
X9011639Y-29536211D01*
X9172994Y-29453996D01*
X9319501Y-29347553D01*
X9447553Y-29219501D01*
X9553996Y-29072994D01*
X9636211Y-28911639D01*
X9692171Y-28739409D01*
X9706335Y-28649977D01*
X9720500Y-28560549D01*
X9720500Y-28379450D01*
X9692171Y-28200593D01*
X9692171Y-28200591D01*
X9636211Y-28028361D01*
X9553996Y-27867006D01*
X9447553Y-27720499D01*
X9319501Y-27592447D01*
X9172994Y-27486004D01*
X9172993Y-27486003D01*
X9172991Y-27486002D01*
X9011637Y-27403788D01*
X8839406Y-27347828D01*
X8660549Y-27319500D01*
X8660546Y-27319500D01*
X8479454Y-27319500D01*
X8479451Y-27319500D01*
X8300593Y-27347828D01*
X8128362Y-27403788D01*
X7967008Y-27486002D01*
X7920930Y-27519480D01*
X7820499Y-27592447D01*
X7692447Y-27720499D01*
X7657779Y-27768216D01*
X7586002Y-27867008D01*
X7503788Y-28028362D01*
X7447828Y-28200593D01*
X7419500Y-28379450D01*
X500500Y-28379450D01*
X500500Y-23299450D01*
X7419500Y-23299450D01*
X7419500Y-23480549D01*
X7447828Y-23659406D01*
X7447829Y-23659409D01*
X7503789Y-23831639D01*
X7586004Y-23992994D01*
X7692447Y-24139501D01*
X7820499Y-24267553D01*
X7967006Y-24373996D01*
X8128361Y-24456211D01*
X8300591Y-24512171D01*
X8372136Y-24523502D01*
X8479451Y-24540500D01*
X8479454Y-24540500D01*
X8660549Y-24540500D01*
X8749977Y-24526335D01*
X8839409Y-24512171D01*
X9011639Y-24456211D01*
X9172994Y-24373996D01*
X9319501Y-24267553D01*
X9447553Y-24139501D01*
X9553996Y-23992994D01*
X9636211Y-23831639D01*
X9692171Y-23659409D01*
X9720500Y-23480546D01*
X9720500Y-23299454D01*
X9720500Y-23299450D01*
X9692171Y-23120593D01*
X9692171Y-23120591D01*
X9636211Y-22948361D01*
X9553996Y-22787006D01*
X9447553Y-22640499D01*
X9319501Y-22512447D01*
X9172994Y-22406004D01*
X9172993Y-22406003D01*
X9172991Y-22406002D01*
X9011637Y-22323788D01*
X8839406Y-22267828D01*
X8660549Y-22239500D01*
X8660546Y-22239500D01*
X8479454Y-22239500D01*
X8479451Y-22239500D01*
X8300593Y-22267828D01*
X8128362Y-22323788D01*
X7967008Y-22406002D01*
X7893752Y-22459225D01*
X7820499Y-22512447D01*
X7692447Y-22640499D01*
X7639225Y-22713752D01*
X7586002Y-22787008D01*
X7503788Y-22948362D01*
X7447828Y-23120593D01*
X7419500Y-23299450D01*
X500500Y-23299450D01*
X500500Y-19955130D01*
X7419500Y-19955130D01*
X7419500Y-21744860D01*
X7419501Y-21744863D01*
X7422414Y-21769990D01*
X7447756Y-21827385D01*
X7467794Y-21872765D01*
X7547235Y-21952206D01*
X7650009Y-21997585D01*
X7675135Y-22000500D01*
X9464864Y-22000499D01*
X9489991Y-21997585D01*
X9592765Y-21952206D01*
X9672206Y-21872765D01*
X9717585Y-21769991D01*
X9720500Y-21744865D01*
X9720499Y-19955136D01*
X9717585Y-19930009D01*
X9672206Y-19827235D01*
X9592765Y-19747794D01*
X9489991Y-19702415D01*
X9489990Y-19702414D01*
X9489988Y-19702414D01*
X9464868Y-19699500D01*
X7675139Y-19699500D01*
X7675136Y-19699501D01*
X7650009Y-19702414D01*
X7547235Y-19747794D01*
X7467794Y-19827235D01*
X7422414Y-19930011D01*
X7419500Y-19955130D01*
X500500Y-19955130D01*
X500500Y-10143709D01*
X7649500Y-10143709D01*
X7649500Y-10356290D01*
X7682752Y-10566238D01*
X7748443Y-10768412D01*
X7844948Y-10957815D01*
X7844950Y-10957819D01*
X7969891Y-11129786D01*
X7969893Y-11129788D01*
X7969896Y-11129792D01*
X8120208Y-11280104D01*
X8120211Y-11280106D01*
X8120213Y-11280108D01*
X8292180Y-11405049D01*
X8292184Y-11405051D01*
X8481588Y-11501557D01*
X8683757Y-11567246D01*
X8683758Y-11567246D01*
X8683761Y-11567247D01*
X8893710Y-11600500D01*
X8893713Y-11600500D01*
X9106290Y-11600500D01*
X9316238Y-11567247D01*
X9316239Y-11567246D01*
X9316243Y-11567246D01*
X9518412Y-11501557D01*
X9707816Y-11405051D01*
X9879792Y-11280104D01*
X10030104Y-11129792D01*
X10155051Y-10957816D01*
X10251557Y-10768412D01*
X10317246Y-10566243D01*
X10350500Y-10356287D01*
X10350500Y-10143713D01*
X10350500Y-10143709D01*
X10317247Y-9933761D01*
X10317246Y-9933757D01*
X10251557Y-9731588D01*
X10155051Y-9542184D01*
X10155049Y-9542180D01*
X10030108Y-9370213D01*
X10030106Y-9370211D01*
X10030104Y-9370208D01*
X9879792Y-9219896D01*
X9879788Y-9219893D01*
X9879786Y-9219891D01*
X9707819Y-9094950D01*
X9707815Y-9094948D01*
X9518412Y-8998443D01*
X9316238Y-8932752D01*
X9106290Y-8899500D01*
X9106287Y-8899500D01*
X8893713Y-8899500D01*
X8893710Y-8899500D01*
X8683761Y-8932752D01*
X8481587Y-8998443D01*
X8292184Y-9094948D01*
X8292180Y-9094950D01*
X8120213Y-9219891D01*
X7969891Y-9370213D01*
X7844950Y-9542180D01*
X7844948Y-9542184D01*
X7748443Y-9731587D01*
X7682752Y-9933761D01*
X7649500Y-10143709D01*
X500500Y-10143709D01*
X500500Y-3878710D01*
X2149500Y-3878710D01*
X2149500Y-4121289D01*
X2181161Y-4361781D01*
X2181161Y-4361786D01*
X2243944Y-4596092D01*
X2243948Y-4596105D01*
X2336772Y-4820204D01*
X2336774Y-4820208D01*
X2336776Y-4820212D01*
X2458064Y-5030289D01*
X2458066Y-5030292D01*
X2605729Y-5222731D01*
X2605731Y-5222733D01*
X2605735Y-5222738D01*
X2777262Y-5394265D01*
X2777266Y-5394268D01*
X2777268Y-5394270D01*
X2969707Y-5541933D01*
X2969711Y-5541936D01*
X3179788Y-5663224D01*
X3403900Y-5756054D01*
X3638211Y-5818838D01*
X3878712Y-5850500D01*
X3878713Y-5850500D01*
X4121287Y-5850500D01*
X4121288Y-5850500D01*
X4361789Y-5818838D01*
X4596100Y-5756054D01*
X4820212Y-5663224D01*
X5030289Y-5541936D01*
X5222738Y-5394265D01*
X5394265Y-5222738D01*
X5541936Y-5030289D01*
X5663224Y-4820212D01*
X5756054Y-4596100D01*
X5818838Y-4361789D01*
X5850500Y-4121288D01*
X5850500Y-3878712D01*
X5818838Y-3638211D01*
X5756054Y-3403900D01*
X5663224Y-3179788D01*
X5541936Y-2969711D01*
X5394265Y-2777262D01*
X5222738Y-2605735D01*
X5222733Y-2605731D01*
X5222731Y-2605729D01*
X5030292Y-2458066D01*
X5030289Y-2458064D01*
X4820212Y-2336776D01*
X4820208Y-2336774D01*
X4820204Y-2336772D01*
X4596105Y-2243948D01*
X4596104Y-2243947D01*
X4596100Y-2243946D01*
X4361789Y-2181162D01*
X4361786Y-2181161D01*
X4361784Y-2181161D01*
X4121289Y-2149500D01*
X4121288Y-2149500D01*
X3878712Y-2149500D01*
X3878710Y-2149500D01*
X3638218Y-2181161D01*
X3638213Y-2181161D01*
X3403907Y-2243944D01*
X3403894Y-2243948D01*
X3179795Y-2336772D01*
X2969707Y-2458066D01*
X2777268Y-2605729D01*
X2605729Y-2777268D01*
X2458066Y-2969707D01*
X2336772Y-3179795D01*
X2243948Y-3403894D01*
X2243944Y-3403907D01*
X2181161Y-3638213D01*
X2181161Y-3638218D01*
X2149500Y-3878710D01*
X500500Y-3878710D01*
X500500Y-599500D01*
X519407Y-541309D01*
X568907Y-505345D01*
X599500Y-500500D01*
X47131257Y-500500D01*
X47189448Y-519407D01*
G37*
%TD.AperFunction*%
%TD*%
M02*
